  0
SECTION
  2
HEADER
  9
$ACADVER
  1
AC1009
  9
$EXTMIN
 10
0.0
 20
0.0
 30
0.0
  9
$EXTMAX
 10
1000.0
 20
1000.0
 30
0.0
  9
$FILLMODE
 70
 0
  9
$SPLFRAME
 70
 1
  0
ENDSEC
  0
SECTION
  2
TABLES
  0
TABLE
  2
LAYER
 70
1
  0
LAYER
  2
0
 70
     0
 62
     7
  6
CONTINUOUS
  0
ENDTAB
  0
ENDSEC
  0
SECTION
  2
ENTITIES
  0
LINE
  8
0
 62
     0
 10
0.0950846
 20
113.852
 30
0.0
 11
285.246
 21
113.852
 31
0.0
  0
LINE
  8
0
 62
     0
 10
285.246
 20
113.852
 30
0.0
 11
285.246
 21
0.151584
 31
0.0
  0
LINE
  8
0
 62
     0
 10
285.246
 20
0.151584
 30
0.0
 11
0.0950846
 21
0.151584
 31
0.0
  0
LINE
  8
0
 62
     0
 10
0.0950846
 20
0.151584
 30
0.0
 11
0.0950846
 21
113.852
 31
0.0
  0
LINE
  8
0
 62
     0
 10
135.369
 20
16.6784
 30
0.0
 11
152.35
 21
16.6784
 31
0.0
  0
LINE
  8
0
 62
     0
 10
152.35
 20
16.6784
 30
0.0
 11
152.35
 21
2.07808
 31
0.0
  0
LINE
  8
0
 62
     0
 10
152.35
 20
2.07808
 30
0.0
 11
135.369
 21
2.07808
 31
0.0
  0
LINE
  8
0
 62
     0
 10
135.369
 20
2.07808
 30
0.0
 11
135.369
 21
16.6784
 31
0.0
  0
LINE
  8
0
 62
     0
 10
109.175
 20
16.6784
 30
0.0
 11
126.157
 21
16.6784
 31
0.0
  0
LINE
  8
0
 62
     0
 10
126.157
 20
16.6784
 30
0.0
 11
126.157
 21
2.07808
 31
0.0
  0
LINE
  8
0
 62
     0
 10
126.157
 20
2.07808
 30
0.0
 11
109.175
 21
2.07808
 31
0.0
  0
LINE
  8
0
 62
     0
 10
109.175
 20
2.07808
 30
0.0
 11
109.175
 21
16.6784
 31
0.0
  0
LINE
  8
0
 62
     0
 10
92.5064
 20
35.7283
 30
0.0
 11
92.5064
 21
31.0279
 31
0.0
  0
LINE
  8
0
 62
     0
 10
92.5064
 20
31.0279
 30
0.0
 11
84.4381
 21
31.0279
 31
0.0
  0
LINE
  8
0
 62
     0
 10
84.4381
 20
31.0279
 30
0.0
 11
84.4381
 21
34.258
 31
0.0
  0
LINE
  8
0
 62
     0
 10
84.4381
 20
34.258
 30
0.0
 11
82.7126
 21
34.258
 31
0.0
  0
LINE
  8
0
 62
     0
 10
82.7126
 20
34.258
 30
0.0
 11
82.7126
 21
35.1772
 31
0.0
  0
LINE
  8
0
 62
     0
 10
82.7126
 20
35.1772
 30
0.0
 11
78.806
 21
35.1772
 31
0.0
  0
LINE
  8
0
 62
     0
 10
78.806
 20
35.1772
 30
0.0
 11
78.806
 21
34.258
 31
0.0
  0
LINE
  8
0
 62
     0
 10
78.806
 20
34.258
 30
0.0
 11
77.0819
 21
34.258
 31
0.0
  0
LINE
  8
0
 62
     0
 10
77.0819
 20
34.258
 30
0.0
 11
77.0819
 21
31.0279
 31
0.0
  0
LINE
  8
0
 62
     0
 10
77.0819
 20
31.0279
 30
0.0
 11
76.2564
 21
31.0279
 31
0.0
  0
LINE
  8
0
 62
     0
 10
76.2564
 20
31.0279
 30
0.0
 11
76.2564
 21
27.6283
 31
0.0
  0
LINE
  8
0
 62
     0
 10
76.2564
 20
27.6283
 30
0.0
 11
77.0819
 21
27.6283
 31
0.0
  0
LINE
  8
0
 62
     0
 10
77.0819
 20
27.6283
 30
0.0
 11
77.0819
 21
21.3582
 31
0.0
  0
LINE
  8
0
 62
     0
 10
77.0819
 20
21.3582
 30
0.0
 11
78.806
 21
21.3582
 31
0.0
  0
LINE
  8
0
 62
     0
 10
78.806
 20
21.3582
 30
0.0
 11
78.806
 21
20.377
 31
0.0
  0
LINE
  8
0
 62
     0
 10
78.806
 20
20.377
 30
0.0
 11
82.7126
 21
20.377
 31
0.0
  0
LINE
  8
0
 62
     0
 10
82.7126
 20
20.377
 30
0.0
 11
82.7126
 21
21.3582
 31
0.0
  0
LINE
  8
0
 62
     0
 10
82.7126
 20
21.3582
 30
0.0
 11
84.4381
 21
21.3582
 31
0.0
  0
LINE
  8
0
 62
     0
 10
84.4381
 20
21.3582
 30
0.0
 11
84.4381
 21
25.8286
 31
0.0
  0
LINE
  8
0
 62
     0
 10
84.4381
 20
25.8286
 30
0.0
 11
92.5064
 21
25.8286
 31
0.0
  0
LINE
  8
0
 62
     0
 10
92.5064
 20
25.8286
 30
0.0
 11
92.5064
 21
21.1281
 31
0.0
  0
LINE
  8
0
 62
     0
 10
92.5064
 20
21.1281
 30
0.0
 11
107.107
 21
21.1281
 31
0.0
  0
LINE
  8
0
 62
     0
 10
107.107
 20
21.1281
 30
0.0
 11
107.107
 21
25.8286
 31
0.0
  0
LINE
  8
0
 62
     0
 10
107.107
 20
25.8286
 30
0.0
 11
115.182
 21
25.8286
 31
0.0
  0
LINE
  8
0
 62
     0
 10
115.182
 20
25.8286
 30
0.0
 11
115.182
 21
21.3582
 31
0.0
  0
LINE
  8
0
 62
     0
 10
115.182
 20
21.3582
 30
0.0
 11
116.906
 21
21.3582
 31
0.0
  0
LINE
  8
0
 62
     0
 10
116.906
 20
21.3582
 30
0.0
 11
116.906
 21
20.377
 31
0.0
  0
LINE
  8
0
 62
     0
 10
116.906
 20
20.377
 30
0.0
 11
120.807
 21
20.377
 31
0.0
  0
LINE
  8
0
 62
     0
 10
120.807
 20
20.377
 30
0.0
 11
120.807
 21
21.3582
 31
0.0
  0
LINE
  8
0
 62
     0
 10
120.807
 20
21.3582
 30
0.0
 11
122.531
 21
21.3582
 31
0.0
  0
LINE
  8
0
 62
     0
 10
122.531
 20
21.3582
 30
0.0
 11
122.531
 21
25.8286
 31
0.0
  0
LINE
  8
0
 62
     0
 10
122.531
 20
25.8286
 30
0.0
 11
123.463
 21
25.8286
 31
0.0
  0
LINE
  8
0
 62
     0
 10
123.463
 20
25.8286
 30
0.0
 11
123.463
 21
21.1281
 31
0.0
  0
LINE
  8
0
 62
     0
 10
123.463
 20
21.1281
 30
0.0
 11
138.063
 21
21.1281
 31
0.0
  0
LINE
  8
0
 62
     0
 10
138.063
 20
21.1281
 30
0.0
 11
138.063
 21
25.8286
 31
0.0
  0
LINE
  8
0
 62
     0
 10
138.063
 20
25.8286
 30
0.0
 11
138.994
 21
25.8286
 31
0.0
  0
LINE
  8
0
 62
     0
 10
138.994
 20
25.8286
 30
0.0
 11
138.994
 21
21.3582
 31
0.0
  0
LINE
  8
0
 62
     0
 10
138.994
 20
21.3582
 30
0.0
 11
140.72
 21
21.3582
 31
0.0
  0
LINE
  8
0
 62
     0
 10
140.72
 20
21.3582
 30
0.0
 11
140.72
 21
20.377
 31
0.0
  0
LINE
  8
0
 62
     0
 10
140.72
 20
20.377
 30
0.0
 11
144.619
 21
20.377
 31
0.0
  0
LINE
  8
0
 62
     0
 10
144.619
 20
20.377
 30
0.0
 11
144.619
 21
21.3582
 31
0.0
  0
LINE
  8
0
 62
     0
 10
144.619
 20
21.3582
 30
0.0
 11
146.345
 21
21.3582
 31
0.0
  0
LINE
  8
0
 62
     0
 10
146.345
 20
21.3582
 30
0.0
 11
146.345
 21
25.8286
 31
0.0
  0
LINE
  8
0
 62
     0
 10
146.345
 20
25.8286
 30
0.0
 11
154.419
 21
25.8286
 31
0.0
  0
LINE
  8
0
 62
     0
 10
154.419
 20
25.8286
 30
0.0
 11
154.419
 21
21.1281
 31
0.0
  0
LINE
  8
0
 62
     0
 10
154.419
 20
21.1281
 30
0.0
 11
169.019
 21
21.1281
 31
0.0
  0
LINE
  8
0
 62
     0
 10
169.019
 20
21.1281
 30
0.0
 11
169.019
 21
25.8286
 31
0.0
  0
LINE
  8
0
 62
     0
 10
169.019
 20
25.8286
 30
0.0
 11
177.087
 21
25.8286
 31
0.0
  0
LINE
  8
0
 62
     0
 10
177.087
 20
25.8286
 30
0.0
 11
177.087
 21
21.3582
 31
0.0
  0
LINE
  8
0
 62
     0
 10
177.087
 20
21.3582
 30
0.0
 11
178.813
 21
21.3582
 31
0.0
  0
LINE
  8
0
 62
     0
 10
178.813
 20
21.3582
 30
0.0
 11
178.813
 21
20.377
 31
0.0
  0
LINE
  8
0
 62
     0
 10
178.813
 20
20.377
 30
0.0
 11
182.719
 21
20.377
 31
0.0
  0
LINE
  8
0
 62
     0
 10
182.719
 20
20.377
 30
0.0
 11
182.719
 21
21.3582
 31
0.0
  0
LINE
  8
0
 62
     0
 10
182.719
 20
21.3582
 30
0.0
 11
184.445
 21
21.3582
 31
0.0
  0
LINE
  8
0
 62
     0
 10
184.445
 20
21.3582
 30
0.0
 11
184.445
 21
27.6283
 31
0.0
  0
LINE
  8
0
 62
     0
 10
184.445
 20
27.6283
 30
0.0
 11
185.269
 21
27.6283
 31
0.0
  0
LINE
  8
0
 62
     0
 10
185.269
 20
27.6283
 30
0.0
 11
185.269
 21
31.0279
 31
0.0
  0
LINE
  8
0
 62
     0
 10
185.269
 20
31.0279
 30
0.0
 11
184.445
 21
31.0279
 31
0.0
  0
LINE
  8
0
 62
     0
 10
184.445
 20
31.0279
 30
0.0
 11
184.445
 21
34.258
 31
0.0
  0
LINE
  8
0
 62
     0
 10
184.445
 20
34.258
 30
0.0
 11
182.719
 21
34.258
 31
0.0
  0
LINE
  8
0
 62
     0
 10
182.719
 20
34.258
 30
0.0
 11
182.719
 21
35.1772
 31
0.0
  0
LINE
  8
0
 62
     0
 10
182.719
 20
35.1772
 30
0.0
 11
178.813
 21
35.1772
 31
0.0
  0
LINE
  8
0
 62
     0
 10
178.813
 20
35.1772
 30
0.0
 11
178.813
 21
34.258
 31
0.0
  0
LINE
  8
0
 62
     0
 10
178.813
 20
34.258
 30
0.0
 11
177.087
 21
34.258
 31
0.0
  0
LINE
  8
0
 62
     0
 10
177.087
 20
34.258
 30
0.0
 11
177.087
 21
31.0279
 31
0.0
  0
LINE
  8
0
 62
     0
 10
177.087
 20
31.0279
 30
0.0
 11
169.019
 21
31.0279
 31
0.0
  0
LINE
  8
0
 62
     0
 10
169.019
 20
31.0279
 30
0.0
 11
169.019
 21
35.7283
 31
0.0
  0
LINE
  8
0
 62
     0
 10
169.019
 20
35.7283
 30
0.0
 11
154.419
 21
35.7283
 31
0.0
  0
LINE
  8
0
 62
     0
 10
154.419
 20
35.7283
 30
0.0
 11
154.419
 21
31.0279
 31
0.0
  0
LINE
  8
0
 62
     0
 10
154.419
 20
31.0279
 30
0.0
 11
146.345
 21
31.0279
 31
0.0
  0
LINE
  8
0
 62
     0
 10
146.345
 20
31.0279
 30
0.0
 11
146.345
 21
34.258
 31
0.0
  0
LINE
  8
0
 62
     0
 10
146.345
 20
34.258
 30
0.0
 11
144.619
 21
34.258
 31
0.0
  0
LINE
  8
0
 62
     0
 10
144.619
 20
34.258
 30
0.0
 11
144.619
 21
35.1772
 31
0.0
  0
LINE
  8
0
 62
     0
 10
144.619
 20
35.1772
 30
0.0
 11
140.72
 21
35.1772
 31
0.0
  0
LINE
  8
0
 62
     0
 10
140.72
 20
35.1772
 30
0.0
 11
140.72
 21
34.258
 31
0.0
  0
LINE
  8
0
 62
     0
 10
140.72
 20
34.258
 30
0.0
 11
138.994
 21
34.258
 31
0.0
  0
LINE
  8
0
 62
     0
 10
138.994
 20
34.258
 30
0.0
 11
138.994
 21
31.0279
 31
0.0
  0
LINE
  8
0
 62
     0
 10
138.994
 20
31.0279
 30
0.0
 11
138.063
 21
31.0279
 31
0.0
  0
LINE
  8
0
 62
     0
 10
138.063
 20
31.0279
 30
0.0
 11
138.063
 21
35.7283
 31
0.0
  0
LINE
  8
0
 62
     0
 10
138.063
 20
35.7283
 30
0.0
 11
123.463
 21
35.7283
 31
0.0
  0
LINE
  8
0
 62
     0
 10
123.463
 20
35.7283
 30
0.0
 11
123.463
 21
31.0279
 31
0.0
  0
LINE
  8
0
 62
     0
 10
123.463
 20
31.0279
 30
0.0
 11
122.531
 21
31.0279
 31
0.0
  0
LINE
  8
0
 62
     0
 10
122.531
 20
31.0279
 30
0.0
 11
122.531
 21
34.258
 31
0.0
  0
LINE
  8
0
 62
     0
 10
122.531
 20
34.258
 30
0.0
 11
120.807
 21
34.258
 31
0.0
  0
LINE
  8
0
 62
     0
 10
120.807
 20
34.258
 30
0.0
 11
120.807
 21
35.1772
 31
0.0
  0
LINE
  8
0
 62
     0
 10
120.807
 20
35.1772
 30
0.0
 11
116.906
 21
35.1772
 31
0.0
  0
LINE
  8
0
 62
     0
 10
116.906
 20
35.1772
 30
0.0
 11
116.906
 21
34.258
 31
0.0
  0
LINE
  8
0
 62
     0
 10
116.906
 20
34.258
 30
0.0
 11
115.182
 21
34.258
 31
0.0
  0
LINE
  8
0
 62
     0
 10
115.182
 20
34.258
 30
0.0
 11
115.182
 21
31.0279
 31
0.0
  0
LINE
  8
0
 62
     0
 10
115.182
 20
31.0279
 30
0.0
 11
107.107
 21
31.0279
 31
0.0
  0
LINE
  8
0
 62
     0
 10
107.107
 20
31.0279
 30
0.0
 11
107.107
 21
35.7283
 31
0.0
  0
LINE
  8
0
 62
     0
 10
107.107
 20
35.7283
 30
0.0
 11
92.5064
 21
35.7283
 31
0.0
  0
LINE
  8
0
 62
     0
 10
266.338
 20
35.7283
 30
0.0
 11
280.938
 21
35.7283
 31
0.0
  0
LINE
  8
0
 62
     0
 10
280.938
 20
35.7283
 30
0.0
 11
280.938
 21
21.1281
 31
0.0
  0
LINE
  8
0
 62
     0
 10
280.938
 20
21.1281
 30
0.0
 11
266.338
 21
21.1281
 31
0.0
  0
LINE
  8
0
 62
     0
 10
266.338
 20
21.1281
 30
0.0
 11
266.338
 21
35.7283
 31
0.0
  0
LINE
  8
0
 62
     0
 10
242.525
 20
35.7283
 30
0.0
 11
257.125
 21
35.7283
 31
0.0
  0
LINE
  8
0
 62
     0
 10
257.125
 20
35.7283
 30
0.0
 11
257.125
 21
21.1281
 31
0.0
  0
LINE
  8
0
 62
     0
 10
257.125
 20
21.1281
 30
0.0
 11
242.525
 21
21.1281
 31
0.0
  0
LINE
  8
0
 62
     0
 10
242.525
 20
21.1281
 30
0.0
 11
242.525
 21
35.7283
 31
0.0
  0
LINE
  8
0
 62
     0
 10
218.713
 20
35.7283
 30
0.0
 11
233.313
 21
35.7283
 31
0.0
  0
LINE
  8
0
 62
     0
 10
233.313
 20
35.7283
 30
0.0
 11
233.313
 21
21.1281
 31
0.0
  0
LINE
  8
0
 62
     0
 10
233.313
 20
21.1281
 30
0.0
 11
218.713
 21
21.1281
 31
0.0
  0
LINE
  8
0
 62
     0
 10
218.713
 20
21.1281
 30
0.0
 11
218.713
 21
35.7283
 31
0.0
  0
LINE
  8
0
 62
     0
 10
194.9
 20
35.7283
 30
0.0
 11
209.5
 21
35.7283
 31
0.0
  0
LINE
  8
0
 62
     0
 10
209.5
 20
35.7283
 30
0.0
 11
209.5
 21
21.1281
 31
0.0
  0
LINE
  8
0
 62
     0
 10
209.5
 20
21.1281
 30
0.0
 11
194.9
 21
21.1281
 31
0.0
  0
LINE
  8
0
 62
     0
 10
194.9
 20
21.1281
 30
0.0
 11
194.9
 21
35.7283
 31
0.0
  0
LINE
  8
0
 62
     0
 10
52.0252
 20
35.7283
 30
0.0
 11
66.6253
 21
35.7283
 31
0.0
  0
LINE
  8
0
 62
     0
 10
66.6253
 20
35.7283
 30
0.0
 11
66.6253
 21
21.1281
 31
0.0
  0
LINE
  8
0
 62
     0
 10
66.6253
 20
21.1281
 30
0.0
 11
52.0252
 21
21.1281
 31
0.0
  0
LINE
  8
0
 62
     0
 10
52.0252
 20
21.1281
 30
0.0
 11
52.0252
 21
35.7283
 31
0.0
  0
LINE
  8
0
 62
     0
 10
28.2126
 20
35.7283
 30
0.0
 11
42.8128
 21
35.7283
 31
0.0
  0
LINE
  8
0
 62
     0
 10
42.8128
 20
35.7283
 30
0.0
 11
42.8128
 21
21.1281
 31
0.0
  0
LINE
  8
0
 62
     0
 10
42.8128
 20
21.1281
 30
0.0
 11
28.2126
 21
21.1281
 31
0.0
  0
LINE
  8
0
 62
     0
 10
28.2126
 20
21.1281
 30
0.0
 11
28.2126
 21
35.7283
 31
0.0
  0
LINE
  8
0
 62
     0
 10
4.40009
 20
35.7283
 30
0.0
 11
19.0004
 21
35.7283
 31
0.0
  0
LINE
  8
0
 62
     0
 10
19.0004
 20
35.7283
 30
0.0
 11
19.0004
 21
21.1281
 31
0.0
  0
LINE
  8
0
 62
     0
 10
19.0004
 20
21.1281
 30
0.0
 11
4.40009
 21
21.1281
 31
0.0
  0
LINE
  8
0
 62
     0
 10
4.40009
 20
21.1281
 30
0.0
 11
4.40009
 21
35.7283
 31
0.0
  0
LINE
  8
0
 62
     0
 10
252.05
 20
54.7783
 30
0.0
 11
252.05
 21
50.0779
 31
0.0
  0
LINE
  8
0
 62
     0
 10
252.05
 20
50.0779
 30
0.0
 11
251.126
 21
50.0779
 31
0.0
  0
LINE
  8
0
 62
     0
 10
251.126
 20
50.0779
 30
0.0
 11
251.126
 21
53.3079
 31
0.0
  0
LINE
  8
0
 62
     0
 10
251.126
 20
53.3079
 30
0.0
 11
249.4
 21
53.3079
 31
0.0
  0
LINE
  8
0
 62
     0
 10
249.4
 20
53.3079
 30
0.0
 11
249.4
 21
54.2272
 31
0.0
  0
LINE
  8
0
 62
     0
 10
249.4
 20
54.2272
 30
0.0
 11
245.5
 21
54.2272
 31
0.0
  0
LINE
  8
0
 62
     0
 10
245.5
 20
54.2272
 30
0.0
 11
245.5
 21
53.3079
 31
0.0
  0
LINE
  8
0
 62
     0
 10
245.5
 20
53.3079
 30
0.0
 11
243.775
 21
53.3079
 31
0.0
  0
LINE
  8
0
 62
     0
 10
243.775
 20
53.3079
 30
0.0
 11
243.775
 21
50.0779
 31
0.0
  0
LINE
  8
0
 62
     0
 10
243.775
 20
50.0779
 30
0.0
 11
242.951
 21
50.0779
 31
0.0
  0
LINE
  8
0
 62
     0
 10
242.951
 20
50.0779
 30
0.0
 11
242.951
 21
46.6781
 31
0.0
  0
LINE
  8
0
 62
     0
 10
242.951
 20
46.6781
 30
0.0
 11
243.775
 21
46.6781
 31
0.0
  0
LINE
  8
0
 62
     0
 10
243.775
 20
46.6781
 30
0.0
 11
243.775
 21
40.4082
 31
0.0
  0
LINE
  8
0
 62
     0
 10
243.775
 20
40.4082
 30
0.0
 11
245.5
 21
40.4082
 31
0.0
  0
LINE
  8
0
 62
     0
 10
245.5
 20
40.4082
 30
0.0
 11
245.5
 21
39.4272
 31
0.0
  0
LINE
  8
0
 62
     0
 10
245.5
 20
39.4272
 30
0.0
 11
249.4
 21
39.4272
 31
0.0
  0
LINE
  8
0
 62
     0
 10
249.4
 20
39.4272
 30
0.0
 11
249.4
 21
40.4082
 31
0.0
  0
LINE
  8
0
 62
     0
 10
249.4
 20
40.4082
 30
0.0
 11
251.126
 21
40.4082
 31
0.0
  0
LINE
  8
0
 62
     0
 10
251.126
 20
40.4082
 30
0.0
 11
251.126
 21
44.8772
 31
0.0
  0
LINE
  8
0
 62
     0
 10
251.126
 20
44.8772
 30
0.0
 11
252.05
 21
44.8772
 31
0.0
  0
LINE
  8
0
 62
     0
 10
252.05
 20
44.8772
 30
0.0
 11
252.05
 21
40.1782
 31
0.0
  0
LINE
  8
0
 62
     0
 10
252.05
 20
40.1782
 30
0.0
 11
266.65
 21
40.1782
 31
0.0
  0
LINE
  8
0
 62
     0
 10
266.65
 20
40.1782
 30
0.0
 11
266.65
 21
44.8772
 31
0.0
  0
LINE
  8
0
 62
     0
 10
266.65
 20
44.8772
 30
0.0
 11
267.575
 21
44.8772
 31
0.0
  0
LINE
  8
0
 62
     0
 10
267.575
 20
44.8772
 30
0.0
 11
267.575
 21
40.4082
 31
0.0
  0
LINE
  8
0
 62
     0
 10
267.575
 20
40.4082
 30
0.0
 11
269.3
 21
40.4082
 31
0.0
  0
LINE
  8
0
 62
     0
 10
269.3
 20
40.4082
 30
0.0
 11
269.3
 21
39.4272
 31
0.0
  0
LINE
  8
0
 62
     0
 10
269.3
 20
39.4272
 30
0.0
 11
273.2
 21
39.4272
 31
0.0
  0
LINE
  8
0
 62
     0
 10
273.2
 20
39.4272
 30
0.0
 11
273.2
 21
40.4082
 31
0.0
  0
LINE
  8
0
 62
     0
 10
273.2
 20
40.4082
 30
0.0
 11
274.925
 21
40.4082
 31
0.0
  0
LINE
  8
0
 62
     0
 10
274.925
 20
40.4082
 30
0.0
 11
274.925
 21
46.6781
 31
0.0
  0
LINE
  8
0
 62
     0
 10
274.925
 20
46.6781
 30
0.0
 11
275.751
 21
46.6781
 31
0.0
  0
LINE
  8
0
 62
     0
 10
275.751
 20
46.6781
 30
0.0
 11
275.751
 21
50.0779
 31
0.0
  0
LINE
  8
0
 62
     0
 10
275.751
 20
50.0779
 30
0.0
 11
274.925
 21
50.0779
 31
0.0
  0
LINE
  8
0
 62
     0
 10
274.925
 20
50.0779
 30
0.0
 11
274.925
 21
53.3079
 31
0.0
  0
LINE
  8
0
 62
     0
 10
274.925
 20
53.3079
 30
0.0
 11
273.2
 21
53.3079
 31
0.0
  0
LINE
  8
0
 62
     0
 10
273.2
 20
53.3079
 30
0.0
 11
273.2
 21
54.2272
 31
0.0
  0
LINE
  8
0
 62
     0
 10
273.2
 20
54.2272
 30
0.0
 11
269.3
 21
54.2272
 31
0.0
  0
LINE
  8
0
 62
     0
 10
269.3
 20
54.2272
 30
0.0
 11
269.3
 21
53.3079
 31
0.0
  0
LINE
  8
0
 62
     0
 10
269.3
 20
53.3079
 30
0.0
 11
267.575
 21
53.3079
 31
0.0
  0
LINE
  8
0
 62
     0
 10
267.575
 20
53.3079
 30
0.0
 11
267.575
 21
50.0779
 31
0.0
  0
LINE
  8
0
 62
     0
 10
267.575
 20
50.0779
 30
0.0
 11
266.65
 21
50.0779
 31
0.0
  0
LINE
  8
0
 62
     0
 10
266.65
 20
50.0779
 30
0.0
 11
266.65
 21
54.7783
 31
0.0
  0
LINE
  8
0
 62
     0
 10
266.65
 20
54.7783
 30
0.0
 11
252.05
 21
54.7783
 31
0.0
  0
LINE
  8
0
 62
     0
 10
13.9251
 20
54.7783
 30
0.0
 11
13.9251
 21
50.0779
 31
0.0
  0
LINE
  8
0
 62
     0
 10
13.9251
 20
50.0779
 30
0.0
 11
13.0004
 21
50.0779
 31
0.0
  0
LINE
  8
0
 62
     0
 10
13.0004
 20
50.0779
 30
0.0
 11
13.0004
 21
53.3079
 31
0.0
  0
LINE
  8
0
 62
     0
 10
13.0004
 20
53.3079
 30
0.0
 11
11.2751
 21
53.3079
 31
0.0
  0
LINE
  8
0
 62
     0
 10
11.2751
 20
53.3079
 30
0.0
 11
11.2751
 21
54.2272
 31
0.0
  0
LINE
  8
0
 62
     0
 10
11.2751
 20
54.2272
 30
0.0
 11
7.37528
 21
54.2272
 31
0.0
  0
LINE
  8
0
 62
     0
 10
7.37528
 20
54.2272
 30
0.0
 11
7.37528
 21
53.3079
 31
0.0
  0
LINE
  8
0
 62
     0
 10
7.37528
 20
53.3079
 30
0.0
 11
5.64995
 21
53.3079
 31
0.0
  0
LINE
  8
0
 62
     0
 10
5.64995
 20
53.3079
 30
0.0
 11
5.64995
 21
50.0779
 31
0.0
  0
LINE
  8
0
 62
     0
 10
5.64995
 20
50.0779
 30
0.0
 11
4.82589
 21
50.0779
 31
0.0
  0
LINE
  8
0
 62
     0
 10
4.82589
 20
50.0779
 30
0.0
 11
4.82589
 21
46.6781
 31
0.0
  0
LINE
  8
0
 62
     0
 10
4.82589
 20
46.6781
 30
0.0
 11
5.64995
 21
46.6781
 31
0.0
  0
LINE
  8
0
 62
     0
 10
5.64995
 20
46.6781
 30
0.0
 11
5.64995
 21
40.4082
 31
0.0
  0
LINE
  8
0
 62
     0
 10
5.64995
 20
40.4082
 30
0.0
 11
7.37528
 21
40.4082
 31
0.0
  0
LINE
  8
0
 62
     0
 10
7.37528
 20
40.4082
 30
0.0
 11
7.37528
 21
39.4272
 31
0.0
  0
LINE
  8
0
 62
     0
 10
7.37528
 20
39.4272
 30
0.0
 11
11.2751
 21
39.4272
 31
0.0
  0
LINE
  8
0
 62
     0
 10
11.2751
 20
39.4272
 30
0.0
 11
11.2751
 21
40.4082
 31
0.0
  0
LINE
  8
0
 62
     0
 10
11.2751
 20
40.4082
 30
0.0
 11
13.0004
 21
40.4082
 31
0.0
  0
LINE
  8
0
 62
     0
 10
13.0004
 20
40.4082
 30
0.0
 11
13.0004
 21
44.8772
 31
0.0
  0
LINE
  8
0
 62
     0
 10
13.0004
 20
44.8772
 30
0.0
 11
13.9251
 21
44.8772
 31
0.0
  0
LINE
  8
0
 62
     0
 10
13.9251
 20
44.8772
 30
0.0
 11
13.9251
 21
40.1782
 31
0.0
  0
LINE
  8
0
 62
     0
 10
13.9251
 20
40.1782
 30
0.0
 11
28.5254
 21
40.1782
 31
0.0
  0
LINE
  8
0
 62
     0
 10
28.5254
 20
40.1782
 30
0.0
 11
28.5254
 21
44.8772
 31
0.0
  0
LINE
  8
0
 62
     0
 10
28.5254
 20
44.8772
 30
0.0
 11
29.4501
 21
44.8772
 31
0.0
  0
LINE
  8
0
 62
     0
 10
29.4501
 20
44.8772
 30
0.0
 11
29.4501
 21
40.4082
 31
0.0
  0
LINE
  8
0
 62
     0
 10
29.4501
 20
40.4082
 30
0.0
 11
31.1754
 21
40.4082
 31
0.0
  0
LINE
  8
0
 62
     0
 10
31.1754
 20
40.4082
 30
0.0
 11
31.1754
 21
39.4272
 31
0.0
  0
LINE
  8
0
 62
     0
 10
31.1754
 20
39.4272
 30
0.0
 11
35.0752
 21
39.4272
 31
0.0
  0
LINE
  8
0
 62
     0
 10
35.0752
 20
39.4272
 30
0.0
 11
35.0752
 21
40.4082
 31
0.0
  0
LINE
  8
0
 62
     0
 10
35.0752
 20
40.4082
 30
0.0
 11
36.8004
 21
40.4082
 31
0.0
  0
LINE
  8
0
 62
     0
 10
36.8004
 20
40.4082
 30
0.0
 11
36.8004
 21
46.6781
 31
0.0
  0
LINE
  8
0
 62
     0
 10
36.8004
 20
46.6781
 30
0.0
 11
37.6259
 21
46.6781
 31
0.0
  0
LINE
  8
0
 62
     0
 10
37.6259
 20
46.6781
 30
0.0
 11
37.6259
 21
50.0779
 31
0.0
  0
LINE
  8
0
 62
     0
 10
37.6259
 20
50.0779
 30
0.0
 11
36.8004
 21
50.0779
 31
0.0
  0
LINE
  8
0
 62
     0
 10
36.8004
 20
50.0779
 30
0.0
 11
36.8004
 21
53.3079
 31
0.0
  0
LINE
  8
0
 62
     0
 10
36.8004
 20
53.3079
 30
0.0
 11
35.0752
 21
53.3079
 31
0.0
  0
LINE
  8
0
 62
     0
 10
35.0752
 20
53.3079
 30
0.0
 11
35.0752
 21
54.2272
 31
0.0
  0
LINE
  8
0
 62
     0
 10
35.0752
 20
54.2272
 30
0.0
 11
31.1754
 21
54.2272
 31
0.0
  0
LINE
  8
0
 62
     0
 10
31.1754
 20
54.2272
 30
0.0
 11
31.1754
 21
53.3079
 31
0.0
  0
LINE
  8
0
 62
     0
 10
31.1754
 20
53.3079
 30
0.0
 11
29.4501
 21
53.3079
 31
0.0
  0
LINE
  8
0
 62
     0
 10
29.4501
 20
53.3079
 30
0.0
 11
29.4501
 21
50.0779
 31
0.0
  0
LINE
  8
0
 62
     0
 10
29.4501
 20
50.0779
 30
0.0
 11
28.5254
 21
50.0779
 31
0.0
  0
LINE
  8
0
 62
     0
 10
28.5254
 20
50.0779
 30
0.0
 11
28.5254
 21
54.7783
 31
0.0
  0
LINE
  8
0
 62
     0
 10
28.5254
 20
54.7783
 30
0.0
 11
13.9251
 21
54.7783
 31
0.0
  0
LINE
  8
0
 62
     0
 10
216.331
 20
54.7783
 30
0.0
 11
230.932
 21
54.7783
 31
0.0
  0
LINE
  8
0
 62
     0
 10
230.932
 20
54.7783
 30
0.0
 11
230.932
 21
40.1782
 31
0.0
  0
LINE
  8
0
 62
     0
 10
230.932
 20
40.1782
 30
0.0
 11
216.331
 21
40.1782
 31
0.0
  0
LINE
  8
0
 62
     0
 10
216.331
 20
40.1782
 30
0.0
 11
216.331
 21
54.7783
 31
0.0
  0
LINE
  8
0
 62
     0
 10
197.281
 20
54.7783
 30
0.0
 11
211.882
 21
54.7783
 31
0.0
  0
LINE
  8
0
 62
     0
 10
211.882
 20
54.7783
 30
0.0
 11
211.882
 21
40.1782
 31
0.0
  0
LINE
  8
0
 62
     0
 10
211.882
 20
40.1782
 30
0.0
 11
197.281
 21
40.1782
 31
0.0
  0
LINE
  8
0
 62
     0
 10
197.281
 20
40.1782
 30
0.0
 11
197.281
 21
54.7783
 31
0.0
  0
LINE
  8
0
 62
     0
 10
178.231
 20
54.7783
 30
0.0
 11
192.832
 21
54.7783
 31
0.0
  0
LINE
  8
0
 62
     0
 10
192.832
 20
54.7783
 30
0.0
 11
192.832
 21
40.1782
 31
0.0
  0
LINE
  8
0
 62
     0
 10
192.832
 20
40.1782
 30
0.0
 11
178.231
 21
40.1782
 31
0.0
  0
LINE
  8
0
 62
     0
 10
178.231
 20
40.1782
 30
0.0
 11
178.231
 21
54.7783
 31
0.0
  0
LINE
  8
0
 62
     0
 10
159.181
 20
54.7783
 30
0.0
 11
173.782
 21
54.7783
 31
0.0
  0
LINE
  8
0
 62
     0
 10
173.782
 20
54.7783
 30
0.0
 11
173.782
 21
40.1782
 31
0.0
  0
LINE
  8
0
 62
     0
 10
173.782
 20
40.1782
 30
0.0
 11
159.181
 21
40.1782
 31
0.0
  0
LINE
  8
0
 62
     0
 10
159.181
 20
40.1782
 30
0.0
 11
159.181
 21
54.7783
 31
0.0
  0
LINE
  8
0
 62
     0
 10
140.131
 20
54.7783
 30
0.0
 11
154.732
 21
54.7783
 31
0.0
  0
LINE
  8
0
 62
     0
 10
154.732
 20
54.7783
 30
0.0
 11
154.732
 21
40.1782
 31
0.0
  0
LINE
  8
0
 62
     0
 10
154.732
 20
40.1782
 30
0.0
 11
140.131
 21
40.1782
 31
0.0
  0
LINE
  8
0
 62
     0
 10
140.131
 20
40.1782
 30
0.0
 11
140.131
 21
54.7783
 31
0.0
  0
LINE
  8
0
 62
     0
 10
121.081
 20
54.7783
 30
0.0
 11
135.682
 21
54.7783
 31
0.0
  0
LINE
  8
0
 62
     0
 10
135.682
 20
54.7783
 30
0.0
 11
135.682
 21
40.1782
 31
0.0
  0
LINE
  8
0
 62
     0
 10
135.682
 20
40.1782
 30
0.0
 11
121.081
 21
40.1782
 31
0.0
  0
LINE
  8
0
 62
     0
 10
121.081
 20
40.1782
 30
0.0
 11
121.081
 21
54.7783
 31
0.0
  0
LINE
  8
0
 62
     0
 10
102.031
 20
54.7783
 30
0.0
 11
116.632
 21
54.7783
 31
0.0
  0
LINE
  8
0
 62
     0
 10
116.632
 20
54.7783
 30
0.0
 11
116.632
 21
40.1782
 31
0.0
  0
LINE
  8
0
 62
     0
 10
116.632
 20
40.1782
 30
0.0
 11
102.031
 21
40.1782
 31
0.0
  0
LINE
  8
0
 62
     0
 10
102.031
 20
40.1782
 30
0.0
 11
102.031
 21
54.7783
 31
0.0
  0
LINE
  8
0
 62
     0
 10
82.9815
 20
54.7783
 30
0.0
 11
97.5815
 21
54.7783
 31
0.0
  0
LINE
  8
0
 62
     0
 10
97.5815
 20
54.7783
 30
0.0
 11
97.5815
 21
40.1782
 31
0.0
  0
LINE
  8
0
 62
     0
 10
97.5815
 20
40.1782
 30
0.0
 11
82.9815
 21
40.1782
 31
0.0
  0
LINE
  8
0
 62
     0
 10
82.9815
 20
40.1782
 30
0.0
 11
82.9815
 21
54.7783
 31
0.0
  0
LINE
  8
0
 62
     0
 10
63.9315
 20
54.7783
 30
0.0
 11
78.5315
 21
54.7783
 31
0.0
  0
LINE
  8
0
 62
     0
 10
78.5315
 20
54.7783
 30
0.0
 11
78.5315
 21
40.1782
 31
0.0
  0
LINE
  8
0
 62
     0
 10
78.5315
 20
40.1782
 30
0.0
 11
63.9315
 21
40.1782
 31
0.0
  0
LINE
  8
0
 62
     0
 10
63.9315
 20
40.1782
 30
0.0
 11
63.9315
 21
54.7783
 31
0.0
  0
LINE
  8
0
 62
     0
 10
44.8814
 20
54.7783
 30
0.0
 11
59.4815
 21
54.7783
 31
0.0
  0
LINE
  8
0
 62
     0
 10
59.4815
 20
54.7783
 30
0.0
 11
59.4815
 21
40.1782
 31
0.0
  0
LINE
  8
0
 62
     0
 10
59.4815
 20
40.1782
 30
0.0
 11
44.8814
 21
40.1782
 31
0.0
  0
LINE
  8
0
 62
     0
 10
44.8814
 20
40.1782
 30
0.0
 11
44.8814
 21
54.7783
 31
0.0
  0
LINE
  8
0
 62
     0
 10
256.813
 20
73.8283
 30
0.0
 11
256.813
 21
69.1279
 31
0.0
  0
LINE
  8
0
 62
     0
 10
256.813
 20
69.1279
 30
0.0
 11
255.888
 21
69.1279
 31
0.0
  0
LINE
  8
0
 62
     0
 10
255.888
 20
69.1279
 30
0.0
 11
255.888
 21
72.3579
 31
0.0
  0
LINE
  8
0
 62
     0
 10
255.888
 20
72.3579
 30
0.0
 11
254.161
 21
72.3579
 31
0.0
  0
LINE
  8
0
 62
     0
 10
254.161
 20
72.3579
 30
0.0
 11
254.161
 21
73.2772
 31
0.0
  0
LINE
  8
0
 62
     0
 10
254.161
 20
73.2772
 30
0.0
 11
250.263
 21
73.2772
 31
0.0
  0
LINE
  8
0
 62
     0
 10
250.263
 20
73.2772
 30
0.0
 11
250.263
 21
72.3579
 31
0.0
  0
LINE
  8
0
 62
     0
 10
250.263
 20
72.3579
 30
0.0
 11
248.538
 21
72.3579
 31
0.0
  0
LINE
  8
0
 62
     0
 10
248.538
 20
72.3579
 30
0.0
 11
248.538
 21
69.1279
 31
0.0
  0
LINE
  8
0
 62
     0
 10
248.538
 20
69.1279
 30
0.0
 11
247.712
 21
69.1279
 31
0.0
  0
LINE
  8
0
 62
     0
 10
247.712
 20
69.1279
 30
0.0
 11
247.712
 21
65.7281
 31
0.0
  0
LINE
  8
0
 62
     0
 10
247.712
 20
65.7281
 30
0.0
 11
248.538
 21
65.7281
 31
0.0
  0
LINE
  8
0
 62
     0
 10
248.538
 20
65.7281
 30
0.0
 11
248.538
 21
59.4582
 31
0.0
  0
LINE
  8
0
 62
     0
 10
248.538
 20
59.4582
 30
0.0
 11
250.263
 21
59.4582
 31
0.0
  0
LINE
  8
0
 62
     0
 10
250.263
 20
59.4582
 30
0.0
 11
250.263
 21
58.4771
 31
0.0
  0
LINE
  8
0
 62
     0
 10
250.263
 20
58.4771
 30
0.0
 11
254.161
 21
58.4771
 31
0.0
  0
LINE
  8
0
 62
     0
 10
254.161
 20
58.4771
 30
0.0
 11
254.161
 21
59.4582
 31
0.0
  0
LINE
  8
0
 62
     0
 10
254.161
 20
59.4582
 30
0.0
 11
255.888
 21
59.4582
 31
0.0
  0
LINE
  8
0
 62
     0
 10
255.888
 20
59.4582
 30
0.0
 11
255.888
 21
63.9272
 31
0.0
  0
LINE
  8
0
 62
     0
 10
255.888
 20
63.9272
 30
0.0
 11
256.813
 21
63.9272
 31
0.0
  0
LINE
  8
0
 62
     0
 10
256.813
 20
63.9272
 30
0.0
 11
256.813
 21
59.2282
 31
0.0
  0
LINE
  8
0
 62
     0
 10
256.813
 20
59.2282
 30
0.0
 11
271.413
 21
59.2282
 31
0.0
  0
LINE
  8
0
 62
     0
 10
271.413
 20
59.2282
 30
0.0
 11
271.413
 21
63.9272
 31
0.0
  0
LINE
  8
0
 62
     0
 10
271.413
 20
63.9272
 30
0.0
 11
272.337
 21
63.9272
 31
0.0
  0
LINE
  8
0
 62
     0
 10
272.337
 20
63.9272
 30
0.0
 11
272.337
 21
59.4582
 31
0.0
  0
LINE
  8
0
 62
     0
 10
272.337
 20
59.4582
 30
0.0
 11
274.063
 21
59.4582
 31
0.0
  0
LINE
  8
0
 62
     0
 10
274.063
 20
59.4582
 30
0.0
 11
274.063
 21
58.4771
 31
0.0
  0
LINE
  8
0
 62
     0
 10
274.063
 20
58.4771
 30
0.0
 11
277.963
 21
58.4771
 31
0.0
  0
LINE
  8
0
 62
     0
 10
277.963
 20
58.4771
 30
0.0
 11
277.963
 21
59.4582
 31
0.0
  0
LINE
  8
0
 62
     0
 10
277.963
 20
59.4582
 30
0.0
 11
279.688
 21
59.4582
 31
0.0
  0
LINE
  8
0
 62
     0
 10
279.688
 20
59.4582
 30
0.0
 11
279.688
 21
65.7281
 31
0.0
  0
LINE
  8
0
 62
     0
 10
279.688
 20
65.7281
 30
0.0
 11
280.512
 21
65.7281
 31
0.0
  0
LINE
  8
0
 62
     0
 10
280.512
 20
65.7281
 30
0.0
 11
280.512
 21
69.1279
 31
0.0
  0
LINE
  8
0
 62
     0
 10
280.512
 20
69.1279
 30
0.0
 11
279.688
 21
69.1279
 31
0.0
  0
LINE
  8
0
 62
     0
 10
279.688
 20
69.1279
 30
0.0
 11
279.688
 21
72.3579
 31
0.0
  0
LINE
  8
0
 62
     0
 10
279.688
 20
72.3579
 30
0.0
 11
277.963
 21
72.3579
 31
0.0
  0
LINE
  8
0
 62
     0
 10
277.963
 20
72.3579
 30
0.0
 11
277.963
 21
73.2772
 31
0.0
  0
LINE
  8
0
 62
     0
 10
277.963
 20
73.2772
 30
0.0
 11
274.063
 21
73.2772
 31
0.0
  0
LINE
  8
0
 62
     0
 10
274.063
 20
73.2772
 30
0.0
 11
274.063
 21
72.3579
 31
0.0
  0
LINE
  8
0
 62
     0
 10
274.063
 20
72.3579
 30
0.0
 11
272.337
 21
72.3579
 31
0.0
  0
LINE
  8
0
 62
     0
 10
272.337
 20
72.3579
 30
0.0
 11
272.337
 21
69.1279
 31
0.0
  0
LINE
  8
0
 62
     0
 10
272.337
 20
69.1279
 30
0.0
 11
271.413
 21
69.1279
 31
0.0
  0
LINE
  8
0
 62
     0
 10
271.413
 20
69.1279
 30
0.0
 11
271.413
 21
73.8283
 31
0.0
  0
LINE
  8
0
 62
     0
 10
271.413
 20
73.8283
 30
0.0
 11
256.813
 21
73.8283
 31
0.0
  0
LINE
  8
0
 62
     0
 10
225.856
 20
73.8283
 30
0.0
 11
240.457
 21
73.8283
 31
0.0
  0
LINE
  8
0
 62
     0
 10
240.457
 20
73.8283
 30
0.0
 11
240.457
 21
59.2282
 31
0.0
  0
LINE
  8
0
 62
     0
 10
240.457
 20
59.2282
 30
0.0
 11
225.856
 21
59.2282
 31
0.0
  0
LINE
  8
0
 62
     0
 10
225.856
 20
59.2282
 30
0.0
 11
225.856
 21
73.8283
 31
0.0
  0
LINE
  8
0
 62
     0
 10
206.806
 20
73.8283
 30
0.0
 11
221.407
 21
73.8283
 31
0.0
  0
LINE
  8
0
 62
     0
 10
221.407
 20
73.8283
 30
0.0
 11
221.407
 21
59.2282
 31
0.0
  0
LINE
  8
0
 62
     0
 10
221.407
 20
59.2282
 30
0.0
 11
206.806
 21
59.2282
 31
0.0
  0
LINE
  8
0
 62
     0
 10
206.806
 20
59.2282
 30
0.0
 11
206.806
 21
73.8283
 31
0.0
  0
LINE
  8
0
 62
     0
 10
187.756
 20
73.8283
 30
0.0
 11
202.357
 21
73.8283
 31
0.0
  0
LINE
  8
0
 62
     0
 10
202.357
 20
73.8283
 30
0.0
 11
202.357
 21
59.2282
 31
0.0
  0
LINE
  8
0
 62
     0
 10
202.357
 20
59.2282
 30
0.0
 11
187.756
 21
59.2282
 31
0.0
  0
LINE
  8
0
 62
     0
 10
187.756
 20
59.2282
 30
0.0
 11
187.756
 21
73.8283
 31
0.0
  0
LINE
  8
0
 62
     0
 10
168.706
 20
73.8283
 30
0.0
 11
183.307
 21
73.8283
 31
0.0
  0
LINE
  8
0
 62
     0
 10
183.307
 20
73.8283
 30
0.0
 11
183.307
 21
59.2282
 31
0.0
  0
LINE
  8
0
 62
     0
 10
183.307
 20
59.2282
 30
0.0
 11
168.706
 21
59.2282
 31
0.0
  0
LINE
  8
0
 62
     0
 10
168.706
 20
59.2282
 30
0.0
 11
168.706
 21
73.8283
 31
0.0
  0
LINE
  8
0
 62
     0
 10
149.656
 20
73.8283
 30
0.0
 11
164.257
 21
73.8283
 31
0.0
  0
LINE
  8
0
 62
     0
 10
164.257
 20
73.8283
 30
0.0
 11
164.257
 21
59.2282
 31
0.0
  0
LINE
  8
0
 62
     0
 10
164.257
 20
59.2282
 30
0.0
 11
149.656
 21
59.2282
 31
0.0
  0
LINE
  8
0
 62
     0
 10
149.656
 20
59.2282
 30
0.0
 11
149.656
 21
73.8283
 31
0.0
  0
LINE
  8
0
 62
     0
 10
130.606
 20
73.8283
 30
0.0
 11
145.207
 21
73.8283
 31
0.0
  0
LINE
  8
0
 62
     0
 10
145.207
 20
73.8283
 30
0.0
 11
145.207
 21
59.2282
 31
0.0
  0
LINE
  8
0
 62
     0
 10
145.207
 20
59.2282
 30
0.0
 11
130.606
 21
59.2282
 31
0.0
  0
LINE
  8
0
 62
     0
 10
130.606
 20
59.2282
 30
0.0
 11
130.606
 21
73.8283
 31
0.0
  0
LINE
  8
0
 62
     0
 10
111.556
 20
73.8283
 30
0.0
 11
126.157
 21
73.8283
 31
0.0
  0
LINE
  8
0
 62
     0
 10
126.157
 20
73.8283
 30
0.0
 11
126.157
 21
59.2282
 31
0.0
  0
LINE
  8
0
 62
     0
 10
126.157
 20
59.2282
 30
0.0
 11
111.556
 21
59.2282
 31
0.0
  0
LINE
  8
0
 62
     0
 10
111.556
 20
59.2282
 30
0.0
 11
111.556
 21
73.8283
 31
0.0
  0
LINE
  8
0
 62
     0
 10
92.5064
 20
73.8283
 30
0.0
 11
107.107
 21
73.8283
 31
0.0
  0
LINE
  8
0
 62
     0
 10
107.107
 20
73.8283
 30
0.0
 11
107.107
 21
59.2282
 31
0.0
  0
LINE
  8
0
 62
     0
 10
107.107
 20
59.2282
 30
0.0
 11
92.5064
 21
59.2282
 31
0.0
  0
LINE
  8
0
 62
     0
 10
92.5064
 20
59.2282
 30
0.0
 11
92.5064
 21
73.8283
 31
0.0
  0
LINE
  8
0
 62
     0
 10
73.4565
 20
73.8283
 30
0.0
 11
88.0565
 21
73.8283
 31
0.0
  0
LINE
  8
0
 62
     0
 10
88.0565
 20
73.8283
 30
0.0
 11
88.0565
 21
59.2282
 31
0.0
  0
LINE
  8
0
 62
     0
 10
88.0565
 20
59.2282
 30
0.0
 11
73.4565
 21
59.2282
 31
0.0
  0
LINE
  8
0
 62
     0
 10
73.4565
 20
59.2282
 30
0.0
 11
73.4565
 21
73.8283
 31
0.0
  0
LINE
  8
0
 62
     0
 10
54.4064
 20
73.8283
 30
0.0
 11
69.0065
 21
73.8283
 31
0.0
  0
LINE
  8
0
 62
     0
 10
69.0065
 20
73.8283
 30
0.0
 11
69.0065
 21
59.2282
 31
0.0
  0
LINE
  8
0
 62
     0
 10
69.0065
 20
59.2282
 30
0.0
 11
54.4064
 21
59.2282
 31
0.0
  0
LINE
  8
0
 62
     0
 10
54.4064
 20
59.2282
 30
0.0
 11
54.4064
 21
73.8283
 31
0.0
  0
LINE
  8
0
 62
     0
 10
35.3564
 20
73.8283
 30
0.0
 11
49.9565
 21
73.8283
 31
0.0
  0
LINE
  8
0
 62
     0
 10
49.9565
 20
73.8283
 30
0.0
 11
49.9565
 21
59.2282
 31
0.0
  0
LINE
  8
0
 62
     0
 10
49.9565
 20
59.2282
 30
0.0
 11
35.3564
 21
59.2282
 31
0.0
  0
LINE
  8
0
 62
     0
 10
35.3564
 20
59.2282
 30
0.0
 11
35.3564
 21
73.8283
 31
0.0
  0
LINE
  8
0
 62
     0
 10
9.16259
 20
73.8283
 30
0.0
 11
23.7629
 21
73.8283
 31
0.0
  0
LINE
  8
0
 62
     0
 10
23.7629
 20
73.8283
 30
0.0
 11
23.7629
 21
59.2282
 31
0.0
  0
LINE
  8
0
 62
     0
 10
23.7629
 20
59.2282
 30
0.0
 11
9.16259
 21
59.2282
 31
0.0
  0
LINE
  8
0
 62
     0
 10
9.16259
 20
59.2282
 30
0.0
 11
9.16259
 21
73.8283
 31
0.0
  0
LINE
  8
0
 62
     0
 10
263.956
 20
92.8783
 30
0.0
 11
278.557
 21
92.8783
 31
0.0
  0
LINE
  8
0
 62
     0
 10
278.557
 20
92.8783
 30
0.0
 11
278.557
 21
78.2782
 31
0.0
  0
LINE
  8
0
 62
     0
 10
278.557
 20
78.2782
 30
0.0
 11
263.956
 21
78.2782
 31
0.0
  0
LINE
  8
0
 62
     0
 10
263.956
 20
78.2782
 30
0.0
 11
263.956
 21
92.8783
 31
0.0
  0
LINE
  8
0
 62
     0
 10
240.144
 20
92.8783
 30
0.0
 11
254.744
 21
92.8783
 31
0.0
  0
LINE
  8
0
 62
     0
 10
254.744
 20
92.8783
 30
0.0
 11
254.744
 21
78.2782
 31
0.0
  0
LINE
  8
0
 62
     0
 10
254.744
 20
78.2782
 30
0.0
 11
240.144
 21
78.2782
 31
0.0
  0
LINE
  8
0
 62
     0
 10
240.144
 20
78.2782
 30
0.0
 11
240.144
 21
92.8783
 31
0.0
  0
LINE
  8
0
 62
     0
 10
221.094
 20
92.8783
 30
0.0
 11
235.694
 21
92.8783
 31
0.0
  0
LINE
  8
0
 62
     0
 10
235.694
 20
92.8783
 30
0.0
 11
235.694
 21
78.2782
 31
0.0
  0
LINE
  8
0
 62
     0
 10
235.694
 20
78.2782
 30
0.0
 11
221.094
 21
78.2782
 31
0.0
  0
LINE
  8
0
 62
     0
 10
221.094
 20
78.2782
 30
0.0
 11
221.094
 21
92.8783
 31
0.0
  0
LINE
  8
0
 62
     0
 10
202.044
 20
92.8783
 30
0.0
 11
216.644
 21
92.8783
 31
0.0
  0
LINE
  8
0
 62
     0
 10
216.644
 20
92.8783
 30
0.0
 11
216.644
 21
78.2782
 31
0.0
  0
LINE
  8
0
 62
     0
 10
216.644
 20
78.2782
 30
0.0
 11
202.044
 21
78.2782
 31
0.0
  0
LINE
  8
0
 62
     0
 10
202.044
 20
78.2782
 30
0.0
 11
202.044
 21
92.8783
 31
0.0
  0
LINE
  8
0
 62
     0
 10
182.994
 20
92.8783
 30
0.0
 11
197.594
 21
92.8783
 31
0.0
  0
LINE
  8
0
 62
     0
 10
197.594
 20
92.8783
 30
0.0
 11
197.594
 21
78.2782
 31
0.0
  0
LINE
  8
0
 62
     0
 10
197.594
 20
78.2782
 30
0.0
 11
182.994
 21
78.2782
 31
0.0
  0
LINE
  8
0
 62
     0
 10
182.994
 20
78.2782
 30
0.0
 11
182.994
 21
92.8783
 31
0.0
  0
LINE
  8
0
 62
     0
 10
163.944
 20
92.8783
 30
0.0
 11
178.544
 21
92.8783
 31
0.0
  0
LINE
  8
0
 62
     0
 10
178.544
 20
92.8783
 30
0.0
 11
178.544
 21
78.2782
 31
0.0
  0
LINE
  8
0
 62
     0
 10
178.544
 20
78.2782
 30
0.0
 11
163.944
 21
78.2782
 31
0.0
  0
LINE
  8
0
 62
     0
 10
163.944
 20
78.2782
 30
0.0
 11
163.944
 21
92.8783
 31
0.0
  0
LINE
  8
0
 62
     0
 10
144.894
 20
92.8783
 30
0.0
 11
159.494
 21
92.8783
 31
0.0
  0
LINE
  8
0
 62
     0
 10
159.494
 20
92.8783
 30
0.0
 11
159.494
 21
78.2782
 31
0.0
  0
LINE
  8
0
 62
     0
 10
159.494
 20
78.2782
 30
0.0
 11
144.894
 21
78.2782
 31
0.0
  0
LINE
  8
0
 62
     0
 10
144.894
 20
78.2782
 30
0.0
 11
144.894
 21
92.8783
 31
0.0
  0
LINE
  8
0
 62
     0
 10
125.844
 20
92.8783
 30
0.0
 11
140.444
 21
92.8783
 31
0.0
  0
LINE
  8
0
 62
     0
 10
140.444
 20
92.8783
 30
0.0
 11
140.444
 21
78.2782
 31
0.0
  0
LINE
  8
0
 62
     0
 10
140.444
 20
78.2782
 30
0.0
 11
125.844
 21
78.2782
 31
0.0
  0
LINE
  8
0
 62
     0
 10
125.844
 20
78.2782
 30
0.0
 11
125.844
 21
92.8783
 31
0.0
  0
LINE
  8
0
 62
     0
 10
106.794
 20
92.8783
 30
0.0
 11
121.394
 21
92.8783
 31
0.0
  0
LINE
  8
0
 62
     0
 10
121.394
 20
92.8783
 30
0.0
 11
121.394
 21
78.2782
 31
0.0
  0
LINE
  8
0
 62
     0
 10
121.394
 20
78.2782
 30
0.0
 11
106.794
 21
78.2782
 31
0.0
  0
LINE
  8
0
 62
     0
 10
106.794
 20
78.2782
 30
0.0
 11
106.794
 21
92.8783
 31
0.0
  0
LINE
  8
0
 62
     0
 10
87.744
 20
92.8783
 30
0.0
 11
102.344
 21
92.8783
 31
0.0
  0
LINE
  8
0
 62
     0
 10
102.344
 20
92.8783
 30
0.0
 11
102.344
 21
78.2782
 31
0.0
  0
LINE
  8
0
 62
     0
 10
102.344
 20
78.2782
 30
0.0
 11
87.744
 21
78.2782
 31
0.0
  0
LINE
  8
0
 62
     0
 10
87.744
 20
78.2782
 30
0.0
 11
87.744
 21
92.8783
 31
0.0
  0
LINE
  8
0
 62
     0
 10
68.694
 20
92.8783
 30
0.0
 11
83.294
 21
92.8783
 31
0.0
  0
LINE
  8
0
 62
     0
 10
83.294
 20
92.8783
 30
0.0
 11
83.294
 21
78.2782
 31
0.0
  0
LINE
  8
0
 62
     0
 10
83.294
 20
78.2782
 30
0.0
 11
68.694
 21
78.2782
 31
0.0
  0
LINE
  8
0
 62
     0
 10
68.694
 20
78.2782
 30
0.0
 11
68.694
 21
92.8783
 31
0.0
  0
LINE
  8
0
 62
     0
 10
49.6439
 20
92.8783
 30
0.0
 11
64.244
 21
92.8783
 31
0.0
  0
LINE
  8
0
 62
     0
 10
64.244
 20
92.8783
 30
0.0
 11
64.244
 21
78.2782
 31
0.0
  0
LINE
  8
0
 62
     0
 10
64.244
 20
78.2782
 30
0.0
 11
49.6439
 21
78.2782
 31
0.0
  0
LINE
  8
0
 62
     0
 10
49.6439
 20
78.2782
 30
0.0
 11
49.6439
 21
92.8783
 31
0.0
  0
LINE
  8
0
 62
     0
 10
30.5938
 20
92.8783
 30
0.0
 11
45.194
 21
92.8783
 31
0.0
  0
LINE
  8
0
 62
     0
 10
45.194
 20
92.8783
 30
0.0
 11
45.194
 21
78.2782
 31
0.0
  0
LINE
  8
0
 62
     0
 10
45.194
 20
78.2782
 30
0.0
 11
30.5938
 21
78.2782
 31
0.0
  0
LINE
  8
0
 62
     0
 10
30.5938
 20
78.2782
 30
0.0
 11
30.5938
 21
92.8783
 31
0.0
  0
LINE
  8
0
 62
     0
 10
6.78134
 20
92.8783
 30
0.0
 11
21.3817
 21
92.8783
 31
0.0
  0
LINE
  8
0
 62
     0
 10
21.3817
 20
92.8783
 30
0.0
 11
21.3817
 21
78.2782
 31
0.0
  0
LINE
  8
0
 62
     0
 10
21.3817
 20
78.2782
 30
0.0
 11
6.78134
 21
78.2782
 31
0.0
  0
LINE
  8
0
 62
     0
 10
6.78134
 20
78.2782
 30
0.0
 11
6.78134
 21
92.8783
 31
0.0
  0
LINE
  8
0
 62
     0
 10
259.194
 20
111.928
 30
0.0
 11
259.194
 21
107.228
 31
0.0
  0
LINE
  8
0
 62
     0
 10
259.194
 20
107.228
 30
0.0
 11
258.269
 21
107.228
 31
0.0
  0
LINE
  8
0
 62
     0
 10
258.269
 20
107.228
 30
0.0
 11
258.269
 21
110.458
 31
0.0
  0
LINE
  8
0
 62
     0
 10
258.269
 20
110.458
 30
0.0
 11
256.544
 21
110.458
 31
0.0
  0
LINE
  8
0
 62
     0
 10
256.544
 20
110.458
 30
0.0
 11
256.544
 21
111.377
 31
0.0
  0
LINE
  8
0
 62
     0
 10
256.544
 20
111.377
 30
0.0
 11
252.644
 21
111.377
 31
0.0
  0
LINE
  8
0
 62
     0
 10
252.644
 20
111.377
 30
0.0
 11
252.644
 21
110.458
 31
0.0
  0
LINE
  8
0
 62
     0
 10
252.644
 20
110.458
 30
0.0
 11
250.92
 21
110.458
 31
0.0
  0
LINE
  8
0
 62
     0
 10
250.92
 20
110.458
 30
0.0
 11
250.92
 21
107.228
 31
0.0
  0
LINE
  8
0
 62
     0
 10
250.92
 20
107.228
 30
0.0
 11
250.095
 21
107.228
 31
0.0
  0
LINE
  8
0
 62
     0
 10
250.095
 20
107.228
 30
0.0
 11
250.095
 21
103.828
 31
0.0
  0
LINE
  8
0
 62
     0
 10
250.095
 20
103.828
 30
0.0
 11
250.92
 21
103.828
 31
0.0
  0
LINE
  8
0
 62
     0
 10
250.92
 20
103.828
 30
0.0
 11
250.92
 21
97.5582
 31
0.0
  0
LINE
  8
0
 62
     0
 10
250.92
 20
97.5582
 30
0.0
 11
252.644
 21
97.5582
 31
0.0
  0
LINE
  8
0
 62
     0
 10
252.644
 20
97.5582
 30
0.0
 11
252.644
 21
96.5771
 31
0.0
  0
LINE
  8
0
 62
     0
 10
252.644
 20
96.5771
 30
0.0
 11
256.544
 21
96.5771
 31
0.0
  0
LINE
  8
0
 62
     0
 10
256.544
 20
96.5771
 30
0.0
 11
256.544
 21
97.5582
 31
0.0
  0
LINE
  8
0
 62
     0
 10
256.544
 20
97.5582
 30
0.0
 11
258.269
 21
97.5582
 31
0.0
  0
LINE
  8
0
 62
     0
 10
258.269
 20
97.5582
 30
0.0
 11
258.269
 21
102.027
 31
0.0
  0
LINE
  8
0
 62
     0
 10
258.269
 20
102.027
 30
0.0
 11
259.194
 21
102.027
 31
0.0
  0
LINE
  8
0
 62
     0
 10
259.194
 20
102.027
 30
0.0
 11
259.194
 21
97.3282
 31
0.0
  0
LINE
  8
0
 62
     0
 10
259.194
 20
97.3282
 30
0.0
 11
273.794
 21
97.3282
 31
0.0
  0
LINE
  8
0
 62
     0
 10
273.794
 20
97.3282
 30
0.0
 11
273.794
 21
102.027
 31
0.0
  0
LINE
  8
0
 62
     0
 10
273.794
 20
102.027
 30
0.0
 11
274.72
 21
102.027
 31
0.0
  0
LINE
  8
0
 62
     0
 10
274.72
 20
102.027
 30
0.0
 11
274.72
 21
97.5582
 31
0.0
  0
LINE
  8
0
 62
     0
 10
274.72
 20
97.5582
 30
0.0
 11
276.444
 21
97.5582
 31
0.0
  0
LINE
  8
0
 62
     0
 10
276.444
 20
97.5582
 30
0.0
 11
276.444
 21
96.5771
 31
0.0
  0
LINE
  8
0
 62
     0
 10
276.444
 20
96.5771
 30
0.0
 11
280.344
 21
96.5771
 31
0.0
  0
LINE
  8
0
 62
     0
 10
280.344
 20
96.5771
 30
0.0
 11
280.344
 21
97.5582
 31
0.0
  0
LINE
  8
0
 62
     0
 10
280.344
 20
97.5582
 30
0.0
 11
282.069
 21
97.5582
 31
0.0
  0
LINE
  8
0
 62
     0
 10
282.069
 20
97.5582
 30
0.0
 11
282.069
 21
103.828
 31
0.0
  0
LINE
  8
0
 62
     0
 10
282.069
 20
103.828
 30
0.0
 11
282.895
 21
103.828
 31
0.0
  0
LINE
  8
0
 62
     0
 10
282.895
 20
103.828
 30
0.0
 11
282.895
 21
107.228
 31
0.0
  0
LINE
  8
0
 62
     0
 10
282.895
 20
107.228
 30
0.0
 11
282.069
 21
107.228
 31
0.0
  0
LINE
  8
0
 62
     0
 10
282.069
 20
107.228
 30
0.0
 11
282.069
 21
110.458
 31
0.0
  0
LINE
  8
0
 62
     0
 10
282.069
 20
110.458
 30
0.0
 11
280.344
 21
110.458
 31
0.0
  0
LINE
  8
0
 62
     0
 10
280.344
 20
110.458
 30
0.0
 11
280.344
 21
111.377
 31
0.0
  0
LINE
  8
0
 62
     0
 10
280.344
 20
111.377
 30
0.0
 11
276.444
 21
111.377
 31
0.0
  0
LINE
  8
0
 62
     0
 10
276.444
 20
111.377
 30
0.0
 11
276.444
 21
110.458
 31
0.0
  0
LINE
  8
0
 62
     0
 10
276.444
 20
110.458
 30
0.0
 11
274.72
 21
110.458
 31
0.0
  0
LINE
  8
0
 62
     0
 10
274.72
 20
110.458
 30
0.0
 11
274.72
 21
107.228
 31
0.0
  0
LINE
  8
0
 62
     0
 10
274.72
 20
107.228
 30
0.0
 11
273.794
 21
107.228
 31
0.0
  0
LINE
  8
0
 62
     0
 10
273.794
 20
107.228
 30
0.0
 11
273.794
 21
111.928
 31
0.0
  0
LINE
  8
0
 62
     0
 10
273.794
 20
111.928
 30
0.0
 11
259.194
 21
111.928
 31
0.0
  0
LINE
  8
0
 62
     0
 10
230.619
 20
111.928
 30
0.0
 11
245.219
 21
111.928
 31
0.0
  0
LINE
  8
0
 62
     0
 10
245.219
 20
111.928
 30
0.0
 11
245.219
 21
97.3282
 31
0.0
  0
LINE
  8
0
 62
     0
 10
245.219
 20
97.3282
 30
0.0
 11
230.619
 21
97.3282
 31
0.0
  0
LINE
  8
0
 62
     0
 10
230.619
 20
97.3282
 30
0.0
 11
230.619
 21
111.928
 31
0.0
  0
LINE
  8
0
 62
     0
 10
211.569
 20
111.928
 30
0.0
 11
226.169
 21
111.928
 31
0.0
  0
LINE
  8
0
 62
     0
 10
226.169
 20
111.928
 30
0.0
 11
226.169
 21
97.3282
 31
0.0
  0
LINE
  8
0
 62
     0
 10
226.169
 20
97.3282
 30
0.0
 11
211.569
 21
97.3282
 31
0.0
  0
LINE
  8
0
 62
     0
 10
211.569
 20
97.3282
 30
0.0
 11
211.569
 21
111.928
 31
0.0
  0
LINE
  8
0
 62
     0
 10
192.519
 20
111.928
 30
0.0
 11
207.119
 21
111.928
 31
0.0
  0
LINE
  8
0
 62
     0
 10
207.119
 20
111.928
 30
0.0
 11
207.119
 21
97.3282
 31
0.0
  0
LINE
  8
0
 62
     0
 10
207.119
 20
97.3282
 30
0.0
 11
192.519
 21
97.3282
 31
0.0
  0
LINE
  8
0
 62
     0
 10
192.519
 20
97.3282
 30
0.0
 11
192.519
 21
111.928
 31
0.0
  0
LINE
  8
0
 62
     0
 10
173.469
 20
111.928
 30
0.0
 11
188.069
 21
111.928
 31
0.0
  0
LINE
  8
0
 62
     0
 10
188.069
 20
111.928
 30
0.0
 11
188.069
 21
97.3282
 31
0.0
  0
LINE
  8
0
 62
     0
 10
188.069
 20
97.3282
 30
0.0
 11
173.469
 21
97.3282
 31
0.0
  0
LINE
  8
0
 62
     0
 10
173.469
 20
97.3282
 30
0.0
 11
173.469
 21
111.928
 31
0.0
  0
LINE
  8
0
 62
     0
 10
154.419
 20
111.928
 30
0.0
 11
169.019
 21
111.928
 31
0.0
  0
LINE
  8
0
 62
     0
 10
169.019
 20
111.928
 30
0.0
 11
169.019
 21
97.3282
 31
0.0
  0
LINE
  8
0
 62
     0
 10
169.019
 20
97.3282
 30
0.0
 11
154.419
 21
97.3282
 31
0.0
  0
LINE
  8
0
 62
     0
 10
154.419
 20
97.3282
 30
0.0
 11
154.419
 21
111.928
 31
0.0
  0
LINE
  8
0
 62
     0
 10
135.369
 20
111.928
 30
0.0
 11
149.969
 21
111.928
 31
0.0
  0
LINE
  8
0
 62
     0
 10
149.969
 20
111.928
 30
0.0
 11
149.969
 21
97.3282
 31
0.0
  0
LINE
  8
0
 62
     0
 10
149.969
 20
97.3282
 30
0.0
 11
135.369
 21
97.3282
 31
0.0
  0
LINE
  8
0
 62
     0
 10
135.369
 20
97.3282
 30
0.0
 11
135.369
 21
111.928
 31
0.0
  0
LINE
  8
0
 62
     0
 10
116.319
 20
111.928
 30
0.0
 11
130.919
 21
111.928
 31
0.0
  0
LINE
  8
0
 62
     0
 10
130.919
 20
111.928
 30
0.0
 11
130.919
 21
97.3282
 31
0.0
  0
LINE
  8
0
 62
     0
 10
130.919
 20
97.3282
 30
0.0
 11
116.319
 21
97.3282
 31
0.0
  0
LINE
  8
0
 62
     0
 10
116.319
 20
97.3282
 30
0.0
 11
116.319
 21
111.928
 31
0.0
  0
LINE
  8
0
 62
     0
 10
97.2689
 20
111.928
 30
0.0
 11
111.869
 21
111.928
 31
0.0
  0
LINE
  8
0
 62
     0
 10
111.869
 20
111.928
 30
0.0
 11
111.869
 21
97.3282
 31
0.0
  0
LINE
  8
0
 62
     0
 10
111.869
 20
97.3282
 30
0.0
 11
97.2689
 21
97.3282
 31
0.0
  0
LINE
  8
0
 62
     0
 10
97.2689
 20
97.3282
 30
0.0
 11
97.2689
 21
111.928
 31
0.0
  0
LINE
  8
0
 62
     0
 10
78.219
 20
111.928
 30
0.0
 11
92.819
 21
111.928
 31
0.0
  0
LINE
  8
0
 62
     0
 10
92.819
 20
111.928
 30
0.0
 11
92.819
 21
97.3282
 31
0.0
  0
LINE
  8
0
 62
     0
 10
92.819
 20
97.3282
 30
0.0
 11
78.219
 21
97.3282
 31
0.0
  0
LINE
  8
0
 62
     0
 10
78.219
 20
97.3282
 30
0.0
 11
78.219
 21
111.928
 31
0.0
  0
LINE
  8
0
 62
     0
 10
59.1689
 20
111.928
 30
0.0
 11
73.769
 21
111.928
 31
0.0
  0
LINE
  8
0
 62
     0
 10
73.769
 20
111.928
 30
0.0
 11
73.769
 21
97.3282
 31
0.0
  0
LINE
  8
0
 62
     0
 10
73.769
 20
97.3282
 30
0.0
 11
59.1689
 21
97.3282
 31
0.0
  0
LINE
  8
0
 62
     0
 10
59.1689
 20
97.3282
 30
0.0
 11
59.1689
 21
111.928
 31
0.0
  0
LINE
  8
0
 62
     0
 10
40.1189
 20
111.928
 30
0.0
 11
54.719
 21
111.928
 31
0.0
  0
LINE
  8
0
 62
     0
 10
54.719
 20
111.928
 30
0.0
 11
54.719
 21
97.3282
 31
0.0
  0
LINE
  8
0
 62
     0
 10
54.719
 20
97.3282
 30
0.0
 11
40.1189
 21
97.3282
 31
0.0
  0
LINE
  8
0
 62
     0
 10
40.1189
 20
97.3282
 30
0.0
 11
40.1189
 21
111.928
 31
0.0
  0
LINE
  8
0
 62
     0
 10
21.0688
 20
111.928
 30
0.0
 11
35.669
 21
111.928
 31
0.0
  0
LINE
  8
0
 62
     0
 10
35.669
 20
111.928
 30
0.0
 11
35.669
 21
97.3282
 31
0.0
  0
LINE
  8
0
 62
     0
 10
35.669
 20
97.3282
 30
0.0
 11
21.0688
 21
97.3282
 31
0.0
  0
LINE
  8
0
 62
     0
 10
21.0688
 20
97.3282
 30
0.0
 11
21.0688
 21
111.928
 31
0.0
  0
LINE
  8
0
 62
     0
 10
2.01883
 20
111.928
 30
0.0
 11
16.6192
 21
111.928
 31
0.0
  0
LINE
  8
0
 62
     0
 10
16.6192
 20
111.928
 30
0.0
 11
16.6192
 21
97.3282
 31
0.0
  0
LINE
  8
0
 62
     0
 10
16.6192
 20
97.3282
 30
0.0
 11
2.01883
 21
97.3282
 31
0.0
  0
LINE
  8
0
 62
     0
 10
2.01883
 20
97.3282
 30
0.0
 11
2.01883
 21
111.928
 31
0.0
  0
ENDSEC
  0
EOF
