0
SECTION
2
HEADER
9
$INSUNITS
70
4
9
$ACADVER
1
AC1014
9
$HANDSEED
5
FFFF
0
ENDSEC
0
SECTION
2
TABLES
0
TABLE
2
VPORT
5
8
100
AcDbSymbolTable
0
ENDTAB
0
TABLE
2
LTYPE
5
5
100
AcDbSymbolTable
0
LTYPE
5
14
100
AcDbSymbolTableRecord
100
AcDbLinetypeTableRecord
2
BYBLOCK
70
0
0
LTYPE
5
15
100
AcDbSymbolTableRecord
100
AcDbLinetypeTableRecord
2
BYLAYER
70
0
0
ENDTAB
0
TABLE
2
LAYER
5
2
100
AcDbSymbolTable
70
2
0
LAYER
5
50
100
AcDbSymbolTableRecord
100
AcDbLayerTableRecord
2
0
70
0
6
CONTINUOUS
0
ENDTAB
0
TABLE
2
STYLE
5
3
100
AcDbSymbolTable
70
1
0
STYLE
5
11
100
AcDbSymbolTableRecord
100
AcDbTextStyleTableRecord
2
STANDARD
70
0
0
ENDTAB
0
TABLE
2
VIEW
5
6
100
AcDbSymbolTable
70
0
0
ENDTAB
0
TABLE
2
UCS
5
7
100
AcDbSymbolTable
70
0
0
ENDTAB
0
TABLE
2
APPID
5
9
100
AcDbSymbolTable
70
2
0
APPID
5
12
100
AcDbSymbolTableRecord
100
AcDbRegAppTableRecord
2
ACAD
70
0
0
ENDTAB
0
TABLE
2
DIMSTYLE
5
A
100
AcDbSymbolTable
70
1
0
ENDTAB
0
TABLE
2
BLOCK_RECORD
5
1
100
AcDbSymbolTable
70
1
0
BLOCK_RECORD
5
1F
100
AcDbSymbolTableRecord
100
AcDbBlockTableRecord
2
*MODEL_SPACE
0
BLOCK_RECORD
5
1B
100
AcDbSymbolTableRecord
100
AcDbBlockTableRecord
2
*PAPER_SPACE
0
ENDTAB
0
ENDSEC
0
SECTION
2
BLOCKS
0
BLOCK
5
20
100
AcDbEntity
100
AcDbBlockBegin
2
*MODEL_SPACE
0
ENDBLK
5
21
100
AcDbEntity
100
AcDbBlockEnd
0
BLOCK
5
1C
100
AcDbEntity
100
AcDbBlockBegin
2
*PAPER_SPACE
0
ENDBLK
5
1D
100
AcDbEntity
100
AcDbBlockEnd
0
ENDSEC
0
SECTION
2
ENTITIES
0
LWPOLYLINE
5
100
100
AcDbEntity
8
0
100
AcDbPolyline
90
4
70
1
43
0.0
10
221.69499999999999
20
92.983099999999993
10
221.69499999999999
20
78.983800000000002
10
235.69400000000002
20
78.983800000000002
10
235.69400000000002
20
92.983099999999993
0
LWPOLYLINE
5
101
100
AcDbEntity
8
0
100
AcDbPolyline
90
4
70
1
43
0.0
10
226.16900000000001
20
98.033800000000014
10
226.16900000000001
20
112.03299999999999
10
212.16999999999999
20
112.03299999999999
10
212.16999999999999
20
98.033800000000014
0
LWPOLYLINE
5
102
100
AcDbEntity
8
0
100
AcDbPolyline
90
4
70
1
43
0.0
10
197.59400000000002
20
78.983800000000002
10
197.59400000000002
20
92.983099999999993
10
183.595
20
92.983099999999993
10
183.595
20
78.983800000000002
0
LWPOLYLINE
5
103
100
AcDbEntity
8
0
100
AcDbPolyline
90
4
70
1
43
0.0
10
216.64400000000001
20
78.983800000000002
10
216.64400000000001
20
92.983099999999993
10
202.64500000000001
20
92.983099999999993
10
202.64500000000001
20
78.983800000000002
0
LWPOLYLINE
5
104
100
AcDbEntity
8
0
100
AcDbPolyline
90
4
70
1
43
0.0
10
145.495
20
78.983800000000002
10
159.494
20
78.983800000000002
10
159.494
20
92.983099999999993
10
145.495
20
92.983099999999993
0
LWPOLYLINE
5
105
100
AcDbEntity
8
0
100
AcDbPolyline
90
4
70
1
43
0.0
10
145.20699999999999
20
59.933800000000005
10
145.20699999999999
20
73.933099999999996
10
131.20699999999999
20
73.933099999999996
10
131.20699999999999
20
59.933800000000005
0
LWPOLYLINE
5
106
100
AcDbEntity
8
0
100
AcDbPolyline
90
4
70
1
43
0.0
10
169.30700000000002
20
73.933099999999996
10
169.30700000000002
20
59.933800000000005
10
183.30700000000004
20
59.933800000000005
10
183.30700000000004
20
73.933099999999996
0
LWPOLYLINE
5
107
100
AcDbEntity
8
0
100
AcDbPolyline
90
4
70
1
43
0.0
10
173.78200000000004
20
54.883099999999999
10
159.78200000000001
20
54.883099999999999
10
159.78200000000001
20
40.883800000000001
10
173.78200000000004
20
40.883800000000001
0
LWPOLYLINE
5
108
100
AcDbEntity
8
0
100
AcDbPolyline
90
4
70
1
43
0.0
10
164.54499999999999
20
78.983800000000002
10
178.54400000000001
20
78.983800000000002
10
178.54400000000001
20
92.983099999999993
10
164.54499999999999
20
92.983099999999993
0
LWPOLYLINE
5
109
100
AcDbEntity
8
0
100
AcDbPolyline
90
4
70
1
43
0.0
10
150.25700000000001
20
59.933800000000005
10
164.25700000000003
20
59.933800000000005
10
164.25700000000003
20
73.933099999999996
10
150.25700000000001
20
73.933099999999996
0
LWPOLYLINE
5
110
100
AcDbEntity
8
0
100
AcDbPolyline
90
4
70
1
43
0.0
10
188.357
20
73.933099999999996
10
188.357
20
59.933800000000005
10
202.35700000000003
20
59.933800000000005
10
202.35700000000003
20
73.933099999999996
0
LINE
5
111
100
AcDbEntity
8
0
100
AcDbLine
10
79.406700000000001
20
22.063800000000001
30
0
11
79.406700000000001
21
21.082599999999999
31
0
0
LWPOLYLINE
5
112
100
AcDbEntity
8
0
100
AcDbPolyline
90
4
70
1
43
0.0
10
78.819699999999997
20
112.03299999999999
10
78.819699999999997
20
98.033800000000014
10
92.819000000000003
20
98.033800000000014
10
92.819000000000003
20
112.03299999999999
0
LWPOLYLINE
5
113
100
AcDbEntity
8
0
100
AcDbPolyline
90
4
70
1
43
0.0
10
121.682
20
54.883099999999999
10
121.682
20
40.883800000000001
10
135.68200000000002
20
40.883800000000001
10
135.68200000000002
20
54.883099999999999
0
LWPOLYLINE
5
114
100
AcDbEntity
8
0
100
AcDbPolyline
90
44
70
1
43
0.0
10
271.41300000000001
20
59.933800000000005
10
257.41200000000003
20
59.933800000000005
10
257.41200000000003
20
64.632800000000003
10
255.88800000000003
20
64.632800000000003
10
255.88800000000003
20
60.163800000000009
10
254.161
20
60.163800000000009
10
254.161
20
59.182699999999997
10
250.86200000000002
20
59.182699999999997
10
250.86200000000002
20
60.163800000000009
10
249.13700000000003
20
60.163800000000009
10
249.13700000000003
20
66.433700000000016
10
248.31299999999999
20
66.433700000000016
10
248.31299999999999
20
69.232600000000005
10
249.13700000000003
20
69.232600000000005
10
249.13700000000003
20
72.462699999999998
10
250.86200000000002
20
72.462699999999998
10
250.86200000000002
20
73.383399999999995
10
254.161
20
73.383399999999995
10
254.161
20
72.462699999999998
10
255.88800000000003
20
72.462699999999998
10
255.88800000000003
20
69.232600000000005
10
257.41200000000003
20
69.232600000000005
10
257.41200000000003
20
73.933099999999996
10
271.41300000000001
20
73.933099999999996
10
271.41300000000001
20
69.232600000000005
10
272.93700000000001
20
69.232600000000005
10
272.93700000000001
20
72.462699999999998
10
274.66200000000003
20
72.462699999999998
10
274.66200000000003
20
73.383399999999995
10
277.96299999999997
20
73.383399999999995
10
277.96299999999997
20
72.462699999999998
10
279.68799999999999
20
72.462699999999998
10
279.68799999999999
20
69.232600000000005
10
280.512
20
69.232600000000005
10
280.512
20
66.433700000000016
10
279.68799999999999
20
66.433700000000016
10
279.68799999999999
20
60.163800000000009
10
277.96299999999997
20
60.163800000000009
10
277.96299999999997
20
59.182699999999997
10
274.66200000000003
20
59.182699999999997
10
274.66200000000003
20
60.163800000000009
10
272.93700000000001
20
60.163800000000009
10
272.93700000000001
20
64.632800000000003
10
271.41300000000001
20
64.632800000000003
0
LINE
5
115
100
AcDbEntity
8
0
100
AcDbLine
10
129.95200000000003
20
58.678449999999998
30
0
11
139.477
21
58.678449999999998
31
0
0
LINE
5
116
100
AcDbEntity
8
0
100
AcDbLine
10
79.406700000000001
20
34.3628
30
0
11
77.681299999999993
21
34.3628
31
0
0
LWPOLYLINE
5
117
100
AcDbEntity
8
0
100
AcDbPolyline
90
44
70
1
43
0.0
10
246.10100000000003
20
40.1327
10
246.10100000000003
20
41.113799999999998
10
244.376
20
41.113799999999998
10
244.376
20
47.383699999999997
10
243.55000000000004
20
47.383699999999997
10
243.55000000000004
20
50.182600000000008
10
244.376
20
50.182600000000008
10
244.376
20
53.412700000000008
10
246.10100000000003
20
53.412700000000008
10
246.10100000000003
20
54.334800000000001
10
249.40000000000001
20
54.334800000000001
10
249.40000000000001
20
53.412700000000008
10
251.126
20
53.412700000000008
10
251.126
20
50.182600000000008
10
252.65000000000001
20
50.182600000000008
10
252.65000000000001
20
54.883099999999999
10
266.64999999999998
20
54.883099999999999
10
266.64999999999998
20
50.182600000000008
10
268.17599999999999
20
50.182600000000008
10
268.17599999999999
20
53.412700000000008
10
269.90100000000001
20
53.412700000000008
10
269.90100000000001
20
54.334800000000001
10
273.19999999999999
20
54.334800000000001
10
273.19999999999999
20
53.412700000000008
10
274.92500000000001
20
53.412700000000008
10
274.92500000000001
20
50.182600000000008
10
275.75099999999998
20
50.182600000000008
10
275.75099999999998
20
47.383699999999997
10
274.92500000000001
20
47.383699999999997
10
274.92500000000001
20
41.113799999999998
10
273.19999999999999
20
41.113799999999998
10
273.19999999999999
20
40.1327
10
269.90100000000001
20
40.1327
10
269.90100000000001
20
41.113799999999998
10
268.17599999999999
20
41.113799999999998
10
268.17599999999999
20
45.582799999999999
10
266.64999999999998
20
45.582799999999999
10
266.64999999999998
20
40.883800000000001
10
252.65000000000001
20
40.883800000000001
10
252.65000000000001
20
45.582799999999999
10
251.126
20
45.582799999999999
10
251.126
20
41.113799999999998
10
249.40000000000001
20
41.113799999999998
10
249.40000000000001
20
40.1327
0
LWPOLYLINE
5
118
100
AcDbEntity
8
0
100
AcDbPolyline
90
44
70
1
43
0.0
10
256.54400000000004
20
98.263800000000003
10
256.54400000000004
20
97.28270000000002
10
253.24299999999999
20
97.28270000000002
10
253.24299999999999
20
98.263800000000003
10
251.52000000000001
20
98.263800000000003
10
251.52000000000001
20
104.53400000000001
10
250.69400000000002
20
104.53400000000001
10
250.69400000000002
20
107.333
10
251.52000000000001
20
107.333
10
251.52000000000001
20
110.563
10
253.24299999999999
20
110.563
10
253.24299999999999
20
111.485
10
256.54400000000004
20
111.485
10
256.54400000000004
20
110.563
10
258.26900000000001
20
110.563
10
258.26900000000001
20
107.333
10
259.79500000000002
20
107.333
10
259.79500000000002
20
112.03299999999999
10
273.79400000000004
20
112.03299999999999
10
273.79400000000004
20
107.333
10
275.31999999999999
20
107.333
10
275.31999999999999
20
110.563
10
277.04500000000002
20
110.563
10
277.04500000000002
20
111.485
10
280.34399999999999
20
111.485
10
280.34399999999999
20
110.563
10
282.06900000000007
20
110.563
10
282.06900000000007
20
107.333
10
282.89499999999998
20
107.333
10
282.89499999999998
20
104.53400000000001
10
282.06900000000007
20
104.53400000000001
10
282.06900000000007
20
98.263800000000003
10
280.34399999999999
20
98.263800000000003
10
280.34399999999999
20
97.28270000000002
10
277.04500000000002
20
97.28270000000002
10
277.04500000000002
20
98.263800000000003
10
275.31999999999999
20
98.263800000000003
10
275.31999999999999
20
102.73299999999999
10
273.79400000000004
20
102.73299999999999
10
273.79400000000004
20
98.033800000000014
10
259.79500000000002
20
98.033800000000014
10
259.79500000000002
20
102.73299999999999
10
258.26900000000001
20
102.73299999999999
10
258.26900000000001
20
98.263800000000003
0
LWPOLYLINE
5
119
100
AcDbEntity
8
0
100
AcDbPolyline
90
4
70
1
43
0.0
10
230.93200000000002
20
40.883800000000001
10
230.93200000000002
20
54.883099999999999
10
216.93200000000004
20
54.883099999999999
10
216.93200000000004
20
40.883800000000001
0
LWPOLYLINE
5
120
100
AcDbEntity
8
0
100
AcDbPolyline
90
4
70
1
43
0.0
10
49.956500000000005
20
59.933800000000005
10
49.956500000000005
20
73.933099999999996
10
35.9572
20
73.933099999999996
10
35.9572
20
59.933800000000005
0
LWPOLYLINE
5
121
100
AcDbEntity
8
0
100
AcDbPolyline
90
4
70
1
43
0.0
10
126.15700000000002
20
59.933800000000005
10
126.15700000000002
20
73.933099999999996
10
112.15700000000001
20
73.933099999999996
10
112.15700000000001
20
59.933800000000005
0
LWPOLYLINE
5
122
100
AcDbEntity
8
0
100
AcDbPolyline
90
4
70
1
43
0.0
10
178.83199999999999
20
40.883800000000001
10
192.83199999999999
20
40.883800000000001
10
192.83199999999999
20
54.883099999999999
10
178.83199999999999
20
54.883099999999999
0
LWPOLYLINE
5
123
100
AcDbEntity
8
0
100
AcDbPolyline
90
4
70
1
43
0.0
10
211.88200000000001
20
40.883800000000001
10
211.88200000000001
20
54.883099999999999
10
197.88200000000003
20
54.883099999999999
10
197.88200000000003
20
40.883800000000001
0
LINE
5
124
100
AcDbEntity
8
0
100
AcDbLine
10
122.6495
20
75.188450000000003
30
0
11
127.41200000000001
21
75.188450000000003
31
0
0
LWPOLYLINE
5
125
100
AcDbEntity
8
0
100
AcDbPolyline
90
4
70
1
43
0.0
10
73.768999999999991
20
112.03299999999999
10
59.769700000000007
20
112.03299999999999
10
59.769700000000007
20
98.033800000000014
10
73.768999999999991
20
98.033800000000014
0
LWPOLYLINE
5
126
100
AcDbEntity
8
0
100
AcDbPolyline
90
4
70
1
43
0.0
10
257.125
20
21.833600000000001
10
257.125
20
35.832999999999998
10
243.126
20
35.832999999999998
10
243.126
20
21.833600000000001
0
LWPOLYLINE
5
127
100
AcDbEntity
8
0
100
AcDbPolyline
90
4
70
1
43
0.0
10
83.582200000000014
20
54.883099999999999
10
83.582200000000014
20
40.883800000000001
10
97.581500000000005
20
40.883800000000001
10
97.581500000000005
20
54.883099999999999
0
LINE
5
128
100
AcDbEntity
8
0
100
AcDbLine
10
179.41200000000003
20
21.082599999999999
30
0
11
182.71900000000002
21
21.082599999999999
31
0
0
LWPOLYLINE
5
129
100
AcDbEntity
8
0
100
AcDbPolyline
90
4
70
1
43
0.0
10
55.007200000000005
20
59.933800000000005
10
69.006500000000003
20
59.933800000000005
10
69.006500000000003
20
73.933099999999996
10
55.007200000000005
20
73.933099999999996
0
LWPOLYLINE
5
130
100
AcDbEntity
8
0
100
AcDbPolyline
90
4
70
1
43
0.0
10
78.531499999999994
20
40.883800000000001
10
78.531499999999994
20
54.883099999999999
10
64.532200000000003
20
54.883099999999999
10
64.532200000000003
20
40.883800000000001
0
LWPOLYLINE
5
131
100
AcDbEntity
8
0
100
AcDbPolyline
90
4
70
1
43
0.0
10
64.244
20
92.983099999999993
10
50.244700000000009
20
92.983099999999993
10
50.244700000000009
20
78.983800000000002
10
64.244
20
78.983800000000002
0
LWPOLYLINE
5
132
100
AcDbEntity
8
0
100
AcDbPolyline
90
4
70
1
43
0.0
10
126.44500000000001
20
78.983800000000002
10
140.44399999999999
20
78.983800000000002
10
140.44399999999999
20
92.983099999999993
10
126.44500000000001
20
92.983099999999993
0
LINE
5
133
100
AcDbEntity
8
0
100
AcDbLine
10
146.345
20
22.063800000000001
30
0
11
146.345
21
26.534100000000002
31
0
0
LINE
5
134
100
AcDbEntity
8
0
100
AcDbLine
10
182.71900000000002
20
35.284800000000004
30
0
11
179.41200000000003
21
35.284800000000004
31
0
0
LINE
5
135
100
AcDbEntity
8
0
100
AcDbLine
10
77.681299999999993
20
31.132600000000004
30
0
11
76.855800000000002
21
31.132600000000004
31
0
0
LINE
5
136
100
AcDbEntity
8
0
100
AcDbLine
10
144.619
20
21.082599999999999
30
0
11
144.619
21
22.063800000000001
31
0
0
LINE
5
137
100
AcDbEntity
8
0
100
AcDbLine
10
76.855800000000002
20
31.132600000000004
30
0
11
76.855800000000002
21
28.3338
31
0
0
LINE
5
138
100
AcDbEntity
8
0
100
AcDbLine
10
136.93699999999998
20
56.138450000000006
30
0
11
136.93699999999998
21
39.628399999999999
31
0
0
LINE
5
139
100
AcDbEntity
8
0
100
AcDbLine
10
127.41200000000001
20
75.188450000000003
30
0
11
127.41200000000001
21
56.138450000000006
31
0
0
LWPOLYLINE
5
140
100
AcDbEntity
8
0
100
AcDbPolyline
90
4
70
1
43
0.0
10
42.81280000000001
20
35.832999999999998
10
28.811999999999998
20
35.832999999999998
10
28.811999999999998
20
21.833600000000001
10
42.81280000000001
20
21.833600000000001
0
LINE
5
141
100
AcDbEntity
8
0
100
AcDbLine
10
155.02000000000004
20
26.534100000000002
30
0
11
155.02000000000004
21
21.833600000000001
31
0
0
LINE
5
142
100
AcDbEntity
8
0
100
AcDbLine
10
79.406700000000001
20
35.284800000000004
30
0
11
79.406700000000001
21
34.3628
31
0
0
LWPOLYLINE
5
143
100
AcDbEntity
8
0
100
AcDbPolyline
90
4
70
1
43
0.0
10
69.294700000000006
20
92.983099999999993
10
69.294700000000006
20
78.983800000000002
10
83.293999999999997
20
78.983800000000002
10
83.293999999999997
20
92.983099999999993
0
LINE
5
144
100
AcDbEntity
8
0
100
AcDbLine
10
77.681299999999993
20
22.063800000000001
30
0
11
79.406700000000001
21
22.063800000000001
31
0
0
LINE
5
145
100
AcDbEntity
8
0
100
AcDbLine
10
177.68700000000001
20
22.063800000000001
30
0
11
179.41200000000003
21
22.063800000000001
31
0
0
LINE
5
146
100
AcDbEntity
8
0
100
AcDbLine
10
77.681299999999993
20
28.3338
30
0
11
77.681299999999993
21
22.063800000000001
31
0
0
LWPOLYLINE
5
147
100
AcDbEntity
8
0
100
AcDbPolyline
90
4
70
1
43
0.0
10
54.718999999999994
20
98.033800000000014
10
54.718999999999994
20
112.03299999999999
10
40.719700000000003
20
112.03299999999999
10
40.719700000000003
20
98.033800000000014
0
LWPOLYLINE
5
148
100
AcDbEntity
8
0
100
AcDbPolyline
90
4
70
1
43
0.0
10
102.63200000000001
20
54.883099999999999
10
102.63200000000001
20
40.883800000000001
10
116.63200000000002
20
40.883800000000001
10
116.63200000000002
20
54.883099999999999
0
LINE
5
149
100
AcDbEntity
8
0
100
AcDbLine
10
77.681299999999993
20
34.3628
30
0
11
77.681299999999993
21
31.132600000000004
31
0
0
LINE
5
150
100
AcDbEntity
8
0
100
AcDbLine
10
129.95200000000003
20
77.728449999999995
30
0
11
129.95200000000003
21
58.678449999999998
31
0
0
LWPOLYLINE
5
151
100
AcDbEntity
8
0
100
AcDbPolyline
90
4
70
1
43
0.0
10
254.74400000000003
20
78.983800000000002
10
254.74400000000003
20
92.983099999999993
10
240.745
20
92.983099999999993
10
240.745
20
78.983800000000002
0
LINE
5
152
100
AcDbEntity
8
0
100
AcDbLine
10
144.619
20
22.063800000000001
30
0
11
146.345
21
22.063800000000001
31
0
0
LINE
5
153
100
AcDbEntity
8
0
100
AcDbLine
10
169.01900000000001
20
21.833600000000001
30
0
11
169.01900000000001
21
26.534100000000002
31
0
0
LINE
5
154
100
AcDbEntity
8
0
100
AcDbLine
10
177.68700000000001
20
26.534100000000002
30
0
11
177.68700000000001
21
22.063800000000001
31
0
0
LINE
5
155
100
AcDbEntity
8
0
100
AcDbLine
10
169.01900000000001
20
26.534100000000002
30
0
11
177.68700000000001
21
26.534100000000002
31
0
0
LINE
5
156
100
AcDbEntity
8
0
100
AcDbLine
10
127.41200000000001
20
56.138450000000006
30
0
11
136.93699999999998
21
56.138450000000006
31
0
0
LINE
5
157
100
AcDbEntity
8
0
100
AcDbLine
10
155.02000000000004
20
21.833600000000001
30
0
11
169.01900000000001
21
21.833600000000001
31
0
0
LWPOLYLINE
5
158
100
AcDbEntity
8
0
100
AcDbPolyline
90
4
70
1
43
0.0
10
152.34999999999999
20
2.7836400000000006
10
152.34999999999999
20
16.784500000000001
10
135.97000000000003
20
16.784500000000001
10
135.97000000000003
20
2.7836400000000001
0
LINE
5
159
100
AcDbEntity
8
0
100
AcDbLine
10
125.18950000000002
20
77.728449999999995
30
0
11
129.95200000000003
21
77.728449999999995
31
0
0
LINE
5
160
100
AcDbEntity
8
0
100
AcDbLine
10
146.345
20
26.534100000000002
30
0
11
155.02000000000004
21
26.534100000000002
31
0
0
LWPOLYLINE
5
161
100
AcDbEntity
8
0
100
AcDbPolyline
90
4
70
1
43
0.0
10
74.057199999999995
20
73.933099999999996
10
74.057199999999995
20
59.933800000000005
10
88.0565
20
59.933800000000005
10
88.0565
20
73.933099999999996
0
LINE
5
162
100
AcDbEntity
8
0
100
AcDbLine
10
179.41200000000003
20
22.063800000000001
30
0
11
179.41200000000003
21
21.082599999999999
31
0
0
LWPOLYLINE
5
163
100
AcDbEntity
8
0
100
AcDbPolyline
90
4
70
1
43
0.0
10
155.02000000000004
20
98.033800000000014
10
169.01900000000001
20
98.033800000000014
10
169.01900000000001
20
112.03299999999999
10
155.02000000000004
20
112.03299999999999
0
LWPOLYLINE
5
164
100
AcDbEntity
8
0
100
AcDbPolyline
90
4
70
1
43
0.0
10
149.96899999999999
20
98.033800000000014
10
149.96899999999999
20
112.03299999999999
10
135.97000000000003
20
112.03299999999999
10
135.97000000000003
20
98.033800000000014
0
LWPOLYLINE
5
165
100
AcDbEntity
8
0
100
AcDbPolyline
90
4
70
1
43
0.0
10
174.06999999999999
20
98.033800000000014
10
188.06900000000002
20
98.033800000000014
10
188.06900000000002
20
112.03299999999999
10
174.06999999999999
20
112.03299999999999
0
LWPOLYLINE
5
166
100
AcDbEntity
8
0
100
AcDbPolyline
90
4
70
1
43
0.0
10
207.11900000000003
20
98.033800000000014
10
207.11900000000003
20
112.03299999999999
10
193.12
20
112.03299999999999
10
193.12
20
98.033800000000014
0
LWPOLYLINE
5
167
100
AcDbEntity
8
0
100
AcDbPolyline
90
4
70
1
43
0.0
10
231.22
20
112.03299999999999
10
231.22
20
98.033800000000014
10
245.21900000000002
20
98.033800000000014
10
245.21900000000002
20
112.03299999999999
0
LWPOLYLINE
5
168
100
AcDbEntity
8
0
100
AcDbPolyline
90
4
70
1
43
0.0
10
207.40700000000004
20
59.933800000000005
10
221.40700000000004
20
59.933800000000005
10
221.40700000000004
20
73.933099999999996
10
207.40700000000004
20
73.933099999999996
0
LWPOLYLINE
5
169
100
AcDbEntity
8
0
100
AcDbPolyline
90
4
70
1
43
0.0
10
226.45700000000002
20
73.933099999999996
10
226.45700000000002
20
59.933800000000005
10
240.45699999999999
20
59.933800000000005
10
240.45699999999999
20
73.933099999999996
0
LINE
5
170
100
AcDbEntity
8
0
100
AcDbLine
10
169.01900000000001
20
35.832999999999998
30
0
11
155.02000000000004
21
35.832999999999998
31
0
0
LWPOLYLINE
5
171
100
AcDbEntity
8
0
100
AcDbPolyline
90
4
70
1
43
0.0
10
140.732
20
54.883099999999999
10
140.732
20
40.883800000000001
10
154.732
20
40.883800000000001
10
154.732
20
54.883099999999999
0
LINE
5
172
100
AcDbEntity
8
0
100
AcDbLine
10
144.619
20
34.3628
30
0
11
144.619
21
35.284800000000004
31
0
0
LINE
5
173
100
AcDbEntity
8
0
100
AcDbLine
10
79.406700000000001
20
21.082599999999999
30
0
11
82.712599999999995
21
21.082599999999999
31
0
0
LWPOLYLINE
5
174
100
AcDbEntity
8
0
100
AcDbPolyline
90
4
70
1
43
0.0
10
233.31299999999999
20
35.832999999999998
10
219.31200000000004
20
35.832999999999998
10
219.31200000000004
20
21.833600000000001
10
233.31299999999999
20
21.833600000000001
0
LINE
5
175
100
AcDbEntity
8
0
100
AcDbLine
10
139.477
20
58.678449999999998
30
0
11
139.477
21
37.088400000000007
31
0
0
LINE
5
176
100
AcDbEntity
8
0
100
AcDbLine
10
155.02000000000004
20
31.132600000000004
30
0
11
146.345
21
31.132600000000004
31
0
0
LINE
5
177
100
AcDbEntity
8
0
100
AcDbLine
10
177.68700000000001
20
34.3628
30
0
11
177.68700000000001
21
31.132600000000004
31
0
0
LINE
5
178
100
AcDbEntity
8
0
100
AcDbLine
10
169.01900000000001
20
31.132600000000004
30
0
11
169.01900000000001
21
35.832999999999998
31
0
0
LINE
5
179
100
AcDbEntity
8
0
100
AcDbLine
10
141.31899999999999
20
21.082599999999999
30
0
11
144.619
21
21.082599999999999
31
0
0
LINE
5
180
100
AcDbEntity
8
0
100
AcDbLine
10
82.712599999999995
20
35.284800000000004
30
0
11
79.406700000000001
21
35.284800000000004
31
0
0
LINE
5
181
100
AcDbEntity
8
0
100
AcDbLine
10
146.345
20
34.3628
30
0
11
144.619
21
34.3628
31
0
0
LINE
5
182
100
AcDbEntity
8
0
100
AcDbLine
10
177.68700000000001
20
31.132600000000004
30
0
11
169.01900000000001
21
31.132600000000004
31
0
0
LINE
5
183
100
AcDbEntity
8
0
100
AcDbLine
10
179.41200000000003
20
34.3628
30
0
11
177.68700000000001
21
34.3628
31
0
0
LINE
5
184
100
AcDbEntity
8
0
100
AcDbLine
10
155.02000000000004
20
35.832999999999998
30
0
11
155.02000000000004
21
31.132600000000004
31
0
0
LINE
5
185
100
AcDbEntity
8
0
100
AcDbLine
10
144.619
20
35.284800000000004
30
0
11
141.31899999999999
21
35.284800000000004
31
0
0
LINE
5
186
100
AcDbEntity
8
0
100
AcDbLine
10
179.41200000000003
20
35.284800000000004
30
0
11
179.41200000000003
21
34.3628
31
0
0
LINE
5
187
100
AcDbEntity
8
0
100
AcDbLine
10
146.345
20
31.132600000000004
30
0
11
146.345
21
34.3628
31
0
0
LINE
5
188
100
AcDbEntity
8
0
100
AcDbLine
10
184.44500000000002
20
34.3628
30
0
11
182.71900000000002
21
34.3628
31
0
0
LINE
5
189
100
AcDbEntity
8
0
100
AcDbLine
10
184.44500000000002
20
31.132600000000004
30
0
11
184.44500000000002
21
34.3628
31
0
0
LINE
5
190
100
AcDbEntity
8
0
100
AcDbLine
10
182.71900000000002
20
21.082599999999999
30
0
11
182.71900000000002
21
22.063800000000001
31
0
0
LWPOLYLINE
5
191
100
AcDbEntity
8
0
100
AcDbPolyline
90
4
70
1
43
0.0
10
195.501
20
35.832999999999998
10
195.501
20
21.833600000000001
10
209.50000000000003
20
21.833600000000001
10
209.50000000000003
20
35.832999999999998
0
LINE
5
192
100
AcDbEntity
8
0
100
AcDbLine
10
184.44500000000002
20
22.063800000000001
30
0
11
184.44500000000002
21
28.3338
31
0
0
LINE
5
193
100
AcDbEntity
8
0
100
AcDbLine
10
185.26900000000001
20
31.132600000000004
30
0
11
184.44500000000002
21
31.132600000000004
31
0
0
LINE
5
194
100
AcDbEntity
8
0
100
AcDbLine
10
185.26900000000001
20
28.3338
30
0
11
185.26900000000001
21
31.132600000000004
31
0
0
LINE
5
195
100
AcDbEntity
8
0
100
AcDbLine
10
182.71900000000002
20
34.3628
30
0
11
182.71900000000002
21
35.284800000000004
31
0
0
LINE
5
196
100
AcDbEntity
8
0
100
AcDbLine
10
182.71900000000002
20
22.063800000000001
30
0
11
184.44500000000002
21
22.063800000000001
31
0
0
LINE
5
197
100
AcDbEntity
8
0
100
AcDbLine
10
184.44500000000002
20
28.3338
30
0
11
185.26900000000001
21
28.3338
31
0
0
LWPOLYLINE
5
198
100
AcDbEntity
8
0
100
AcDbPolyline
90
4
70
1
43
0.0
10
59.481499999999997
20
40.883800000000001
10
59.481499999999997
20
54.883099999999999
10
45.482199999999999
20
54.883099999999999
10
45.482199999999999
20
40.883800000000001
0
LWPOLYLINE
5
199
100
AcDbEntity
8
0
100
AcDbPolyline
90
44
70
1
43
0.0
10
28.525400000000005
20
54.883099999999999
10
28.525400000000005
20
50.182600000000008
10
30.050899999999999
20
50.182600000000008
10
30.050899999999999
20
53.412700000000008
10
31.774799999999999
20
53.412700000000008
10
31.774799999999999
20
54.334800000000001
10
35.075200000000002
20
54.334800000000001
10
35.075200000000002
20
53.412700000000008
10
36.800400000000003
20
53.412700000000008
10
36.800400000000003
20
50.182600000000008
10
37.625900000000001
20
50.182600000000008
10
37.625900000000001
20
47.383699999999997
10
36.800400000000003
20
47.383699999999997
10
36.800400000000003
20
41.113799999999998
10
35.075200000000002
20
41.113799999999998
10
35.075200000000002
20
40.1327
10
31.774799999999999
20
40.1327
10
31.774799999999999
20
41.113799999999998
10
30.050899999999999
20
41.113799999999998
10
30.050899999999999
20
45.582799999999999
10
28.525400000000005
20
45.582799999999999
10
28.525400000000005
20
40.883800000000001
10
14.5259
20
40.883800000000001
10
14.5259
20
45.582799999999999
10
13.000400000000001
20
45.582799999999999
10
13.000400000000001
20
41.113799999999998
10
11.2751
20
41.113799999999998
10
11.2751
20
40.1327
10
7.9760900000000001
20
40.1327
10
7.9760900000000001
20
41.113799999999998
10
6.2508000000000008
20
41.113799999999998
10
6.2508000000000008
20
47.383699999999997
10
5.4253300000000007
20
47.383699999999997
10
5.4253300000000007
20
50.182600000000008
10
6.2508000000000008
20
50.182600000000008
10
6.2508000000000008
20
53.412700000000008
10
7.9760900000000001
20
53.412700000000008
10
7.9760900000000001
20
54.334800000000001
10
11.2751
20
54.334800000000001
10
11.2751
20
53.412700000000008
10
13.000400000000001
20
53.412700000000008
10
13.000400000000001
20
50.182600000000008
10
14.5259
20
50.182600000000008
10
14.5259
20
54.883099999999999
0
LWPOLYLINE
5
200
100
AcDbEntity
8
0
100
AcDbPolyline
90
4
70
1
43
0.0
10
280.93799999999999
20
35.832999999999998
10
266.93700000000001
20
35.832999999999998
10
266.93700000000001
20
21.833600000000001
10
280.93799999999999
20
21.833600000000001
0
LWPOLYLINE
5
201
100
AcDbEntity
8
0
100
AcDbPolyline
90
4
70
1
43
0.0
10
9.7620300000000011
20
73.933099999999996
10
9.7620300000000011
20
59.933800000000005
10
23.762900000000002
20
59.933800000000005
10
23.762900000000002
20
73.933099999999996
0
LWPOLYLINE
5
202
100
AcDbEntity
8
0
100
AcDbPolyline
90
4
70
1
43
0.0
10
66.62530000000001
20
35.832999999999998
10
52.626000000000005
20
35.832999999999998
10
52.626000000000005
20
21.833600000000001
10
66.62530000000001
20
21.833600000000001
0
LWPOLYLINE
5
203
100
AcDbEntity
8
0
100
AcDbPolyline
90
4
70
1
43
0.0
10
7.3821600000000007
20
92.983099999999993
10
7.3821599999999998
20
78.983800000000002
10
21.381700000000002
20
78.983800000000002
10
21.381700000000002
20
92.983099999999993
0
LINE
5
204
100
AcDbEntity
8
0
100
AcDbLine
10
134.71450000000002
20
114.55799999999999
30
0
11
134.71450000000002
21
94.238449999999986
31
0
0
LINE
5
205
100
AcDbEntity
8
0
100
AcDbLine
10
132.17449999999999
20
114.55799999999999
30
0
11
132.17449999999999
21
96.778449999999992
31
0
0
LWPOLYLINE
5
206
100
AcDbEntity
8
0
100
AcDbPolyline
90
4
70
1
43
0.0
10
45.194000000000003
20
78.983800000000002
10
45.194000000000003
20
92.983099999999993
10
31.194700000000001
20
92.983099999999993
10
31.194700000000001
20
78.983800000000002
0
LINE
5
207
100
AcDbEntity
8
0
100
AcDbLine
10
76.855800000000002
20
28.3338
30
0
11
77.681299999999993
21
28.3338
31
0
0
LWPOLYLINE
5
208
100
AcDbEntity
8
0
100
AcDbPolyline
90
4
70
1
43
0.0
10
35.669000000000004
20
98.033800000000014
10
35.669000000000004
20
112.03299999999999
10
21.669699999999999
20
112.03299999999999
10
21.669699999999999
20
98.033800000000014
0
LWPOLYLINE
5
209
100
AcDbEntity
8
0
100
AcDbPolyline
90
4
70
1
43
0.0
10
121.39400000000001
20
78.983800000000002
10
121.39400000000001
20
92.983099999999993
10
107.395
20
92.983099999999993
10
107.395
20
78.983800000000002
0
LINE
5
210
100
AcDbEntity
8
0
100
AcDbLine
10
125.18950000000002
20
94.238449999999986
30
0
11
125.18950000000002
21
77.728449999999995
31
0
0
LWPOLYLINE
5
211
100
AcDbEntity
8
0
100
AcDbPolyline
90
4
70
1
43
0.0
10
19.000399999999999
20
21.833600000000001
10
19.000399999999999
20
35.832999999999998
10
5.0009100000000011
20
35.832999999999998
10
5.0009100000000011
20
21.833600000000001
0
LWPOLYLINE
5
212
100
AcDbEntity
8
0
100
AcDbPolyline
90
4
70
1
43
0.0
10
16.619199999999999
20
112.03299999999999
10
2.61965
20
112.03299999999999
10
2.61965
20
98.033800000000014
10
16.619199999999999
20
98.033800000000014
0
LWPOLYLINE
5
213
100
AcDbEntity
8
0
100
AcDbPolyline
90
4
70
1
43
0.0
10
264.55700000000002
20
92.983099999999993
10
264.55700000000002
20
78.983800000000002
10
278.55700000000002
20
78.983800000000002
10
278.55700000000002
20
92.983099999999993
0
LWPOLYLINE
5
214
100
AcDbEntity
8
0
100
AcDbPolyline
90
4
70
1
43
0.0
10
130.91899999999998
20
98.033800000000014
10
130.91899999999998
20
112.03299999999999
10
116.91800000000001
20
112.03299999999999
10
116.91800000000001
20
98.033800000000014
0
LINE
5
215
100
AcDbEntity
8
0
100
AcDbLine
10
122.6495
20
96.778449999999992
30
0
11
122.6495
21
75.188450000000003
31
0
0
LWPOLYLINE
5
216
100
AcDbEntity
8
0
100
AcDbPolyline
90
4
70
1
43
0.0
10
88.344700000000017
20
92.983099999999993
10
88.344700000000017
20
78.983800000000002
10
102.34400000000001
20
78.983800000000002
10
102.34400000000001
20
92.983099999999993
0
LWPOLYLINE
5
217
100
AcDbEntity
8
0
100
AcDbPolyline
90
4
70
1
43
0.0
10
97.868300000000019
20
98.033800000000014
10
111.86900000000001
20
98.033800000000014
10
111.86900000000001
20
112.03299999999999
10
97.868300000000019
20
112.03299999999999
0
LWPOLYLINE
5
218
100
AcDbEntity
8
0
100
AcDbPolyline
90
4
70
1
43
0.0
10
109.77600000000002
20
2.7836400000000001
10
126.15700000000002
20
2.7836400000000006
10
126.15700000000002
20
16.784500000000001
10
109.77600000000002
20
16.784500000000001
0
LINE
5
219
100
AcDbEntity
8
0
100
AcDbLine
10
120.807
20
35.284800000000004
30
0
11
117.50700000000002
21
35.284800000000004
31
0
0
LINE
5
220
100
AcDbEntity
8
0
100
AcDbLine
10
117.50700000000002
20
21.082599999999999
30
0
11
120.807
21
21.082599999999999
31
0
0
LINE
5
221
100
AcDbEntity
8
0
100
AcDbLine
10
82.712599999999995
20
22.063800000000001
30
0
11
84.438100000000006
21
22.063800000000001
31
0
0
LINE
5
222
100
AcDbEntity
8
0
100
AcDbLine
10
107.10700000000003
20
31.132600000000004
30
0
11
107.10700000000003
21
35.832999999999998
31
0
0
LINE
5
223
100
AcDbEntity
8
0
100
AcDbLine
10
82.712599999999995
20
21.082599999999999
30
0
11
82.712599999999995
21
22.063800000000001
31
0
0
LINE
5
224
100
AcDbEntity
8
0
100
AcDbLine
10
124.06200000000001
20
31.132600000000004
30
0
11
122.53100000000002
21
31.132600000000004
31
0
0
LINE
5
225
100
AcDbEntity
8
0
100
AcDbLine
10
93.10720000000002
20
21.833600000000001
30
0
11
107.10700000000003
21
21.833600000000001
31
0
0
LINE
5
226
100
AcDbEntity
8
0
100
AcDbLine
10
122.53100000000002
20
34.3628
30
0
11
120.807
21
34.3628
31
0
0
LINE
5
227
100
AcDbEntity
8
0
100
AcDbLine
10
107.10700000000003
20
26.534100000000002
30
0
11
115.78100000000001
21
26.534100000000002
31
0
0
LINE
5
228
100
AcDbEntity
8
0
100
AcDbLine
10
84.438100000000006
20
34.3628
30
0
11
82.712599999999995
21
34.3628
31
0
0
LINE
5
229
100
AcDbEntity
8
0
100
AcDbLine
10
117.50700000000002
20
22.063800000000001
30
0
11
117.50700000000002
21
21.082599999999999
31
0
0
LWPOLYLINE
5
230
100
AcDbEntity
8
0
100
AcDbPolyline
90
4
70
1
43
0.0
10
107.10700000000003
20
59.933800000000005
10
107.10700000000003
20
73.933099999999996
10
93.10720000000002
20
73.933099999999996
10
93.10720000000002
20
59.933800000000005
0
LINE
5
231
100
AcDbEntity
8
0
100
AcDbLine
10
84.438100000000006
20
26.534100000000002
30
0
11
93.10720000000002
21
26.534100000000002
31
0
0
LINE
5
232
100
AcDbEntity
8
0
100
AcDbLine
10
122.53100000000002
20
31.132600000000004
30
0
11
122.53100000000002
21
34.3628
31
0
0
LINE
5
233
100
AcDbEntity
8
0
100
AcDbLine
10
82.712599999999995
20
34.3628
30
0
11
82.712599999999995
21
35.284800000000004
31
0
0
LINE
5
234
100
AcDbEntity
8
0
100
AcDbLine
10
139.59399999999999
20
34.3628
30
0
11
139.59399999999999
21
31.132600000000004
31
0
0
LINE
5
235
100
AcDbEntity
8
0
100
AcDbLine
10
139.477
20
37.088400000000007
30
0
11
132.33250000000001
21
37.088400000000007
31
0
0
LINE
5
236
100
AcDbEntity
8
0
100
AcDbLine
10
115.78100000000001
20
26.534100000000002
30
0
11
115.78100000000001
21
22.063800000000001
31
0
0
LINE
5
237
100
AcDbEntity
8
0
100
AcDbLine
10
120.807
20
34.3628
30
0
11
120.807
21
35.284800000000004
31
0
0
LINE
5
238
100
AcDbEntity
8
0
100
AcDbLine
10
84.438100000000006
20
22.063800000000001
30
0
11
84.438100000000006
21
26.534100000000002
31
0
0
LINE
5
239
100
AcDbEntity
8
0
100
AcDbLine
10
138.06299999999999
20
31.132600000000004
30
0
11
138.06299999999999
21
35.832999999999998
31
0
0
LINE
5
240
100
AcDbEntity
8
0
100
AcDbLine
10
138.06299999999999
20
21.833600000000001
30
0
11
138.06299999999999
21
26.534100000000002
31
0
0
LINE
5
241
100
AcDbEntity
8
0
100
AcDbLine
10
107.10700000000003
20
21.833600000000001
30
0
11
107.10700000000003
21
26.534100000000002
31
0
0
LINE
5
242
100
AcDbEntity
8
0
100
AcDbLine
10
117.50700000000002
20
34.3628
30
0
11
115.78100000000001
21
34.3628
31
0
0
LINE
5
243
100
AcDbEntity
8
0
100
AcDbLine
10
124.06200000000001
20
35.832999999999998
30
0
11
124.06200000000001
21
31.132600000000004
31
0
0
LINE
5
244
100
AcDbEntity
8
0
100
AcDbLine
10
115.78100000000001
20
34.3628
30
0
11
115.78100000000001
21
31.132600000000004
31
0
0
LINE
5
245
100
AcDbEntity
8
0
100
AcDbLine
10
84.438100000000006
20
31.132600000000004
30
0
11
84.438100000000006
21
34.3628
31
0
0
LINE
5
246
100
AcDbEntity
8
0
100
AcDbLine
10
115.78100000000001
20
22.063800000000001
30
0
11
117.50700000000002
21
22.063800000000001
31
0
0
LINE
5
247
100
AcDbEntity
8
0
100
AcDbLine
10
93.10720000000002
20
35.832999999999998
30
0
11
93.10720000000002
21
31.132600000000004
31
0
0
LINE
5
248
100
AcDbEntity
8
0
100
AcDbLine
10
93.10720000000002
20
31.132600000000004
30
0
11
84.438100000000006
21
31.132600000000004
31
0
0
LINE
5
249
100
AcDbEntity
8
0
100
AcDbLine
10
93.10720000000002
20
26.534100000000002
30
0
11
93.10720000000002
21
21.833600000000001
31
0
0
LINE
5
250
100
AcDbEntity
8
0
100
AcDbLine
10
139.59399999999999
20
26.534100000000002
30
0
11
139.59399999999999
21
22.063800000000001
31
0
0
LINE
5
251
100
AcDbEntity
8
0
100
AcDbLine
10
115.78100000000001
20
31.132600000000004
30
0
11
107.10700000000003
21
31.132600000000004
31
0
0
LINE
5
252
100
AcDbEntity
8
0
100
AcDbLine
10
117.50700000000002
20
35.284800000000004
30
0
11
117.50700000000002
21
34.3628
31
0
0
LINE
5
253
100
AcDbEntity
8
0
100
AcDbLine
10
139.59399999999999
20
31.132600000000004
30
0
11
138.06299999999999
21
31.132600000000004
31
0
0
LINE
5
254
100
AcDbEntity
8
0
100
AcDbLine
10
107.10700000000003
20
35.832999999999998
30
0
11
93.10720000000002
21
35.832999999999998
31
0
0
LINE
5
255
100
AcDbEntity
8
0
100
AcDbLine
10
141.31899999999999
20
34.3628
30
0
11
139.59399999999999
21
34.3628
31
0
0
LINE
5
256
100
AcDbEntity
8
0
100
AcDbLine
10
141.31899999999999
20
22.063800000000001
30
0
11
141.31899999999999
21
21.082599999999999
31
0
0
LINE
5
257
100
AcDbEntity
8
0
100
AcDbLine
10
136.93699999999998
20
39.628399999999999
30
0
11
129.79250000000002
21
39.628399999999999
31
0
0
LINE
5
258
100
AcDbEntity
8
0
100
AcDbLine
10
124.06200000000001
20
26.534100000000002
30
0
11
124.06200000000001
21
21.833600000000001
31
0
0
LINE
5
259
100
AcDbEntity
8
0
100
AcDbLine
10
122.53100000000002
20
26.534100000000002
30
0
11
124.06200000000001
21
26.534100000000002
31
0
0
LINE
5
260
100
AcDbEntity
8
0
100
AcDbLine
10
122.53100000000002
20
22.063800000000001
30
0
11
122.53100000000002
21
26.534100000000002
31
0
0
LINE
5
261
100
AcDbEntity
8
0
100
AcDbLine
10
141.31899999999999
20
35.284800000000004
30
0
11
141.31899999999999
21
34.3628
31
0
0
LINE
5
262
100
AcDbEntity
8
0
100
AcDbLine
10
120.807
20
21.082599999999999
30
0
11
120.807
21
22.063800000000001
31
0
0
LINE
5
263
100
AcDbEntity
8
0
100
AcDbLine
10
138.06299999999999
20
26.534100000000002
30
0
11
139.59399999999999
21
26.534100000000002
31
0
0
LINE
5
264
100
AcDbEntity
8
0
100
AcDbLine
10
139.59399999999999
20
22.063800000000001
30
0
11
141.31899999999999
21
22.063800000000001
31
0
0
LINE
5
265
100
AcDbEntity
8
0
100
AcDbLine
10
120.807
20
22.063800000000001
30
0
11
122.53100000000002
21
22.063800000000001
31
0
0
LWPOLYLINE
5
266
100
AcDbEntity
8
0
100
AcDbPolyline
90
13
70
1
43
0.0
10
0.09508460000000038
20
13.257692999999993
10
0.095084599999992747
20
114.55799999999999
10
132.94450000000001
20
114.55799999999999
10
132.94450000000001
20
96.008449999999996
10
123.4195
20
96.008449999999996
10
123.4195
20
75.958449999999999
10
128.18200000000002
20
75.958449999999999
10
128.18200000000002
20
56.908450000000002
10
137.70699999999999
20
56.908450000000002
10
137.70699999999999
20
38.858400000000003
10
130.5625
20
38.858400000000003
10
130.56250000000003
20
0.25769300000000328
10
13.095084599999991
20
0.25769300000000106
0
LWPOLYLINE
5
267
100
AcDbEntity
8
0
100
AcDbPolyline
90
15
70
1
43
0.0
10
285.84500000000008
20
19.308600000000009
10
285.84500000000003
20
114.55799999999999
10
133.94450000000001
20
114.55799999999999
10
133.94450000000001
20
95.008449999999982
10
124.41950000000003
20
95.008449999999982
10
124.41950000000003
20
76.958449999999999
10
129.18200000000002
20
76.958449999999999
10
129.18200000000002
20
57.908450000000002
10
138.70699999999999
20
57.908450000000002
10
138.70699999999999
20
37.858400000000003
10
131.56250000000003
20
37.858400000000003
10
131.56250000000003
20
0.25769300000000328
10
156.65000000000001
20
0.25769300000000328
10
189.6471388542696
20
19.308599999999998
10
208.62263885426955
20
19.308599999999998
0
LINE
5
268
100
AcDbEntity
8
0
100
AcDbLine
10
138.06299999999999
20
35.832999999999998
30
0
11
132.33250000000001
21
35.832999999999998
31
0
0
LINE
5
269
100
AcDbEntity
8
0
100
AcDbLine
10
129.79250000000002
20
35.832999999999998
30
0
11
124.06200000000001
21
35.832999999999998
31
0
0
LINE
5
270
100
AcDbEntity
8
0
100
AcDbLine
10
124.06200000000001
20
21.833600000000001
30
0
11
129.79250000000002
21
21.833600000000001
31
0
0
LINE
5
271
100
AcDbEntity
8
0
100
AcDbLine
10
132.33250000000001
20
21.833600000000001
30
0
11
138.06299999999999
21
21.833600000000001
31
0
0
LINE
5
272
100
AcDbEntity
8
0
100
AcDbLine
10
129.79250000000002
20
39.628399999999999
30
0
11
129.79250000000002
21
35.832999999999998
31
0
0
LINE
5
273
100
AcDbEntity
8
0
100
AcDbLine
10
129.79250000000002
20
21.833600000000001
30
0
11
129.79250000000002
21
0.25769300000000328
31
0
0
LINE
5
274
100
AcDbEntity
8
0
100
AcDbLine
10
132.33250000000001
20
37.088400000000007
30
0
11
132.33250000000001
21
35.832999999999998
31
0
0
LINE
5
275
100
AcDbEntity
8
0
100
AcDbLine
10
132.33250000000001
20
21.833600000000001
30
0
11
132.33250000000004
21
0.25769300000000328
31
0
0
LINE
5
276
100
AcDbEntity
8
0
100
AcDbLine
10
132.17449999999999
20
96.778449999999992
30
0
11
122.6495
21
96.778449999999992
31
0
0
LINE
5
277
100
AcDbEntity
8
0
100
AcDbLine
10
134.71450000000002
20
94.238449999999986
30
0
11
125.18950000000002
21
94.238449999999986
31
0
0
LINE
5
278
100
AcDbEntity
8
0
100
AcDbLine
10
129.79250000000002
20
35.832999999999998
30
0
11
129.79250000000002
21
21.833600000000001
31
0
0
LINE
5
279
100
AcDbEntity
8
0
100
AcDbLine
10
132.33250000000001
20
35.832999999999998
30
0
11
132.33250000000001
21
21.833600000000001
31
0
0
ENDSEC
0
SECTION
2
OBJECTS
0
DICTIONARY
5
C
100
AcDbDictionary
3
ACAD_GROUP
350
D
3
ACAD_MLINESTYLE
350
17
0
DICTIONARY
5
D
100
AcDbDictionary
0
DICTIONARY
5
1A
330
C
100
AcDbDictionary
0
DICTIONARY
5
17
100
AcDbDictionary
0
ENDSEC
0
EOF
