  0
SECTION
  2
HEADER
  9
$ACADVER
  1
AC1009
  9
$EXTMIN
 10
0.0
 20
0.0
 30
0.0
  9
$EXTMAX
 10
1000.0
 20
1000.0
 30
0.0
  9
$FILLMODE
 70
 0
  9
$SPLFRAME
 70
 1
  0
ENDSEC
  0
SECTION
  2
TABLES
  0
TABLE
  2
LAYER
 70
1
  0
LAYER
  2
0
 70
     0
 62
     7
  6
CONTINUOUS
  0
ENDTAB
  0
ENDSEC
  0
SECTION
  2
ENTITIES
  0
LINE
  8
0
 62
     0
 10
0.0950846
 20
114.205
 30
0.0
 11
285.345
 21
114.205
 31
0.0
  0
LINE
  8
0
 62
     0
 10
285.345
 20
114.205
 30
0.0
 11
285.345
 21
0.405144
 31
0.0
  0
LINE
  8
0
 62
     0
 10
285.345
 20
0.405144
 30
0.0
 11
0.0950846
 21
0.405144
 31
0.0
  0
LINE
  8
0
 62
     0
 10
0.0950846
 20
0.405144
 30
0.0
 11
0.0950846
 21
114.205
 31
0.0
  0
LINE
  8
0
 62
     0
 10
135.469
 20
16.932
 30
0.0
 11
152.35
 21
16.932
 31
0.0
  0
LINE
  8
0
 62
     0
 10
152.35
 20
16.932
 30
0.0
 11
152.35
 21
2.43086
 31
0.0
  0
LINE
  8
0
 62
     0
 10
152.35
 20
2.43086
 30
0.0
 11
135.469
 21
2.43086
 31
0.0
  0
LINE
  8
0
 62
     0
 10
135.469
 20
2.43086
 30
0.0
 11
135.469
 21
16.932
 31
0.0
  0
LINE
  8
0
 62
     0
 10
109.276
 20
16.932
 30
0.0
 11
126.157
 21
16.932
 31
0.0
  0
LINE
  8
0
 62
     0
 10
126.157
 20
16.932
 30
0.0
 11
126.157
 21
2.43086
 31
0.0
  0
LINE
  8
0
 62
     0
 10
126.157
 20
2.43086
 30
0.0
 11
109.276
 21
2.43086
 31
0.0
  0
LINE
  8
0
 62
     0
 10
109.276
 20
2.43086
 30
0.0
 11
109.276
 21
16.932
 31
0.0
  0
LINE
  8
0
 62
     0
 10
90.2257
 20
35.9805
 30
0.0
 11
90.2257
 21
31.2801
 31
0.0
  0
LINE
  8
0
 62
     0
 10
90.2257
 20
31.2801
 30
0.0
 11
89.2006
 21
31.2801
 31
0.0
  0
LINE
  8
0
 62
     0
 10
89.2006
 20
31.2801
 30
0.0
 11
89.2006
 21
34.5102
 31
0.0
  0
LINE
  8
0
 62
     0
 10
89.2006
 20
34.5102
 30
0.0
 11
87.4751
 21
34.5102
 31
0.0
  0
LINE
  8
0
 62
     0
 10
87.4751
 20
34.5102
 30
0.0
 11
87.4751
 21
35.4323
 31
0.0
  0
LINE
  8
0
 62
     0
 10
87.4751
 20
35.4323
 30
0.0
 11
83.6757
 21
35.4323
 31
0.0
  0
LINE
  8
0
 62
     0
 10
83.6757
 20
35.4323
 30
0.0
 11
83.6757
 21
34.5102
 31
0.0
  0
LINE
  8
0
 62
     0
 10
83.6757
 20
34.5102
 30
0.0
 11
82.7126
 21
34.5102
 31
0.0
  0
LINE
  8
0
 62
     0
 10
82.7126
 20
34.5102
 30
0.0
 11
82.7126
 21
35.4323
 31
0.0
  0
LINE
  8
0
 62
     0
 10
82.7126
 20
35.4323
 30
0.0
 11
78.9065
 21
35.4323
 31
0.0
  0
LINE
  8
0
 62
     0
 10
78.9065
 20
35.4323
 30
0.0
 11
78.9065
 21
34.5102
 31
0.0
  0
LINE
  8
0
 62
     0
 10
78.9065
 20
34.5102
 30
0.0
 11
77.1811
 21
34.5102
 31
0.0
  0
LINE
  8
0
 62
     0
 10
77.1811
 20
34.5102
 30
0.0
 11
77.1811
 21
31.2801
 31
0.0
  0
LINE
  8
0
 62
     0
 10
77.1811
 20
31.2801
 30
0.0
 11
76.357
 21
31.2801
 31
0.0
  0
LINE
  8
0
 62
     0
 10
76.357
 20
31.2801
 30
0.0
 11
76.357
 21
27.9811
 31
0.0
  0
LINE
  8
0
 62
     0
 10
76.357
 20
27.9811
 30
0.0
 11
77.1811
 21
27.9811
 31
0.0
  0
LINE
  8
0
 62
     0
 10
77.1811
 20
27.9811
 30
0.0
 11
77.1811
 21
21.711
 31
0.0
  0
LINE
  8
0
 62
     0
 10
77.1811
 20
21.711
 30
0.0
 11
78.9065
 21
21.711
 31
0.0
  0
LINE
  8
0
 62
     0
 10
78.9065
 20
21.711
 30
0.0
 11
78.9065
 21
20.7298
 31
0.0
  0
LINE
  8
0
 62
     0
 10
78.9065
 20
20.7298
 30
0.0
 11
82.7126
 21
20.7298
 31
0.0
  0
LINE
  8
0
 62
     0
 10
82.7126
 20
20.7298
 30
0.0
 11
82.7126
 21
21.711
 31
0.0
  0
LINE
  8
0
 62
     0
 10
82.7126
 20
21.711
 30
0.0
 11
83.6757
 21
21.711
 31
0.0
  0
LINE
  8
0
 62
     0
 10
83.6757
 20
21.711
 30
0.0
 11
83.6757
 21
20.7298
 31
0.0
  0
LINE
  8
0
 62
     0
 10
83.6757
 20
20.7298
 30
0.0
 11
87.4751
 21
20.7298
 31
0.0
  0
LINE
  8
0
 62
     0
 10
87.4751
 20
20.7298
 30
0.0
 11
87.4751
 21
21.711
 31
0.0
  0
LINE
  8
0
 62
     0
 10
87.4751
 20
21.711
 30
0.0
 11
89.2006
 21
21.711
 31
0.0
  0
LINE
  8
0
 62
     0
 10
89.2006
 20
21.711
 30
0.0
 11
89.2006
 21
26.1813
 31
0.0
  0
LINE
  8
0
 62
     0
 10
89.2006
 20
26.1813
 30
0.0
 11
90.2257
 21
26.1813
 31
0.0
  0
LINE
  8
0
 62
     0
 10
90.2257
 20
26.1813
 30
0.0
 11
90.2257
 21
21.4809
 31
0.0
  0
LINE
  8
0
 62
     0
 10
90.2257
 20
21.4809
 30
0.0
 11
107.107
 21
21.4809
 31
0.0
  0
LINE
  8
0
 62
     0
 10
107.107
 20
21.4809
 30
0.0
 11
107.107
 21
21.711
 31
0.0
  0
LINE
  8
0
 62
     0
 10
107.107
 20
21.711
 30
0.0
 11
107.476
 21
21.711
 31
0.0
  0
LINE
  8
0
 62
     0
 10
107.476
 20
21.711
 30
0.0
 11
107.476
 21
20.7298
 31
0.0
  0
LINE
  8
0
 62
     0
 10
107.476
 20
20.7298
 30
0.0
 11
111.275
 21
20.7298
 31
0.0
  0
LINE
  8
0
 62
     0
 10
111.275
 20
20.7298
 30
0.0
 11
111.275
 21
21.711
 31
0.0
  0
LINE
  8
0
 62
     0
 10
111.275
 20
21.711
 30
0.0
 11
113
 21
21.711
 31
0.0
  0
LINE
  8
0
 62
     0
 10
113
 20
21.711
 30
0.0
 11
113
 21
26.1813
 31
0.0
  0
LINE
  8
0
 62
     0
 10
113
 20
26.1813
 30
0.0
 11
115.281
 21
26.1813
 31
0.0
  0
LINE
  8
0
 62
     0
 10
115.281
 20
26.1813
 30
0.0
 11
115.281
 21
21.711
 31
0.0
  0
LINE
  8
0
 62
     0
 10
115.281
 20
21.711
 30
0.0
 11
117.007
 21
21.711
 31
0.0
  0
LINE
  8
0
 62
     0
 10
117.007
 20
21.711
 30
0.0
 11
117.007
 21
20.7298
 31
0.0
  0
LINE
  8
0
 62
     0
 10
117.007
 20
20.7298
 30
0.0
 11
120.807
 21
20.7298
 31
0.0
  0
LINE
  8
0
 62
     0
 10
120.807
 20
20.7298
 30
0.0
 11
120.807
 21
21.711
 31
0.0
  0
LINE
  8
0
 62
     0
 10
120.807
 20
21.711
 30
0.0
 11
122.531
 21
21.711
 31
0.0
  0
LINE
  8
0
 62
     0
 10
122.531
 20
21.711
 30
0.0
 11
122.531
 21
26.1813
 31
0.0
  0
LINE
  8
0
 62
     0
 10
122.531
 20
26.1813
 30
0.0
 11
123.562
 21
26.1813
 31
0.0
  0
LINE
  8
0
 62
     0
 10
123.562
 20
26.1813
 30
0.0
 11
123.562
 21
21.4809
 31
0.0
  0
LINE
  8
0
 62
     0
 10
123.562
 20
21.4809
 30
0.0
 11
138.063
 21
21.4809
 31
0.0
  0
LINE
  8
0
 62
     0
 10
138.063
 20
21.4809
 30
0.0
 11
138.063
 21
26.1813
 31
0.0
  0
LINE
  8
0
 62
     0
 10
138.063
 20
26.1813
 30
0.0
 11
139.095
 21
26.1813
 31
0.0
  0
LINE
  8
0
 62
     0
 10
139.095
 20
26.1813
 30
0.0
 11
139.095
 21
21.711
 31
0.0
  0
LINE
  8
0
 62
     0
 10
139.095
 20
21.711
 30
0.0
 11
140.819
 21
21.711
 31
0.0
  0
LINE
  8
0
 62
     0
 10
140.819
 20
21.711
 30
0.0
 11
140.819
 21
20.7298
 31
0.0
  0
LINE
  8
0
 62
     0
 10
140.819
 20
20.7298
 30
0.0
 11
144.619
 21
20.7298
 31
0.0
  0
LINE
  8
0
 62
     0
 10
144.619
 20
20.7298
 30
0.0
 11
144.619
 21
21.711
 31
0.0
  0
LINE
  8
0
 62
     0
 10
144.619
 20
21.711
 30
0.0
 11
146.345
 21
21.711
 31
0.0
  0
LINE
  8
0
 62
     0
 10
146.345
 20
21.711
 30
0.0
 11
146.345
 21
26.1813
 31
0.0
  0
LINE
  8
0
 62
     0
 10
146.345
 20
26.1813
 30
0.0
 11
148.626
 21
26.1813
 31
0.0
  0
LINE
  8
0
 62
     0
 10
148.626
 20
26.1813
 30
0.0
 11
148.626
 21
21.711
 31
0.0
  0
LINE
  8
0
 62
     0
 10
148.626
 20
21.711
 30
0.0
 11
150.351
 21
21.711
 31
0.0
  0
LINE
  8
0
 62
     0
 10
150.351
 20
21.711
 30
0.0
 11
150.351
 21
20.7298
 31
0.0
  0
LINE
  8
0
 62
     0
 10
150.351
 20
20.7298
 30
0.0
 11
154.15
 21
20.7298
 31
0.0
  0
LINE
  8
0
 62
     0
 10
154.15
 20
20.7298
 30
0.0
 11
154.15
 21
21.711
 31
0.0
  0
LINE
  8
0
 62
     0
 10
154.15
 20
21.711
 30
0.0
 11
154.519
 21
21.711
 31
0.0
  0
LINE
  8
0
 62
     0
 10
154.519
 20
21.711
 30
0.0
 11
154.519
 21
21.4809
 31
0.0
  0
LINE
  8
0
 62
     0
 10
154.519
 20
21.4809
 30
0.0
 11
171.4
 21
21.4809
 31
0.0
  0
LINE
  8
0
 62
     0
 10
171.4
 20
21.4809
 30
0.0
 11
171.4
 21
26.1813
 31
0.0
  0
LINE
  8
0
 62
     0
 10
171.4
 20
26.1813
 30
0.0
 11
172.426
 21
26.1813
 31
0.0
  0
LINE
  8
0
 62
     0
 10
172.426
 20
26.1813
 30
0.0
 11
172.426
 21
21.711
 31
0.0
  0
LINE
  8
0
 62
     0
 10
172.426
 20
21.711
 30
0.0
 11
174.151
 21
21.711
 31
0.0
  0
LINE
  8
0
 62
     0
 10
174.151
 20
21.711
 30
0.0
 11
174.151
 21
20.7298
 31
0.0
  0
LINE
  8
0
 62
     0
 10
174.151
 20
20.7298
 30
0.0
 11
177.95
 21
20.7298
 31
0.0
  0
LINE
  8
0
 62
     0
 10
177.95
 20
20.7298
 30
0.0
 11
177.95
 21
21.711
 31
0.0
  0
LINE
  8
0
 62
     0
 10
177.95
 20
21.711
 30
0.0
 11
178.912
 21
21.711
 31
0.0
  0
LINE
  8
0
 62
     0
 10
178.912
 20
21.711
 30
0.0
 11
178.912
 21
20.7298
 31
0.0
  0
LINE
  8
0
 62
     0
 10
178.912
 20
20.7298
 30
0.0
 11
182.719
 21
20.7298
 31
0.0
  0
LINE
  8
0
 62
     0
 10
182.719
 20
20.7298
 30
0.0
 11
182.719
 21
21.711
 31
0.0
  0
LINE
  8
0
 62
     0
 10
182.719
 20
21.711
 30
0.0
 11
184.445
 21
21.711
 31
0.0
  0
LINE
  8
0
 62
     0
 10
184.445
 20
21.711
 30
0.0
 11
184.445
 21
27.9811
 31
0.0
  0
LINE
  8
0
 62
     0
 10
184.445
 20
27.9811
 30
0.0
 11
185.269
 21
27.9811
 31
0.0
  0
LINE
  8
0
 62
     0
 10
185.269
 20
27.9811
 30
0.0
 11
185.269
 21
31.2801
 31
0.0
  0
LINE
  8
0
 62
     0
 10
185.269
 20
31.2801
 30
0.0
 11
184.445
 21
31.2801
 31
0.0
  0
LINE
  8
0
 62
     0
 10
184.445
 20
31.2801
 30
0.0
 11
184.445
 21
34.5102
 31
0.0
  0
LINE
  8
0
 62
     0
 10
184.445
 20
34.5102
 30
0.0
 11
182.719
 21
34.5102
 31
0.0
  0
LINE
  8
0
 62
     0
 10
182.719
 20
34.5102
 30
0.0
 11
182.719
 21
35.4323
 31
0.0
  0
LINE
  8
0
 62
     0
 10
182.719
 20
35.4323
 30
0.0
 11
178.912
 21
35.4323
 31
0.0
  0
LINE
  8
0
 62
     0
 10
178.912
 20
35.4323
 30
0.0
 11
178.912
 21
34.5102
 31
0.0
  0
LINE
  8
0
 62
     0
 10
178.912
 20
34.5102
 30
0.0
 11
177.95
 21
34.5102
 31
0.0
  0
LINE
  8
0
 62
     0
 10
177.95
 20
34.5102
 30
0.0
 11
177.95
 21
35.4323
 31
0.0
  0
LINE
  8
0
 62
     0
 10
177.95
 20
35.4323
 30
0.0
 11
174.151
 21
35.4323
 31
0.0
  0
LINE
  8
0
 62
     0
 10
174.151
 20
35.4323
 30
0.0
 11
174.151
 21
34.5102
 31
0.0
  0
LINE
  8
0
 62
     0
 10
174.151
 20
34.5102
 30
0.0
 11
172.426
 21
34.5102
 31
0.0
  0
LINE
  8
0
 62
     0
 10
172.426
 20
34.5102
 30
0.0
 11
172.426
 21
31.2801
 31
0.0
  0
LINE
  8
0
 62
     0
 10
172.426
 20
31.2801
 30
0.0
 11
171.4
 21
31.2801
 31
0.0
  0
LINE
  8
0
 62
     0
 10
171.4
 20
31.2801
 30
0.0
 11
171.4
 21
35.9805
 31
0.0
  0
LINE
  8
0
 62
     0
 10
171.4
 20
35.9805
 30
0.0
 11
154.519
 21
35.9805
 31
0.0
  0
LINE
  8
0
 62
     0
 10
154.519
 20
35.9805
 30
0.0
 11
154.519
 21
34.5102
 31
0.0
  0
LINE
  8
0
 62
     0
 10
154.519
 20
34.5102
 30
0.0
 11
154.15
 21
34.5102
 31
0.0
  0
LINE
  8
0
 62
     0
 10
154.15
 20
34.5102
 30
0.0
 11
154.15
 21
35.4323
 31
0.0
  0
LINE
  8
0
 62
     0
 10
154.15
 20
35.4323
 30
0.0
 11
150.351
 21
35.4323
 31
0.0
  0
LINE
  8
0
 62
     0
 10
150.351
 20
35.4323
 30
0.0
 11
150.351
 21
34.5102
 31
0.0
  0
LINE
  8
0
 62
     0
 10
150.351
 20
34.5102
 30
0.0
 11
148.626
 21
34.5102
 31
0.0
  0
LINE
  8
0
 62
     0
 10
148.626
 20
34.5102
 30
0.0
 11
148.626
 21
31.2801
 31
0.0
  0
LINE
  8
0
 62
     0
 10
148.626
 20
31.2801
 30
0.0
 11
146.345
 21
31.2801
 31
0.0
  0
LINE
  8
0
 62
     0
 10
146.345
 20
31.2801
 30
0.0
 11
146.345
 21
34.5102
 31
0.0
  0
LINE
  8
0
 62
     0
 10
146.345
 20
34.5102
 30
0.0
 11
144.619
 21
34.5102
 31
0.0
  0
LINE
  8
0
 62
     0
 10
144.619
 20
34.5102
 30
0.0
 11
144.619
 21
35.4323
 31
0.0
  0
LINE
  8
0
 62
     0
 10
144.619
 20
35.4323
 30
0.0
 11
140.819
 21
35.4323
 31
0.0
  0
LINE
  8
0
 62
     0
 10
140.819
 20
35.4323
 30
0.0
 11
140.819
 21
34.5102
 31
0.0
  0
LINE
  8
0
 62
     0
 10
140.819
 20
34.5102
 30
0.0
 11
139.095
 21
34.5102
 31
0.0
  0
LINE
  8
0
 62
     0
 10
139.095
 20
34.5102
 30
0.0
 11
139.095
 21
31.2801
 31
0.0
  0
LINE
  8
0
 62
     0
 10
139.095
 20
31.2801
 30
0.0
 11
138.063
 21
31.2801
 31
0.0
  0
LINE
  8
0
 62
     0
 10
138.063
 20
31.2801
 30
0.0
 11
138.063
 21
35.9805
 31
0.0
  0
LINE
  8
0
 62
     0
 10
138.063
 20
35.9805
 30
0.0
 11
123.562
 21
35.9805
 31
0.0
  0
LINE
  8
0
 62
     0
 10
123.562
 20
35.9805
 30
0.0
 11
123.562
 21
31.2801
 31
0.0
  0
LINE
  8
0
 62
     0
 10
123.562
 20
31.2801
 30
0.0
 11
122.531
 21
31.2801
 31
0.0
  0
LINE
  8
0
 62
     0
 10
122.531
 20
31.2801
 30
0.0
 11
122.531
 21
34.5102
 31
0.0
  0
LINE
  8
0
 62
     0
 10
122.531
 20
34.5102
 30
0.0
 11
120.807
 21
34.5102
 31
0.0
  0
LINE
  8
0
 62
     0
 10
120.807
 20
34.5102
 30
0.0
 11
120.807
 21
35.4323
 31
0.0
  0
LINE
  8
0
 62
     0
 10
120.807
 20
35.4323
 30
0.0
 11
117.007
 21
35.4323
 31
0.0
  0
LINE
  8
0
 62
     0
 10
117.007
 20
35.4323
 30
0.0
 11
117.007
 21
34.5102
 31
0.0
  0
LINE
  8
0
 62
     0
 10
117.007
 20
34.5102
 30
0.0
 11
115.281
 21
34.5102
 31
0.0
  0
LINE
  8
0
 62
     0
 10
115.281
 20
34.5102
 30
0.0
 11
115.281
 21
31.2801
 31
0.0
  0
LINE
  8
0
 62
     0
 10
115.281
 20
31.2801
 30
0.0
 11
113
 21
31.2801
 31
0.0
  0
LINE
  8
0
 62
     0
 10
113
 20
31.2801
 30
0.0
 11
113
 21
34.5102
 31
0.0
  0
LINE
  8
0
 62
     0
 10
113
 20
34.5102
 30
0.0
 11
111.275
 21
34.5102
 31
0.0
  0
LINE
  8
0
 62
     0
 10
111.275
 20
34.5102
 30
0.0
 11
111.275
 21
35.4323
 31
0.0
  0
LINE
  8
0
 62
     0
 10
111.275
 20
35.4323
 30
0.0
 11
107.476
 21
35.4323
 31
0.0
  0
LINE
  8
0
 62
     0
 10
107.476
 20
35.4323
 30
0.0
 11
107.476
 21
34.5102
 31
0.0
  0
LINE
  8
0
 62
     0
 10
107.476
 20
34.5102
 30
0.0
 11
107.107
 21
34.5102
 31
0.0
  0
LINE
  8
0
 62
     0
 10
107.107
 20
34.5102
 30
0.0
 11
107.107
 21
35.9805
 31
0.0
  0
LINE
  8
0
 62
     0
 10
107.107
 20
35.9805
 30
0.0
 11
90.2257
 21
35.9805
 31
0.0
  0
LINE
  8
0
 62
     0
 10
266.438
 20
35.9805
 30
0.0
 11
280.938
 21
35.9805
 31
0.0
  0
LINE
  8
0
 62
     0
 10
280.938
 20
35.9805
 30
0.0
 11
280.938
 21
21.4809
 31
0.0
  0
LINE
  8
0
 62
     0
 10
280.938
 20
21.4809
 30
0.0
 11
266.438
 21
21.4809
 31
0.0
  0
LINE
  8
0
 62
     0
 10
266.438
 20
21.4809
 30
0.0
 11
266.438
 21
35.9805
 31
0.0
  0
LINE
  8
0
 62
     0
 10
242.626
 20
35.9805
 30
0.0
 11
257.125
 21
35.9805
 31
0.0
  0
LINE
  8
0
 62
     0
 10
257.125
 20
35.9805
 30
0.0
 11
257.125
 21
21.4809
 31
0.0
  0
LINE
  8
0
 62
     0
 10
257.125
 20
21.4809
 30
0.0
 11
242.626
 21
21.4809
 31
0.0
  0
LINE
  8
0
 62
     0
 10
242.626
 20
21.4809
 30
0.0
 11
242.626
 21
35.9805
 31
0.0
  0
LINE
  8
0
 62
     0
 10
218.813
 20
35.9805
 30
0.0
 11
233.313
 21
35.9805
 31
0.0
  0
LINE
  8
0
 62
     0
 10
233.313
 20
35.9805
 30
0.0
 11
233.313
 21
21.4809
 31
0.0
  0
LINE
  8
0
 62
     0
 10
233.313
 20
21.4809
 30
0.0
 11
218.813
 21
21.4809
 31
0.0
  0
LINE
  8
0
 62
     0
 10
218.813
 20
21.4809
 30
0.0
 11
218.813
 21
35.9805
 31
0.0
  0
LINE
  8
0
 62
     0
 10
195.001
 20
35.9805
 30
0.0
 11
209.5
 21
35.9805
 31
0.0
  0
LINE
  8
0
 62
     0
 10
209.5
 20
35.9805
 30
0.0
 11
209.5
 21
21.4809
 31
0.0
  0
LINE
  8
0
 62
     0
 10
209.5
 20
21.4809
 30
0.0
 11
195.001
 21
21.4809
 31
0.0
  0
LINE
  8
0
 62
     0
 10
195.001
 20
21.4809
 30
0.0
 11
195.001
 21
35.9805
 31
0.0
  0
LINE
  8
0
 62
     0
 10
52.1257
 20
35.9805
 30
0.0
 11
66.6253
 21
35.9805
 31
0.0
  0
LINE
  8
0
 62
     0
 10
66.6253
 20
35.9805
 30
0.0
 11
66.6253
 21
21.4809
 31
0.0
  0
LINE
  8
0
 62
     0
 10
66.6253
 20
21.4809
 30
0.0
 11
52.1257
 21
21.4809
 31
0.0
  0
LINE
  8
0
 62
     0
 10
52.1257
 20
21.4809
 30
0.0
 11
52.1257
 21
35.9805
 31
0.0
  0
LINE
  8
0
 62
     0
 10
28.3132
 20
35.9805
 30
0.0
 11
42.8128
 21
35.9805
 31
0.0
  0
LINE
  8
0
 62
     0
 10
42.8128
 20
35.9805
 30
0.0
 11
42.8128
 21
21.4809
 31
0.0
  0
LINE
  8
0
 62
     0
 10
42.8128
 20
21.4809
 30
0.0
 11
28.3132
 21
21.4809
 31
0.0
  0
LINE
  8
0
 62
     0
 10
28.3132
 20
21.4809
 30
0.0
 11
28.3132
 21
35.9805
 31
0.0
  0
LINE
  8
0
 62
     0
 10
4.50067
 20
35.9805
 30
0.0
 11
19.0004
 21
35.9805
 31
0.0
  0
LINE
  8
0
 62
     0
 10
19.0004
 20
35.9805
 30
0.0
 11
19.0004
 21
21.4809
 31
0.0
  0
LINE
  8
0
 62
     0
 10
19.0004
 20
21.4809
 30
0.0
 11
4.50067
 21
21.4809
 31
0.0
  0
LINE
  8
0
 62
     0
 10
4.50067
 20
21.4809
 30
0.0
 11
4.50067
 21
35.9805
 31
0.0
  0
LINE
  8
0
 62
     0
 10
252.149
 20
55.0305
 30
0.0
 11
252.149
 21
50.3301
 31
0.0
  0
LINE
  8
0
 62
     0
 10
252.149
 20
50.3301
 30
0.0
 11
251.126
 21
50.3301
 31
0.0
  0
LINE
  8
0
 62
     0
 10
251.126
 20
50.3301
 30
0.0
 11
251.126
 21
53.5601
 31
0.0
  0
LINE
  8
0
 62
     0
 10
251.126
 20
53.5601
 30
0.0
 11
249.4
 21
53.5601
 31
0.0
  0
LINE
  8
0
 62
     0
 10
249.4
 20
53.5601
 30
0.0
 11
249.4
 21
54.4823
 31
0.0
  0
LINE
  8
0
 62
     0
 10
249.4
 20
54.4823
 30
0.0
 11
245.601
 21
54.4823
 31
0.0
  0
LINE
  8
0
 62
     0
 10
245.601
 20
54.4823
 30
0.0
 11
245.601
 21
53.5601
 31
0.0
  0
LINE
  8
0
 62
     0
 10
245.601
 20
53.5601
 30
0.0
 11
243.876
 21
53.5601
 31
0.0
  0
LINE
  8
0
 62
     0
 10
243.876
 20
53.5601
 30
0.0
 11
243.876
 21
50.3301
 31
0.0
  0
LINE
  8
0
 62
     0
 10
243.876
 20
50.3301
 30
0.0
 11
243.05
 21
50.3301
 31
0.0
  0
LINE
  8
0
 62
     0
 10
243.05
 20
50.3301
 30
0.0
 11
243.05
 21
47.0309
 31
0.0
  0
LINE
  8
0
 62
     0
 10
243.05
 20
47.0309
 30
0.0
 11
243.876
 21
47.0309
 31
0.0
  0
LINE
  8
0
 62
     0
 10
243.876
 20
47.0309
 30
0.0
 11
243.876
 21
40.761
 31
0.0
  0
LINE
  8
0
 62
     0
 10
243.876
 20
40.761
 30
0.0
 11
245.601
 21
40.761
 31
0.0
  0
LINE
  8
0
 62
     0
 10
245.601
 20
40.761
 30
0.0
 11
245.601
 21
39.7799
 31
0.0
  0
LINE
  8
0
 62
     0
 10
245.601
 20
39.7799
 30
0.0
 11
249.4
 21
39.7799
 31
0.0
  0
LINE
  8
0
 62
     0
 10
249.4
 20
39.7799
 30
0.0
 11
249.4
 21
40.761
 31
0.0
  0
LINE
  8
0
 62
     0
 10
249.4
 20
40.761
 30
0.0
 11
251.126
 21
40.761
 31
0.0
  0
LINE
  8
0
 62
     0
 10
251.126
 20
40.761
 30
0.0
 11
251.126
 21
45.23
 31
0.0
  0
LINE
  8
0
 62
     0
 10
251.126
 20
45.23
 30
0.0
 11
252.149
 21
45.23
 31
0.0
  0
LINE
  8
0
 62
     0
 10
252.149
 20
45.23
 30
0.0
 11
252.149
 21
40.531
 31
0.0
  0
LINE
  8
0
 62
     0
 10
252.149
 20
40.531
 30
0.0
 11
266.65
 21
40.531
 31
0.0
  0
LINE
  8
0
 62
     0
 10
266.65
 20
40.531
 30
0.0
 11
266.65
 21
45.23
 31
0.0
  0
LINE
  8
0
 62
     0
 10
266.65
 20
45.23
 30
0.0
 11
267.676
 21
45.23
 31
0.0
  0
LINE
  8
0
 62
     0
 10
267.676
 20
45.23
 30
0.0
 11
267.676
 21
40.761
 31
0.0
  0
LINE
  8
0
 62
     0
 10
267.676
 20
40.761
 30
0.0
 11
269.401
 21
40.761
 31
0.0
  0
LINE
  8
0
 62
     0
 10
269.401
 20
40.761
 30
0.0
 11
269.401
 21
39.7799
 31
0.0
  0
LINE
  8
0
 62
     0
 10
269.401
 20
39.7799
 30
0.0
 11
273.2
 21
39.7799
 31
0.0
  0
LINE
  8
0
 62
     0
 10
273.2
 20
39.7799
 30
0.0
 11
273.2
 21
40.761
 31
0.0
  0
LINE
  8
0
 62
     0
 10
273.2
 20
40.761
 30
0.0
 11
274.925
 21
40.761
 31
0.0
  0
LINE
  8
0
 62
     0
 10
274.925
 20
40.761
 30
0.0
 11
274.925
 21
47.0309
 31
0.0
  0
LINE
  8
0
 62
     0
 10
274.925
 20
47.0309
 30
0.0
 11
275.751
 21
47.0309
 31
0.0
  0
LINE
  8
0
 62
     0
 10
275.751
 20
47.0309
 30
0.0
 11
275.751
 21
50.3301
 31
0.0
  0
LINE
  8
0
 62
     0
 10
275.751
 20
50.3301
 30
0.0
 11
274.925
 21
50.3301
 31
0.0
  0
LINE
  8
0
 62
     0
 10
274.925
 20
50.3301
 30
0.0
 11
274.925
 21
53.5601
 31
0.0
  0
LINE
  8
0
 62
     0
 10
274.925
 20
53.5601
 30
0.0
 11
273.2
 21
53.5601
 31
0.0
  0
LINE
  8
0
 62
     0
 10
273.2
 20
53.5601
 30
0.0
 11
273.2
 21
54.4823
 31
0.0
  0
LINE
  8
0
 62
     0
 10
273.2
 20
54.4823
 30
0.0
 11
269.401
 21
54.4823
 31
0.0
  0
LINE
  8
0
 62
     0
 10
269.401
 20
54.4823
 30
0.0
 11
269.401
 21
53.5601
 31
0.0
  0
LINE
  8
0
 62
     0
 10
269.401
 20
53.5601
 30
0.0
 11
267.676
 21
53.5601
 31
0.0
  0
LINE
  8
0
 62
     0
 10
267.676
 20
53.5601
 30
0.0
 11
267.676
 21
50.3301
 31
0.0
  0
LINE
  8
0
 62
     0
 10
267.676
 20
50.3301
 30
0.0
 11
266.65
 21
50.3301
 31
0.0
  0
LINE
  8
0
 62
     0
 10
266.65
 20
50.3301
 30
0.0
 11
266.65
 21
55.0305
 31
0.0
  0
LINE
  8
0
 62
     0
 10
266.65
 20
55.0305
 30
0.0
 11
252.149
 21
55.0305
 31
0.0
  0
LINE
  8
0
 62
     0
 10
14.0257
 20
55.0305
 30
0.0
 11
14.0257
 21
50.3301
 31
0.0
  0
LINE
  8
0
 62
     0
 10
14.0257
 20
50.3301
 30
0.0
 11
13.0004
 21
50.3301
 31
0.0
  0
LINE
  8
0
 62
     0
 10
13.0004
 20
50.3301
 30
0.0
 11
13.0004
 21
53.5601
 31
0.0
  0
LINE
  8
0
 62
     0
 10
13.0004
 20
53.5601
 30
0.0
 11
11.2751
 21
53.5601
 31
0.0
  0
LINE
  8
0
 62
     0
 10
11.2751
 20
53.5601
 30
0.0
 11
11.2751
 21
54.4823
 31
0.0
  0
LINE
  8
0
 62
     0
 10
11.2751
 20
54.4823
 30
0.0
 11
7.47586
 21
54.4823
 31
0.0
  0
LINE
  8
0
 62
     0
 10
7.47586
 20
54.4823
 30
0.0
 11
7.47586
 21
53.5601
 31
0.0
  0
LINE
  8
0
 62
     0
 10
7.47586
 20
53.5601
 30
0.0
 11
5.75056
 21
53.5601
 31
0.0
  0
LINE
  8
0
 62
     0
 10
5.75056
 20
53.5601
 30
0.0
 11
5.75056
 21
50.3301
 31
0.0
  0
LINE
  8
0
 62
     0
 10
5.75056
 20
50.3301
 30
0.0
 11
4.9251
 21
50.3301
 31
0.0
  0
LINE
  8
0
 62
     0
 10
4.9251
 20
50.3301
 30
0.0
 11
4.9251
 21
47.0309
 31
0.0
  0
LINE
  8
0
 62
     0
 10
4.9251
 20
47.0309
 30
0.0
 11
5.75056
 21
47.0309
 31
0.0
  0
LINE
  8
0
 62
     0
 10
5.75056
 20
47.0309
 30
0.0
 11
5.75056
 21
40.761
 31
0.0
  0
LINE
  8
0
 62
     0
 10
5.75056
 20
40.761
 30
0.0
 11
7.47586
 21
40.761
 31
0.0
  0
LINE
  8
0
 62
     0
 10
7.47586
 20
40.761
 30
0.0
 11
7.47586
 21
39.7799
 31
0.0
  0
LINE
  8
0
 62
     0
 10
7.47586
 20
39.7799
 30
0.0
 11
11.2751
 21
39.7799
 31
0.0
  0
LINE
  8
0
 62
     0
 10
11.2751
 20
39.7799
 30
0.0
 11
11.2751
 21
40.761
 31
0.0
  0
LINE
  8
0
 62
     0
 10
11.2751
 20
40.761
 30
0.0
 11
13.0004
 21
40.761
 31
0.0
  0
LINE
  8
0
 62
     0
 10
13.0004
 20
40.761
 30
0.0
 11
13.0004
 21
45.23
 31
0.0
  0
LINE
  8
0
 62
     0
 10
13.0004
 20
45.23
 30
0.0
 11
14.0257
 21
45.23
 31
0.0
  0
LINE
  8
0
 62
     0
 10
14.0257
 20
45.23
 30
0.0
 11
14.0257
 21
40.531
 31
0.0
  0
LINE
  8
0
 62
     0
 10
14.0257
 20
40.531
 30
0.0
 11
28.5254
 21
40.531
 31
0.0
  0
LINE
  8
0
 62
     0
 10
28.5254
 20
40.531
 30
0.0
 11
28.5254
 21
45.23
 31
0.0
  0
LINE
  8
0
 62
     0
 10
28.5254
 20
45.23
 30
0.0
 11
29.5506
 21
45.23
 31
0.0
  0
LINE
  8
0
 62
     0
 10
29.5506
 20
45.23
 30
0.0
 11
29.5506
 21
40.761
 31
0.0
  0
LINE
  8
0
 62
     0
 10
29.5506
 20
40.761
 30
0.0
 11
31.276
 21
40.761
 31
0.0
  0
LINE
  8
0
 62
     0
 10
31.276
 20
40.761
 30
0.0
 11
31.276
 21
39.7799
 31
0.0
  0
LINE
  8
0
 62
     0
 10
31.276
 20
39.7799
 30
0.0
 11
35.0752
 21
39.7799
 31
0.0
  0
LINE
  8
0
 62
     0
 10
35.0752
 20
39.7799
 30
0.0
 11
35.0752
 21
40.761
 31
0.0
  0
LINE
  8
0
 62
     0
 10
35.0752
 20
40.761
 30
0.0
 11
36.8004
 21
40.761
 31
0.0
  0
LINE
  8
0
 62
     0
 10
36.8004
 20
40.761
 30
0.0
 11
36.8004
 21
47.0309
 31
0.0
  0
LINE
  8
0
 62
     0
 10
36.8004
 20
47.0309
 30
0.0
 11
37.6259
 21
47.0309
 31
0.0
  0
LINE
  8
0
 62
     0
 10
37.6259
 20
47.0309
 30
0.0
 11
37.6259
 21
50.3301
 31
0.0
  0
LINE
  8
0
 62
     0
 10
37.6259
 20
50.3301
 30
0.0
 11
36.8004
 21
50.3301
 31
0.0
  0
LINE
  8
0
 62
     0
 10
36.8004
 20
50.3301
 30
0.0
 11
36.8004
 21
53.5601
 31
0.0
  0
LINE
  8
0
 62
     0
 10
36.8004
 20
53.5601
 30
0.0
 11
35.0752
 21
53.5601
 31
0.0
  0
LINE
  8
0
 62
     0
 10
35.0752
 20
53.5601
 30
0.0
 11
35.0752
 21
54.4823
 31
0.0
  0
LINE
  8
0
 62
     0
 10
35.0752
 20
54.4823
 30
0.0
 11
31.276
 21
54.4823
 31
0.0
  0
LINE
  8
0
 62
     0
 10
31.276
 20
54.4823
 30
0.0
 11
31.276
 21
53.5601
 31
0.0
  0
LINE
  8
0
 62
     0
 10
31.276
 20
53.5601
 30
0.0
 11
29.5506
 21
53.5601
 31
0.0
  0
LINE
  8
0
 62
     0
 10
29.5506
 20
53.5601
 30
0.0
 11
29.5506
 21
50.3301
 31
0.0
  0
LINE
  8
0
 62
     0
 10
29.5506
 20
50.3301
 30
0.0
 11
28.5254
 21
50.3301
 31
0.0
  0
LINE
  8
0
 62
     0
 10
28.5254
 20
50.3301
 30
0.0
 11
28.5254
 21
55.0305
 31
0.0
  0
LINE
  8
0
 62
     0
 10
28.5254
 20
55.0305
 30
0.0
 11
14.0257
 21
55.0305
 31
0.0
  0
LINE
  8
0
 62
     0
 10
216.432
 20
55.0305
 30
0.0
 11
230.932
 21
55.0305
 31
0.0
  0
LINE
  8
0
 62
     0
 10
230.932
 20
55.0305
 30
0.0
 11
230.932
 21
40.531
 31
0.0
  0
LINE
  8
0
 62
     0
 10
230.932
 20
40.531
 30
0.0
 11
216.432
 21
40.531
 31
0.0
  0
LINE
  8
0
 62
     0
 10
216.432
 20
40.531
 30
0.0
 11
216.432
 21
55.0305
 31
0.0
  0
LINE
  8
0
 62
     0
 10
197.382
 20
55.0305
 30
0.0
 11
211.882
 21
55.0305
 31
0.0
  0
LINE
  8
0
 62
     0
 10
211.882
 20
55.0305
 30
0.0
 11
211.882
 21
40.531
 31
0.0
  0
LINE
  8
0
 62
     0
 10
211.882
 20
40.531
 30
0.0
 11
197.382
 21
40.531
 31
0.0
  0
LINE
  8
0
 62
     0
 10
197.382
 20
40.531
 30
0.0
 11
197.382
 21
55.0305
 31
0.0
  0
LINE
  8
0
 62
     0
 10
178.332
 20
55.0305
 30
0.0
 11
192.832
 21
55.0305
 31
0.0
  0
LINE
  8
0
 62
     0
 10
192.832
 20
55.0305
 30
0.0
 11
192.832
 21
40.531
 31
0.0
  0
LINE
  8
0
 62
     0
 10
192.832
 20
40.531
 30
0.0
 11
178.332
 21
40.531
 31
0.0
  0
LINE
  8
0
 62
     0
 10
178.332
 20
40.531
 30
0.0
 11
178.332
 21
55.0305
 31
0.0
  0
LINE
  8
0
 62
     0
 10
159.282
 20
55.0305
 30
0.0
 11
173.782
 21
55.0305
 31
0.0
  0
LINE
  8
0
 62
     0
 10
173.782
 20
55.0305
 30
0.0
 11
173.782
 21
40.531
 31
0.0
  0
LINE
  8
0
 62
     0
 10
173.782
 20
40.531
 30
0.0
 11
159.282
 21
40.531
 31
0.0
  0
LINE
  8
0
 62
     0
 10
159.282
 20
40.531
 30
0.0
 11
159.282
 21
55.0305
 31
0.0
  0
LINE
  8
0
 62
     0
 10
140.232
 20
55.0305
 30
0.0
 11
154.732
 21
55.0305
 31
0.0
  0
LINE
  8
0
 62
     0
 10
154.732
 20
55.0305
 30
0.0
 11
154.732
 21
40.531
 31
0.0
  0
LINE
  8
0
 62
     0
 10
154.732
 20
40.531
 30
0.0
 11
140.232
 21
40.531
 31
0.0
  0
LINE
  8
0
 62
     0
 10
140.232
 20
40.531
 30
0.0
 11
140.232
 21
55.0305
 31
0.0
  0
LINE
  8
0
 62
     0
 10
121.182
 20
55.0305
 30
0.0
 11
135.682
 21
55.0305
 31
0.0
  0
LINE
  8
0
 62
     0
 10
135.682
 20
55.0305
 30
0.0
 11
135.682
 21
40.531
 31
0.0
  0
LINE
  8
0
 62
     0
 10
135.682
 20
40.531
 30
0.0
 11
121.182
 21
40.531
 31
0.0
  0
LINE
  8
0
 62
     0
 10
121.182
 20
40.531
 30
0.0
 11
121.182
 21
55.0305
 31
0.0
  0
LINE
  8
0
 62
     0
 10
102.132
 20
55.0305
 30
0.0
 11
116.632
 21
55.0305
 31
0.0
  0
LINE
  8
0
 62
     0
 10
116.632
 20
55.0305
 30
0.0
 11
116.632
 21
40.531
 31
0.0
  0
LINE
  8
0
 62
     0
 10
116.632
 20
40.531
 30
0.0
 11
102.132
 21
40.531
 31
0.0
  0
LINE
  8
0
 62
     0
 10
102.132
 20
40.531
 30
0.0
 11
102.132
 21
55.0305
 31
0.0
  0
LINE
  8
0
 62
     0
 10
83.082
 20
55.0305
 30
0.0
 11
97.5815
 21
55.0305
 31
0.0
  0
LINE
  8
0
 62
     0
 10
97.5815
 20
55.0305
 30
0.0
 11
97.5815
 21
40.531
 31
0.0
  0
LINE
  8
0
 62
     0
 10
97.5815
 20
40.531
 30
0.0
 11
83.082
 21
40.531
 31
0.0
  0
LINE
  8
0
 62
     0
 10
83.082
 20
40.531
 30
0.0
 11
83.082
 21
55.0305
 31
0.0
  0
LINE
  8
0
 62
     0
 10
64.032
 20
55.0305
 30
0.0
 11
78.5315
 21
55.0305
 31
0.0
  0
LINE
  8
0
 62
     0
 10
78.5315
 20
55.0305
 30
0.0
 11
78.5315
 21
40.531
 31
0.0
  0
LINE
  8
0
 62
     0
 10
78.5315
 20
40.531
 30
0.0
 11
64.032
 21
40.531
 31
0.0
  0
LINE
  8
0
 62
     0
 10
64.032
 20
40.531
 30
0.0
 11
64.032
 21
55.0305
 31
0.0
  0
LINE
  8
0
 62
     0
 10
44.982
 20
55.0305
 30
0.0
 11
59.4815
 21
55.0305
 31
0.0
  0
LINE
  8
0
 62
     0
 10
59.4815
 20
55.0305
 30
0.0
 11
59.4815
 21
40.531
 31
0.0
  0
LINE
  8
0
 62
     0
 10
59.4815
 20
40.531
 30
0.0
 11
44.982
 21
40.531
 31
0.0
  0
LINE
  8
0
 62
     0
 10
44.982
 20
40.531
 30
0.0
 11
44.982
 21
55.0305
 31
0.0
  0
LINE
  8
0
 62
     0
 10
256.912
 20
74.0805
 30
0.0
 11
256.912
 21
69.3801
 31
0.0
  0
LINE
  8
0
 62
     0
 10
256.912
 20
69.3801
 30
0.0
 11
255.888
 21
69.3801
 31
0.0
  0
LINE
  8
0
 62
     0
 10
255.888
 20
69.3801
 30
0.0
 11
255.888
 21
72.6101
 31
0.0
  0
LINE
  8
0
 62
     0
 10
255.888
 20
72.6101
 30
0.0
 11
254.161
 21
72.6101
 31
0.0
  0
LINE
  8
0
 62
     0
 10
254.161
 20
72.6101
 30
0.0
 11
254.161
 21
73.5309
 31
0.0
  0
LINE
  8
0
 62
     0
 10
254.161
 20
73.5309
 30
0.0
 11
250.362
 21
73.5309
 31
0.0
  0
LINE
  8
0
 62
     0
 10
250.362
 20
73.5309
 30
0.0
 11
250.362
 21
72.6101
 31
0.0
  0
LINE
  8
0
 62
     0
 10
250.362
 20
72.6101
 30
0.0
 11
248.638
 21
72.6101
 31
0.0
  0
LINE
  8
0
 62
     0
 10
248.638
 20
72.6101
 30
0.0
 11
248.638
 21
69.3801
 31
0.0
  0
LINE
  8
0
 62
     0
 10
248.638
 20
69.3801
 30
0.0
 11
247.813
 21
69.3801
 31
0.0
  0
LINE
  8
0
 62
     0
 10
247.813
 20
69.3801
 30
0.0
 11
247.813
 21
66.0809
 31
0.0
  0
LINE
  8
0
 62
     0
 10
247.813
 20
66.0809
 30
0.0
 11
248.638
 21
66.0809
 31
0.0
  0
LINE
  8
0
 62
     0
 10
248.638
 20
66.0809
 30
0.0
 11
248.638
 21
59.811
 31
0.0
  0
LINE
  8
0
 62
     0
 10
248.638
 20
59.811
 30
0.0
 11
250.362
 21
59.811
 31
0.0
  0
LINE
  8
0
 62
     0
 10
250.362
 20
59.811
 30
0.0
 11
250.362
 21
58.8299
 31
0.0
  0
LINE
  8
0
 62
     0
 10
250.362
 20
58.8299
 30
0.0
 11
254.161
 21
58.8299
 31
0.0
  0
LINE
  8
0
 62
     0
 10
254.161
 20
58.8299
 30
0.0
 11
254.161
 21
59.811
 31
0.0
  0
LINE
  8
0
 62
     0
 10
254.161
 20
59.811
 30
0.0
 11
255.888
 21
59.811
 31
0.0
  0
LINE
  8
0
 62
     0
 10
255.888
 20
59.811
 30
0.0
 11
255.888
 21
64.28
 31
0.0
  0
LINE
  8
0
 62
     0
 10
255.888
 20
64.28
 30
0.0
 11
256.912
 21
64.28
 31
0.0
  0
LINE
  8
0
 62
     0
 10
256.912
 20
64.28
 30
0.0
 11
256.912
 21
59.581
 31
0.0
  0
LINE
  8
0
 62
     0
 10
256.912
 20
59.581
 30
0.0
 11
271.413
 21
59.581
 31
0.0
  0
LINE
  8
0
 62
     0
 10
271.413
 20
59.581
 30
0.0
 11
271.413
 21
64.28
 31
0.0
  0
LINE
  8
0
 62
     0
 10
271.413
 20
64.28
 30
0.0
 11
272.438
 21
64.28
 31
0.0
  0
LINE
  8
0
 62
     0
 10
272.438
 20
64.28
 30
0.0
 11
272.438
 21
59.811
 31
0.0
  0
LINE
  8
0
 62
     0
 10
272.438
 20
59.811
 30
0.0
 11
274.162
 21
59.811
 31
0.0
  0
LINE
  8
0
 62
     0
 10
274.162
 20
59.811
 30
0.0
 11
274.162
 21
58.8299
 31
0.0
  0
LINE
  8
0
 62
     0
 10
274.162
 20
58.8299
 30
0.0
 11
277.963
 21
58.8299
 31
0.0
  0
LINE
  8
0
 62
     0
 10
277.963
 20
58.8299
 30
0.0
 11
277.963
 21
59.811
 31
0.0
  0
LINE
  8
0
 62
     0
 10
277.963
 20
59.811
 30
0.0
 11
279.688
 21
59.811
 31
0.0
  0
LINE
  8
0
 62
     0
 10
279.688
 20
59.811
 30
0.0
 11
279.688
 21
66.0809
 31
0.0
  0
LINE
  8
0
 62
     0
 10
279.688
 20
66.0809
 30
0.0
 11
280.512
 21
66.0809
 31
0.0
  0
LINE
  8
0
 62
     0
 10
280.512
 20
66.0809
 30
0.0
 11
280.512
 21
69.3801
 31
0.0
  0
LINE
  8
0
 62
     0
 10
280.512
 20
69.3801
 30
0.0
 11
279.688
 21
69.3801
 31
0.0
  0
LINE
  8
0
 62
     0
 10
279.688
 20
69.3801
 30
0.0
 11
279.688
 21
72.6101
 31
0.0
  0
LINE
  8
0
 62
     0
 10
279.688
 20
72.6101
 30
0.0
 11
277.963
 21
72.6101
 31
0.0
  0
LINE
  8
0
 62
     0
 10
277.963
 20
72.6101
 30
0.0
 11
277.963
 21
73.5309
 31
0.0
  0
LINE
  8
0
 62
     0
 10
277.963
 20
73.5309
 30
0.0
 11
274.162
 21
73.5309
 31
0.0
  0
LINE
  8
0
 62
     0
 10
274.162
 20
73.5309
 30
0.0
 11
274.162
 21
72.6101
 31
0.0
  0
LINE
  8
0
 62
     0
 10
274.162
 20
72.6101
 30
0.0
 11
272.438
 21
72.6101
 31
0.0
  0
LINE
  8
0
 62
     0
 10
272.438
 20
72.6101
 30
0.0
 11
272.438
 21
69.3801
 31
0.0
  0
LINE
  8
0
 62
     0
 10
272.438
 20
69.3801
 30
0.0
 11
271.413
 21
69.3801
 31
0.0
  0
LINE
  8
0
 62
     0
 10
271.413
 20
69.3801
 30
0.0
 11
271.413
 21
74.0805
 31
0.0
  0
LINE
  8
0
 62
     0
 10
271.413
 20
74.0805
 30
0.0
 11
256.912
 21
74.0805
 31
0.0
  0
LINE
  8
0
 62
     0
 10
225.957
 20
74.0805
 30
0.0
 11
240.457
 21
74.0805
 31
0.0
  0
LINE
  8
0
 62
     0
 10
240.457
 20
74.0805
 30
0.0
 11
240.457
 21
59.581
 31
0.0
  0
LINE
  8
0
 62
     0
 10
240.457
 20
59.581
 30
0.0
 11
225.957
 21
59.581
 31
0.0
  0
LINE
  8
0
 62
     0
 10
225.957
 20
59.581
 30
0.0
 11
225.957
 21
74.0805
 31
0.0
  0
LINE
  8
0
 62
     0
 10
206.907
 20
74.0805
 30
0.0
 11
221.407
 21
74.0805
 31
0.0
  0
LINE
  8
0
 62
     0
 10
221.407
 20
74.0805
 30
0.0
 11
221.407
 21
59.581
 31
0.0
  0
LINE
  8
0
 62
     0
 10
221.407
 20
59.581
 30
0.0
 11
206.907
 21
59.581
 31
0.0
  0
LINE
  8
0
 62
     0
 10
206.907
 20
59.581
 30
0.0
 11
206.907
 21
74.0805
 31
0.0
  0
LINE
  8
0
 62
     0
 10
187.857
 20
74.0805
 30
0.0
 11
202.357
 21
74.0805
 31
0.0
  0
LINE
  8
0
 62
     0
 10
202.357
 20
74.0805
 30
0.0
 11
202.357
 21
59.581
 31
0.0
  0
LINE
  8
0
 62
     0
 10
202.357
 20
59.581
 30
0.0
 11
187.857
 21
59.581
 31
0.0
  0
LINE
  8
0
 62
     0
 10
187.857
 20
59.581
 30
0.0
 11
187.857
 21
74.0805
 31
0.0
  0
LINE
  8
0
 62
     0
 10
168.807
 20
74.0805
 30
0.0
 11
183.307
 21
74.0805
 31
0.0
  0
LINE
  8
0
 62
     0
 10
183.307
 20
74.0805
 30
0.0
 11
183.307
 21
59.581
 31
0.0
  0
LINE
  8
0
 62
     0
 10
183.307
 20
59.581
 30
0.0
 11
168.807
 21
59.581
 31
0.0
  0
LINE
  8
0
 62
     0
 10
168.807
 20
59.581
 30
0.0
 11
168.807
 21
74.0805
 31
0.0
  0
LINE
  8
0
 62
     0
 10
149.757
 20
74.0805
 30
0.0
 11
164.257
 21
74.0805
 31
0.0
  0
LINE
  8
0
 62
     0
 10
164.257
 20
74.0805
 30
0.0
 11
164.257
 21
59.581
 31
0.0
  0
LINE
  8
0
 62
     0
 10
164.257
 20
59.581
 30
0.0
 11
149.757
 21
59.581
 31
0.0
  0
LINE
  8
0
 62
     0
 10
149.757
 20
59.581
 30
0.0
 11
149.757
 21
74.0805
 31
0.0
  0
LINE
  8
0
 62
     0
 10
130.707
 20
74.0805
 30
0.0
 11
145.207
 21
74.0805
 31
0.0
  0
LINE
  8
0
 62
     0
 10
145.207
 20
74.0805
 30
0.0
 11
145.207
 21
59.581
 31
0.0
  0
LINE
  8
0
 62
     0
 10
145.207
 20
59.581
 30
0.0
 11
130.707
 21
59.581
 31
0.0
  0
LINE
  8
0
 62
     0
 10
130.707
 20
59.581
 30
0.0
 11
130.707
 21
74.0805
 31
0.0
  0
LINE
  8
0
 62
     0
 10
111.657
 20
74.0805
 30
0.0
 11
126.157
 21
74.0805
 31
0.0
  0
LINE
  8
0
 62
     0
 10
126.157
 20
74.0805
 30
0.0
 11
126.157
 21
59.581
 31
0.0
  0
LINE
  8
0
 62
     0
 10
126.157
 20
59.581
 30
0.0
 11
111.657
 21
59.581
 31
0.0
  0
LINE
  8
0
 62
     0
 10
111.657
 20
59.581
 30
0.0
 11
111.657
 21
74.0805
 31
0.0
  0
LINE
  8
0
 62
     0
 10
92.607
 20
74.0805
 30
0.0
 11
107.107
 21
74.0805
 31
0.0
  0
LINE
  8
0
 62
     0
 10
107.107
 20
74.0805
 30
0.0
 11
107.107
 21
59.581
 31
0.0
  0
LINE
  8
0
 62
     0
 10
107.107
 20
59.581
 30
0.0
 11
92.607
 21
59.581
 31
0.0
  0
LINE
  8
0
 62
     0
 10
92.607
 20
59.581
 30
0.0
 11
92.607
 21
74.0805
 31
0.0
  0
LINE
  8
0
 62
     0
 10
73.557
 20
74.0805
 30
0.0
 11
88.0565
 21
74.0805
 31
0.0
  0
LINE
  8
0
 62
     0
 10
88.0565
 20
74.0805
 30
0.0
 11
88.0565
 21
59.581
 31
0.0
  0
LINE
  8
0
 62
     0
 10
88.0565
 20
59.581
 30
0.0
 11
73.557
 21
59.581
 31
0.0
  0
LINE
  8
0
 62
     0
 10
73.557
 20
59.581
 30
0.0
 11
73.557
 21
74.0805
 31
0.0
  0
LINE
  8
0
 62
     0
 10
54.507
 20
74.0805
 30
0.0
 11
69.0065
 21
74.0805
 31
0.0
  0
LINE
  8
0
 62
     0
 10
69.0065
 20
74.0805
 30
0.0
 11
69.0065
 21
59.581
 31
0.0
  0
LINE
  8
0
 62
     0
 10
69.0065
 20
59.581
 30
0.0
 11
54.507
 21
59.581
 31
0.0
  0
LINE
  8
0
 62
     0
 10
54.507
 20
59.581
 30
0.0
 11
54.507
 21
74.0805
 31
0.0
  0
LINE
  8
0
 62
     0
 10
35.457
 20
74.0805
 30
0.0
 11
49.9565
 21
74.0805
 31
0.0
  0
LINE
  8
0
 62
     0
 10
49.9565
 20
74.0805
 30
0.0
 11
49.9565
 21
59.581
 31
0.0
  0
LINE
  8
0
 62
     0
 10
49.9565
 20
59.581
 30
0.0
 11
35.457
 21
59.581
 31
0.0
  0
LINE
  8
0
 62
     0
 10
35.457
 20
59.581
 30
0.0
 11
35.457
 21
74.0805
 31
0.0
  0
LINE
  8
0
 62
     0
 10
9.26317
 20
74.0805
 30
0.0
 11
23.7629
 21
74.0805
 31
0.0
  0
LINE
  8
0
 62
     0
 10
23.7629
 20
74.0805
 30
0.0
 11
23.7629
 21
59.581
 31
0.0
  0
LINE
  8
0
 62
     0
 10
23.7629
 20
59.581
 30
0.0
 11
9.26317
 21
59.581
 31
0.0
  0
LINE
  8
0
 62
     0
 10
9.26317
 20
59.581
 30
0.0
 11
9.26317
 21
74.0805
 31
0.0
  0
LINE
  8
0
 62
     0
 10
264.057
 20
93.1305
 30
0.0
 11
278.557
 21
93.1305
 31
0.0
  0
LINE
  8
0
 62
     0
 10
278.557
 20
93.1305
 30
0.0
 11
278.557
 21
78.631
 31
0.0
  0
LINE
  8
0
 62
     0
 10
278.557
 20
78.631
 30
0.0
 11
264.057
 21
78.631
 31
0.0
  0
LINE
  8
0
 62
     0
 10
264.057
 20
78.631
 30
0.0
 11
264.057
 21
93.1305
 31
0.0
  0
LINE
  8
0
 62
     0
 10
240.244
 20
93.1305
 30
0.0
 11
254.744
 21
93.1305
 31
0.0
  0
LINE
  8
0
 62
     0
 10
254.744
 20
93.1305
 30
0.0
 11
254.744
 21
78.631
 31
0.0
  0
LINE
  8
0
 62
     0
 10
254.744
 20
78.631
 30
0.0
 11
240.244
 21
78.631
 31
0.0
  0
LINE
  8
0
 62
     0
 10
240.244
 20
78.631
 30
0.0
 11
240.244
 21
93.1305
 31
0.0
  0
LINE
  8
0
 62
     0
 10
221.194
 20
93.1305
 30
0.0
 11
235.694
 21
93.1305
 31
0.0
  0
LINE
  8
0
 62
     0
 10
235.694
 20
93.1305
 30
0.0
 11
235.694
 21
78.631
 31
0.0
  0
LINE
  8
0
 62
     0
 10
235.694
 20
78.631
 30
0.0
 11
221.194
 21
78.631
 31
0.0
  0
LINE
  8
0
 62
     0
 10
221.194
 20
78.631
 30
0.0
 11
221.194
 21
93.1305
 31
0.0
  0
LINE
  8
0
 62
     0
 10
202.144
 20
93.1305
 30
0.0
 11
216.644
 21
93.1305
 31
0.0
  0
LINE
  8
0
 62
     0
 10
216.644
 20
93.1305
 30
0.0
 11
216.644
 21
78.631
 31
0.0
  0
LINE
  8
0
 62
     0
 10
216.644
 20
78.631
 30
0.0
 11
202.144
 21
78.631
 31
0.0
  0
LINE
  8
0
 62
     0
 10
202.144
 20
78.631
 30
0.0
 11
202.144
 21
93.1305
 31
0.0
  0
LINE
  8
0
 62
     0
 10
183.094
 20
93.1305
 30
0.0
 11
197.594
 21
93.1305
 31
0.0
  0
LINE
  8
0
 62
     0
 10
197.594
 20
93.1305
 30
0.0
 11
197.594
 21
78.631
 31
0.0
  0
LINE
  8
0
 62
     0
 10
197.594
 20
78.631
 30
0.0
 11
183.094
 21
78.631
 31
0.0
  0
LINE
  8
0
 62
     0
 10
183.094
 20
78.631
 30
0.0
 11
183.094
 21
93.1305
 31
0.0
  0
LINE
  8
0
 62
     0
 10
164.044
 20
93.1305
 30
0.0
 11
178.544
 21
93.1305
 31
0.0
  0
LINE
  8
0
 62
     0
 10
178.544
 20
93.1305
 30
0.0
 11
178.544
 21
78.631
 31
0.0
  0
LINE
  8
0
 62
     0
 10
178.544
 20
78.631
 30
0.0
 11
164.044
 21
78.631
 31
0.0
  0
LINE
  8
0
 62
     0
 10
164.044
 20
78.631
 30
0.0
 11
164.044
 21
93.1305
 31
0.0
  0
LINE
  8
0
 62
     0
 10
144.994
 20
93.1305
 30
0.0
 11
159.494
 21
93.1305
 31
0.0
  0
LINE
  8
0
 62
     0
 10
159.494
 20
93.1305
 30
0.0
 11
159.494
 21
78.631
 31
0.0
  0
LINE
  8
0
 62
     0
 10
159.494
 20
78.631
 30
0.0
 11
144.994
 21
78.631
 31
0.0
  0
LINE
  8
0
 62
     0
 10
144.994
 20
78.631
 30
0.0
 11
144.994
 21
93.1305
 31
0.0
  0
LINE
  8
0
 62
     0
 10
125.944
 20
93.1305
 30
0.0
 11
140.444
 21
93.1305
 31
0.0
  0
LINE
  8
0
 62
     0
 10
140.444
 20
93.1305
 30
0.0
 11
140.444
 21
78.631
 31
0.0
  0
LINE
  8
0
 62
     0
 10
140.444
 20
78.631
 30
0.0
 11
125.944
 21
78.631
 31
0.0
  0
LINE
  8
0
 62
     0
 10
125.944
 20
78.631
 30
0.0
 11
125.944
 21
93.1305
 31
0.0
  0
LINE
  8
0
 62
     0
 10
106.894
 20
93.1305
 30
0.0
 11
121.394
 21
93.1305
 31
0.0
  0
LINE
  8
0
 62
     0
 10
121.394
 20
93.1305
 30
0.0
 11
121.394
 21
78.631
 31
0.0
  0
LINE
  8
0
 62
     0
 10
121.394
 20
78.631
 30
0.0
 11
106.894
 21
78.631
 31
0.0
  0
LINE
  8
0
 62
     0
 10
106.894
 20
78.631
 30
0.0
 11
106.894
 21
93.1305
 31
0.0
  0
LINE
  8
0
 62
     0
 10
87.8445
 20
93.1305
 30
0.0
 11
102.344
 21
93.1305
 31
0.0
  0
LINE
  8
0
 62
     0
 10
102.344
 20
93.1305
 30
0.0
 11
102.344
 21
78.631
 31
0.0
  0
LINE
  8
0
 62
     0
 10
102.344
 20
78.631
 30
0.0
 11
87.8445
 21
78.631
 31
0.0
  0
LINE
  8
0
 62
     0
 10
87.8445
 20
78.631
 30
0.0
 11
87.8445
 21
93.1305
 31
0.0
  0
LINE
  8
0
 62
     0
 10
68.7945
 20
93.1305
 30
0.0
 11
83.294
 21
93.1305
 31
0.0
  0
LINE
  8
0
 62
     0
 10
83.294
 20
93.1305
 30
0.0
 11
83.294
 21
78.631
 31
0.0
  0
LINE
  8
0
 62
     0
 10
83.294
 20
78.631
 30
0.0
 11
68.7945
 21
78.631
 31
0.0
  0
LINE
  8
0
 62
     0
 10
68.7945
 20
78.631
 30
0.0
 11
68.7945
 21
93.1305
 31
0.0
  0
LINE
  8
0
 62
     0
 10
49.7445
 20
93.1305
 30
0.0
 11
64.244
 21
93.1305
 31
0.0
  0
LINE
  8
0
 62
     0
 10
64.244
 20
93.1305
 30
0.0
 11
64.244
 21
78.631
 31
0.0
  0
LINE
  8
0
 62
     0
 10
64.244
 20
78.631
 30
0.0
 11
49.7445
 21
78.631
 31
0.0
  0
LINE
  8
0
 62
     0
 10
49.7445
 20
78.631
 30
0.0
 11
49.7445
 21
93.1305
 31
0.0
  0
LINE
  8
0
 62
     0
 10
30.6944
 20
93.1305
 30
0.0
 11
45.194
 21
93.1305
 31
0.0
  0
LINE
  8
0
 62
     0
 10
45.194
 20
93.1305
 30
0.0
 11
45.194
 21
78.631
 31
0.0
  0
LINE
  8
0
 62
     0
 10
45.194
 20
78.631
 30
0.0
 11
30.6944
 21
78.631
 31
0.0
  0
LINE
  8
0
 62
     0
 10
30.6944
 20
78.631
 30
0.0
 11
30.6944
 21
93.1305
 31
0.0
  0
LINE
  8
0
 62
     0
 10
6.88192
 20
93.1305
 30
0.0
 11
21.3817
 21
93.1305
 31
0.0
  0
LINE
  8
0
 62
     0
 10
21.3817
 20
93.1305
 30
0.0
 11
21.3817
 21
78.631
 31
0.0
  0
LINE
  8
0
 62
     0
 10
21.3817
 20
78.631
 30
0.0
 11
6.88192
 21
78.631
 31
0.0
  0
LINE
  8
0
 62
     0
 10
6.88192
 20
78.631
 30
0.0
 11
6.88192
 21
93.1305
 31
0.0
  0
LINE
  8
0
 62
     0
 10
259.294
 20
112.181
 30
0.0
 11
259.294
 21
107.48
 31
0.0
  0
LINE
  8
0
 62
     0
 10
259.294
 20
107.48
 30
0.0
 11
258.269
 21
107.48
 31
0.0
  0
LINE
  8
0
 62
     0
 10
258.269
 20
107.48
 30
0.0
 11
258.269
 21
110.71
 31
0.0
  0
LINE
  8
0
 62
     0
 10
258.269
 20
110.71
 30
0.0
 11
256.544
 21
110.71
 31
0.0
  0
LINE
  8
0
 62
     0
 10
256.544
 20
110.71
 30
0.0
 11
256.544
 21
111.631
 31
0.0
  0
LINE
  8
0
 62
     0
 10
256.544
 20
111.631
 30
0.0
 11
252.743
 21
111.631
 31
0.0
  0
LINE
  8
0
 62
     0
 10
252.743
 20
111.631
 30
0.0
 11
252.743
 21
110.71
 31
0.0
  0
LINE
  8
0
 62
     0
 10
252.743
 20
110.71
 30
0.0
 11
251.019
 21
110.71
 31
0.0
  0
LINE
  8
0
 62
     0
 10
251.019
 20
110.71
 30
0.0
 11
251.019
 21
107.48
 31
0.0
  0
LINE
  8
0
 62
     0
 10
251.019
 20
107.48
 30
0.0
 11
250.194
 21
107.48
 31
0.0
  0
LINE
  8
0
 62
     0
 10
250.194
 20
107.48
 30
0.0
 11
250.194
 21
104.181
 31
0.0
  0
LINE
  8
0
 62
     0
 10
250.194
 20
104.181
 30
0.0
 11
251.019
 21
104.181
 31
0.0
  0
LINE
  8
0
 62
     0
 10
251.019
 20
104.181
 30
0.0
 11
251.019
 21
97.911
 31
0.0
  0
LINE
  8
0
 62
     0
 10
251.019
 20
97.911
 30
0.0
 11
252.743
 21
97.911
 31
0.0
  0
LINE
  8
0
 62
     0
 10
252.743
 20
97.911
 30
0.0
 11
252.743
 21
96.9299
 31
0.0
  0
LINE
  8
0
 62
     0
 10
252.743
 20
96.9299
 30
0.0
 11
256.544
 21
96.9299
 31
0.0
  0
LINE
  8
0
 62
     0
 10
256.544
 20
96.9299
 30
0.0
 11
256.544
 21
97.911
 31
0.0
  0
LINE
  8
0
 62
     0
 10
256.544
 20
97.911
 30
0.0
 11
258.269
 21
97.911
 31
0.0
  0
LINE
  8
0
 62
     0
 10
258.269
 20
97.911
 30
0.0
 11
258.269
 21
102.38
 31
0.0
  0
LINE
  8
0
 62
     0
 10
258.269
 20
102.38
 30
0.0
 11
259.294
 21
102.38
 31
0.0
  0
LINE
  8
0
 62
     0
 10
259.294
 20
102.38
 30
0.0
 11
259.294
 21
97.681
 31
0.0
  0
LINE
  8
0
 62
     0
 10
259.294
 20
97.681
 30
0.0
 11
273.794
 21
97.681
 31
0.0
  0
LINE
  8
0
 62
     0
 10
273.794
 20
97.681
 30
0.0
 11
273.794
 21
102.38
 31
0.0
  0
LINE
  8
0
 62
     0
 10
273.794
 20
102.38
 30
0.0
 11
274.82
 21
102.38
 31
0.0
  0
LINE
  8
0
 62
     0
 10
274.82
 20
102.38
 30
0.0
 11
274.82
 21
97.911
 31
0.0
  0
LINE
  8
0
 62
     0
 10
274.82
 20
97.911
 30
0.0
 11
276.545
 21
97.911
 31
0.0
  0
LINE
  8
0
 62
     0
 10
276.545
 20
97.911
 30
0.0
 11
276.545
 21
96.9299
 31
0.0
  0
LINE
  8
0
 62
     0
 10
276.545
 20
96.9299
 30
0.0
 11
280.344
 21
96.9299
 31
0.0
  0
LINE
  8
0
 62
     0
 10
280.344
 20
96.9299
 30
0.0
 11
280.344
 21
97.911
 31
0.0
  0
LINE
  8
0
 62
     0
 10
280.344
 20
97.911
 30
0.0
 11
282.069
 21
97.911
 31
0.0
  0
LINE
  8
0
 62
     0
 10
282.069
 20
97.911
 30
0.0
 11
282.069
 21
104.181
 31
0.0
  0
LINE
  8
0
 62
     0
 10
282.069
 20
104.181
 30
0.0
 11
282.895
 21
104.181
 31
0.0
  0
LINE
  8
0
 62
     0
 10
282.895
 20
104.181
 30
0.0
 11
282.895
 21
107.48
 31
0.0
  0
LINE
  8
0
 62
     0
 10
282.895
 20
107.48
 30
0.0
 11
282.069
 21
107.48
 31
0.0
  0
LINE
  8
0
 62
     0
 10
282.069
 20
107.48
 30
0.0
 11
282.069
 21
110.71
 31
0.0
  0
LINE
  8
0
 62
     0
 10
282.069
 20
110.71
 30
0.0
 11
280.344
 21
110.71
 31
0.0
  0
LINE
  8
0
 62
     0
 10
280.344
 20
110.71
 30
0.0
 11
280.344
 21
111.631
 31
0.0
  0
LINE
  8
0
 62
     0
 10
280.344
 20
111.631
 30
0.0
 11
276.545
 21
111.631
 31
0.0
  0
LINE
  8
0
 62
     0
 10
276.545
 20
111.631
 30
0.0
 11
276.545
 21
110.71
 31
0.0
  0
LINE
  8
0
 62
     0
 10
276.545
 20
110.71
 30
0.0
 11
274.82
 21
110.71
 31
0.0
  0
LINE
  8
0
 62
     0
 10
274.82
 20
110.71
 30
0.0
 11
274.82
 21
107.48
 31
0.0
  0
LINE
  8
0
 62
     0
 10
274.82
 20
107.48
 30
0.0
 11
273.794
 21
107.48
 31
0.0
  0
LINE
  8
0
 62
     0
 10
273.794
 20
107.48
 30
0.0
 11
273.794
 21
112.181
 31
0.0
  0
LINE
  8
0
 62
     0
 10
273.794
 20
112.181
 30
0.0
 11
259.294
 21
112.181
 31
0.0
  0
LINE
  8
0
 62
     0
 10
230.719
 20
112.181
 30
0.0
 11
245.219
 21
112.181
 31
0.0
  0
LINE
  8
0
 62
     0
 10
245.219
 20
112.181
 30
0.0
 11
245.219
 21
97.681
 31
0.0
  0
LINE
  8
0
 62
     0
 10
245.219
 20
97.681
 30
0.0
 11
230.719
 21
97.681
 31
0.0
  0
LINE
  8
0
 62
     0
 10
230.719
 20
97.681
 30
0.0
 11
230.719
 21
112.181
 31
0.0
  0
LINE
  8
0
 62
     0
 10
211.669
 20
112.181
 30
0.0
 11
226.169
 21
112.181
 31
0.0
  0
LINE
  8
0
 62
     0
 10
226.169
 20
112.181
 30
0.0
 11
226.169
 21
97.681
 31
0.0
  0
LINE
  8
0
 62
     0
 10
226.169
 20
97.681
 30
0.0
 11
211.669
 21
97.681
 31
0.0
  0
LINE
  8
0
 62
     0
 10
211.669
 20
97.681
 30
0.0
 11
211.669
 21
112.181
 31
0.0
  0
LINE
  8
0
 62
     0
 10
192.619
 20
112.181
 30
0.0
 11
207.119
 21
112.181
 31
0.0
  0
LINE
  8
0
 62
     0
 10
207.119
 20
112.181
 30
0.0
 11
207.119
 21
97.681
 31
0.0
  0
LINE
  8
0
 62
     0
 10
207.119
 20
97.681
 30
0.0
 11
192.619
 21
97.681
 31
0.0
  0
LINE
  8
0
 62
     0
 10
192.619
 20
97.681
 30
0.0
 11
192.619
 21
112.181
 31
0.0
  0
LINE
  8
0
 62
     0
 10
173.569
 20
112.181
 30
0.0
 11
188.069
 21
112.181
 31
0.0
  0
LINE
  8
0
 62
     0
 10
188.069
 20
112.181
 30
0.0
 11
188.069
 21
97.681
 31
0.0
  0
LINE
  8
0
 62
     0
 10
188.069
 20
97.681
 30
0.0
 11
173.569
 21
97.681
 31
0.0
  0
LINE
  8
0
 62
     0
 10
173.569
 20
97.681
 30
0.0
 11
173.569
 21
112.181
 31
0.0
  0
LINE
  8
0
 62
     0
 10
154.519
 20
112.181
 30
0.0
 11
169.019
 21
112.181
 31
0.0
  0
LINE
  8
0
 62
     0
 10
169.019
 20
112.181
 30
0.0
 11
169.019
 21
97.681
 31
0.0
  0
LINE
  8
0
 62
     0
 10
169.019
 20
97.681
 30
0.0
 11
154.519
 21
97.681
 31
0.0
  0
LINE
  8
0
 62
     0
 10
154.519
 20
97.681
 30
0.0
 11
154.519
 21
112.181
 31
0.0
  0
LINE
  8
0
 62
     0
 10
135.469
 20
112.181
 30
0.0
 11
149.969
 21
112.181
 31
0.0
  0
LINE
  8
0
 62
     0
 10
149.969
 20
112.181
 30
0.0
 11
149.969
 21
97.681
 31
0.0
  0
LINE
  8
0
 62
     0
 10
149.969
 20
97.681
 30
0.0
 11
135.469
 21
97.681
 31
0.0
  0
LINE
  8
0
 62
     0
 10
135.469
 20
97.681
 30
0.0
 11
135.469
 21
112.181
 31
0.0
  0
LINE
  8
0
 62
     0
 10
116.418
 20
112.181
 30
0.0
 11
130.919
 21
112.181
 31
0.0
  0
LINE
  8
0
 62
     0
 10
130.919
 20
112.181
 30
0.0
 11
130.919
 21
97.681
 31
0.0
  0
LINE
  8
0
 62
     0
 10
130.919
 20
97.681
 30
0.0
 11
116.418
 21
97.681
 31
0.0
  0
LINE
  8
0
 62
     0
 10
116.418
 20
97.681
 30
0.0
 11
116.418
 21
112.181
 31
0.0
  0
LINE
  8
0
 62
     0
 10
97.3681
 20
112.181
 30
0.0
 11
111.869
 21
112.181
 31
0.0
  0
LINE
  8
0
 62
     0
 10
111.869
 20
112.181
 30
0.0
 11
111.869
 21
97.681
 31
0.0
  0
LINE
  8
0
 62
     0
 10
111.869
 20
97.681
 30
0.0
 11
97.3681
 21
97.681
 31
0.0
  0
LINE
  8
0
 62
     0
 10
97.3681
 20
97.681
 30
0.0
 11
97.3681
 21
112.181
 31
0.0
  0
LINE
  8
0
 62
     0
 10
78.3195
 20
112.181
 30
0.0
 11
92.819
 21
112.181
 31
0.0
  0
LINE
  8
0
 62
     0
 10
92.819
 20
112.181
 30
0.0
 11
92.819
 21
97.681
 31
0.0
  0
LINE
  8
0
 62
     0
 10
92.819
 20
97.681
 30
0.0
 11
78.3195
 21
97.681
 31
0.0
  0
LINE
  8
0
 62
     0
 10
78.3195
 20
97.681
 30
0.0
 11
78.3195
 21
112.181
 31
0.0
  0
LINE
  8
0
 62
     0
 10
59.2695
 20
112.181
 30
0.0
 11
73.769
 21
112.181
 31
0.0
  0
LINE
  8
0
 62
     0
 10
73.769
 20
112.181
 30
0.0
 11
73.769
 21
97.681
 31
0.0
  0
LINE
  8
0
 62
     0
 10
73.769
 20
97.681
 30
0.0
 11
59.2695
 21
97.681
 31
0.0
  0
LINE
  8
0
 62
     0
 10
59.2695
 20
97.681
 30
0.0
 11
59.2695
 21
112.181
 31
0.0
  0
LINE
  8
0
 62
     0
 10
40.2195
 20
112.181
 30
0.0
 11
54.719
 21
112.181
 31
0.0
  0
LINE
  8
0
 62
     0
 10
54.719
 20
112.181
 30
0.0
 11
54.719
 21
97.681
 31
0.0
  0
LINE
  8
0
 62
     0
 10
54.719
 20
97.681
 30
0.0
 11
40.2195
 21
97.681
 31
0.0
  0
LINE
  8
0
 62
     0
 10
40.2195
 20
97.681
 30
0.0
 11
40.2195
 21
112.181
 31
0.0
  0
LINE
  8
0
 62
     0
 10
21.1694
 20
112.181
 30
0.0
 11
35.669
 21
112.181
 31
0.0
  0
LINE
  8
0
 62
     0
 10
35.669
 20
112.181
 30
0.0
 11
35.669
 21
97.681
 31
0.0
  0
LINE
  8
0
 62
     0
 10
35.669
 20
97.681
 30
0.0
 11
21.1694
 21
97.681
 31
0.0
  0
LINE
  8
0
 62
     0
 10
21.1694
 20
97.681
 30
0.0
 11
21.1694
 21
112.181
 31
0.0
  0
LINE
  8
0
 62
     0
 10
2.11942
 20
112.181
 30
0.0
 11
16.6192
 21
112.181
 31
0.0
  0
LINE
  8
0
 62
     0
 10
16.6192
 20
112.181
 30
0.0
 11
16.6192
 21
97.681
 31
0.0
  0
LINE
  8
0
 62
     0
 10
16.6192
 20
97.681
 30
0.0
 11
2.11942
 21
97.681
 31
0.0
  0
LINE
  8
0
 62
     0
 10
2.11942
 20
97.681
 30
0.0
 11
2.11942
 21
112.181
 31
0.0
  0
ENDSEC
  0
EOF
