  0
SECTION
  2
HEADER
  9
$ACADVER
  1
AC1009
  9
$EXTMIN
 10
0.0
 20
0.0
 30
0.0
  9
$EXTMAX
 10
1000.0
 20
1000.0
 30
0.0
  9
$FILLMODE
 70
 0
  9
$SPLFRAME
 70
 1
  0
ENDSEC
  0
SECTION
  2
TABLES
  0
TABLE
  2
LAYER
 70
1
  0
LAYER
  2
0
 70
     0
 62
     7
  6
CONTINUOUS
  0
ENDTAB
  0
ENDSEC
  0
SECTION
  2
ENTITIES
  0
LINE
  8
0
 62
     0
 10
0.0950846
 20
114.558
 30
0.0
 11
285.845
 21
114.558
 31
0.0
  0
LINE
  8
0
 62
     0
 10
285.845
 20
114.558
 30
0.0
 11
285.845
 21
0.257693
 31
0.0
  0
LINE
  8
0
 62
     0
 10
285.845
 20
0.257693
 30
0.0
 11
0.0950846
 21
0.257693
 31
0.0
  0
LINE
  8
0
 62
     0
 10
0.0950846
 20
0.257693
 30
0.0
 11
0.0950846
 21
114.558
 31
0.0
  0
LINE
  8
0
 62
     0
 10
147.876
 20
16.7845
 30
0.0
 11
147.876
 21
12.0826
 31
0.0
  0
LINE
  8
0
 62
     0
 10
147.876
 20
12.0826
 30
0.0
 11
146.351
 21
12.0826
 31
0.0
  0
LINE
  8
0
 62
     0
 10
146.351
 20
12.0826
 30
0.0
 11
146.351
 21
15.3142
 31
0.0
  0
LINE
  8
0
 62
     0
 10
146.351
 20
15.3142
 30
0.0
 11
144.625
 21
15.3142
 31
0.0
  0
LINE
  8
0
 62
     0
 10
144.625
 20
15.3142
 30
0.0
 11
144.625
 21
16.2347
 31
0.0
  0
LINE
  8
0
 62
     0
 10
144.625
 20
16.2347
 30
0.0
 11
141.326
 21
16.2347
 31
0.0
  0
LINE
  8
0
 62
     0
 10
141.326
 20
16.2347
 30
0.0
 11
141.326
 21
15.3142
 31
0.0
  0
LINE
  8
0
 62
     0
 10
141.326
 20
15.3142
 30
0.0
 11
139.601
 21
15.3142
 31
0.0
  0
LINE
  8
0
 62
     0
 10
139.601
 20
15.3142
 30
0.0
 11
139.601
 21
12.0826
 31
0.0
  0
LINE
  8
0
 62
     0
 10
139.601
 20
12.0826
 30
0.0
 11
138.775
 21
12.0826
 31
0.0
  0
LINE
  8
0
 62
     0
 10
138.775
 20
12.0826
 30
0.0
 11
138.775
 21
9.28384
 31
0.0
  0
LINE
  8
0
 62
     0
 10
138.775
 20
9.28384
 30
0.0
 11
139.601
 21
9.28384
 31
0.0
  0
LINE
  8
0
 62
     0
 10
139.601
 20
9.28384
 30
0.0
 11
139.601
 21
3.01377
 31
0.0
  0
LINE
  8
0
 62
     0
 10
139.601
 20
3.01377
 30
0.0
 11
141.326
 21
3.01377
 31
0.0
  0
LINE
  8
0
 62
     0
 10
141.326
 20
3.01377
 30
0.0
 11
141.326
 21
2.03399
 31
0.0
  0
LINE
  8
0
 62
     0
 10
141.326
 20
2.03399
 30
0.0
 11
144.625
 21
2.03399
 31
0.0
  0
LINE
  8
0
 62
     0
 10
144.625
 20
2.03399
 30
0.0
 11
144.625
 21
3.01377
 31
0.0
  0
LINE
  8
0
 62
     0
 10
144.625
 20
3.01377
 30
0.0
 11
146.351
 21
3.01377
 31
0.0
  0
LINE
  8
0
 62
     0
 10
146.351
 20
3.01377
 30
0.0
 11
146.351
 21
7.48411
 31
0.0
  0
LINE
  8
0
 62
     0
 10
146.351
 20
7.48411
 30
0.0
 11
147.876
 21
7.48411
 31
0.0
  0
LINE
  8
0
 62
     0
 10
147.876
 20
7.48411
 30
0.0
 11
147.876
 21
2.78364
 31
0.0
  0
LINE
  8
0
 62
     0
 10
147.876
 20
2.78364
 30
0.0
 11
161.875
 21
2.78364
 31
0.0
  0
LINE
  8
0
 62
     0
 10
161.875
 20
2.78364
 30
0.0
 11
161.875
 21
7.48411
 31
0.0
  0
LINE
  8
0
 62
     0
 10
161.875
 20
7.48411
 30
0.0
 11
163.401
 21
7.48411
 31
0.0
  0
LINE
  8
0
 62
     0
 10
163.401
 20
7.48411
 30
0.0
 11
163.401
 21
3.01377
 31
0.0
  0
LINE
  8
0
 62
     0
 10
163.401
 20
3.01377
 30
0.0
 11
165.125
 21
3.01377
 31
0.0
  0
LINE
  8
0
 62
     0
 10
165.125
 20
3.01377
 30
0.0
 11
165.125
 21
2.03399
 31
0.0
  0
LINE
  8
0
 62
     0
 10
165.125
 20
2.03399
 30
0.0
 11
168.425
 21
2.03399
 31
0.0
  0
LINE
  8
0
 62
     0
 10
168.425
 20
2.03399
 30
0.0
 11
168.425
 21
3.01377
 31
0.0
  0
LINE
  8
0
 62
     0
 10
168.425
 20
3.01377
 30
0.0
 11
170.15
 21
3.01377
 31
0.0
  0
LINE
  8
0
 62
     0
 10
170.15
 20
3.01377
 30
0.0
 11
170.15
 21
9.28384
 31
0.0
  0
LINE
  8
0
 62
     0
 10
170.15
 20
9.28384
 30
0.0
 11
170.976
 21
9.28384
 31
0.0
  0
LINE
  8
0
 62
     0
 10
170.976
 20
9.28384
 30
0.0
 11
170.976
 21
12.0826
 31
0.0
  0
LINE
  8
0
 62
     0
 10
170.976
 20
12.0826
 30
0.0
 11
170.15
 21
12.0826
 31
0.0
  0
LINE
  8
0
 62
     0
 10
170.15
 20
12.0826
 30
0.0
 11
170.15
 21
15.3142
 31
0.0
  0
LINE
  8
0
 62
     0
 10
170.15
 20
15.3142
 30
0.0
 11
168.425
 21
15.3142
 31
0.0
  0
LINE
  8
0
 62
     0
 10
168.425
 20
15.3142
 30
0.0
 11
168.425
 21
16.2347
 31
0.0
  0
LINE
  8
0
 62
     0
 10
168.425
 20
16.2347
 30
0.0
 11
165.125
 21
16.2347
 31
0.0
  0
LINE
  8
0
 62
     0
 10
165.125
 20
16.2347
 30
0.0
 11
165.125
 21
15.3142
 31
0.0
  0
LINE
  8
0
 62
     0
 10
165.125
 20
15.3142
 30
0.0
 11
163.401
 21
15.3142
 31
0.0
  0
LINE
  8
0
 62
     0
 10
163.401
 20
15.3142
 30
0.0
 11
163.401
 21
12.0826
 31
0.0
  0
LINE
  8
0
 62
     0
 10
163.401
 20
12.0826
 30
0.0
 11
161.875
 21
12.0826
 31
0.0
  0
LINE
  8
0
 62
     0
 10
161.875
 20
12.0826
 30
0.0
 11
161.875
 21
16.7845
 31
0.0
  0
LINE
  8
0
 62
     0
 10
161.875
 20
16.7845
 30
0.0
 11
147.876
 21
16.7845
 31
0.0
  0
LINE
  8
0
 62
     0
 10
105.012
 20
16.7845
 30
0.0
 11
105.012
 21
12.0826
 31
0.0
  0
LINE
  8
0
 62
     0
 10
105.012
 20
12.0826
 30
0.0
 11
103.488
 21
12.0826
 31
0.0
  0
LINE
  8
0
 62
     0
 10
103.488
 20
12.0826
 30
0.0
 11
103.488
 21
15.3142
 31
0.0
  0
LINE
  8
0
 62
     0
 10
103.488
 20
15.3142
 30
0.0
 11
101.763
 21
15.3142
 31
0.0
  0
LINE
  8
0
 62
     0
 10
101.763
 20
15.3142
 30
0.0
 11
101.763
 21
16.2347
 31
0.0
  0
LINE
  8
0
 62
     0
 10
101.763
 20
16.2347
 30
0.0
 11
98.462
 21
16.2347
 31
0.0
  0
LINE
  8
0
 62
     0
 10
98.462
 20
16.2347
 30
0.0
 11
98.462
 21
15.3142
 31
0.0
  0
LINE
  8
0
 62
     0
 10
98.462
 20
15.3142
 30
0.0
 11
96.737
 21
15.3142
 31
0.0
  0
LINE
  8
0
 62
     0
 10
96.737
 20
15.3142
 30
0.0
 11
96.737
 21
12.0826
 31
0.0
  0
LINE
  8
0
 62
     0
 10
96.737
 20
12.0826
 30
0.0
 11
95.9129
 21
12.0826
 31
0.0
  0
LINE
  8
0
 62
     0
 10
95.9129
 20
12.0826
 30
0.0
 11
95.9129
 21
9.28384
 31
0.0
  0
LINE
  8
0
 62
     0
 10
95.9129
 20
9.28384
 30
0.0
 11
96.737
 21
9.28384
 31
0.0
  0
LINE
  8
0
 62
     0
 10
96.737
 20
9.28384
 30
0.0
 11
96.737
 21
3.01377
 31
0.0
  0
LINE
  8
0
 62
     0
 10
96.737
 20
3.01377
 30
0.0
 11
98.462
 21
3.01377
 31
0.0
  0
LINE
  8
0
 62
     0
 10
98.462
 20
3.01377
 30
0.0
 11
98.462
 21
2.03399
 31
0.0
  0
LINE
  8
0
 62
     0
 10
98.462
 20
2.03399
 30
0.0
 11
101.763
 21
2.03399
 31
0.0
  0
LINE
  8
0
 62
     0
 10
101.763
 20
2.03399
 30
0.0
 11
101.763
 21
3.01377
 31
0.0
  0
LINE
  8
0
 62
     0
 10
101.763
 20
3.01377
 30
0.0
 11
103.488
 21
3.01377
 31
0.0
  0
LINE
  8
0
 62
     0
 10
103.488
 20
3.01377
 30
0.0
 11
103.488
 21
7.48411
 31
0.0
  0
LINE
  8
0
 62
     0
 10
103.488
 20
7.48411
 30
0.0
 11
105.012
 21
7.48411
 31
0.0
  0
LINE
  8
0
 62
     0
 10
105.012
 20
7.48411
 30
0.0
 11
105.012
 21
2.78364
 31
0.0
  0
LINE
  8
0
 62
     0
 10
105.012
 20
2.78364
 30
0.0
 11
119.013
 21
2.78364
 31
0.0
  0
LINE
  8
0
 62
     0
 10
119.013
 20
2.78364
 30
0.0
 11
119.013
 21
7.48411
 31
0.0
  0
LINE
  8
0
 62
     0
 10
119.013
 20
7.48411
 30
0.0
 11
120.537
 21
7.48411
 31
0.0
  0
LINE
  8
0
 62
     0
 10
120.537
 20
7.48411
 30
0.0
 11
120.537
 21
3.01377
 31
0.0
  0
LINE
  8
0
 62
     0
 10
120.537
 20
3.01377
 30
0.0
 11
122.262
 21
3.01377
 31
0.0
  0
LINE
  8
0
 62
     0
 10
122.262
 20
3.01377
 30
0.0
 11
122.262
 21
2.03399
 31
0.0
  0
LINE
  8
0
 62
     0
 10
122.262
 20
2.03399
 30
0.0
 11
125.561
 21
2.03399
 31
0.0
  0
LINE
  8
0
 62
     0
 10
125.561
 20
2.03399
 30
0.0
 11
125.561
 21
3.01377
 31
0.0
  0
LINE
  8
0
 62
     0
 10
125.561
 20
3.01377
 30
0.0
 11
127.288
 21
3.01377
 31
0.0
  0
LINE
  8
0
 62
     0
 10
127.288
 20
3.01377
 30
0.0
 11
127.288
 21
9.28384
 31
0.0
  0
LINE
  8
0
 62
     0
 10
127.288
 20
9.28384
 30
0.0
 11
128.112
 21
9.28384
 31
0.0
  0
LINE
  8
0
 62
     0
 10
128.112
 20
9.28384
 30
0.0
 11
128.112
 21
12.0826
 31
0.0
  0
LINE
  8
0
 62
     0
 10
128.112
 20
12.0826
 30
0.0
 11
127.288
 21
12.0826
 31
0.0
  0
LINE
  8
0
 62
     0
 10
127.288
 20
12.0826
 30
0.0
 11
127.288
 21
15.3142
 31
0.0
  0
LINE
  8
0
 62
     0
 10
127.288
 20
15.3142
 30
0.0
 11
125.561
 21
15.3142
 31
0.0
  0
LINE
  8
0
 62
     0
 10
125.561
 20
15.3142
 30
0.0
 11
125.561
 21
16.2347
 31
0.0
  0
LINE
  8
0
 62
     0
 10
125.561
 20
16.2347
 30
0.0
 11
122.262
 21
16.2347
 31
0.0
  0
LINE
  8
0
 62
     0
 10
122.262
 20
16.2347
 30
0.0
 11
122.262
 21
15.3142
 31
0.0
  0
LINE
  8
0
 62
     0
 10
122.262
 20
15.3142
 30
0.0
 11
120.537
 21
15.3142
 31
0.0
  0
LINE
  8
0
 62
     0
 10
120.537
 20
15.3142
 30
0.0
 11
120.537
 21
12.0826
 31
0.0
  0
LINE
  8
0
 62
     0
 10
120.537
 20
12.0826
 30
0.0
 11
119.013
 21
12.0826
 31
0.0
  0
LINE
  8
0
 62
     0
 10
119.013
 20
12.0826
 30
0.0
 11
119.013
 21
16.7845
 31
0.0
  0
LINE
  8
0
 62
     0
 10
119.013
 20
16.7845
 30
0.0
 11
105.012
 21
16.7845
 31
0.0
  0
LINE
  8
0
 62
     0
 10
100.251
 20
35.833
 30
0.0
 11
100.251
 21
31.1326
 31
0.0
  0
LINE
  8
0
 62
     0
 10
100.251
 20
31.1326
 30
0.0
 11
98.7256
 21
31.1326
 31
0.0
  0
LINE
  8
0
 62
     0
 10
98.7256
 20
31.1326
 30
0.0
 11
98.7256
 21
34.3628
 31
0.0
  0
LINE
  8
0
 62
     0
 10
98.7256
 20
34.3628
 30
0.0
 11
97.0001
 21
34.3628
 31
0.0
  0
LINE
  8
0
 62
     0
 10
97.0001
 20
34.3628
 30
0.0
 11
97.0001
 21
35.2848
 31
0.0
  0
LINE
  8
0
 62
     0
 10
97.0001
 20
35.2848
 30
0.0
 11
93.701
 21
35.2848
 31
0.0
  0
LINE
  8
0
 62
     0
 10
93.701
 20
35.2848
 30
0.0
 11
93.701
 21
34.3628
 31
0.0
  0
LINE
  8
0
 62
     0
 10
93.701
 20
34.3628
 30
0.0
 11
91.9759
 21
34.3628
 31
0.0
  0
LINE
  8
0
 62
     0
 10
91.9759
 20
34.3628
 30
0.0
 11
91.9759
 21
31.1326
 31
0.0
  0
LINE
  8
0
 62
     0
 10
91.9759
 20
31.1326
 30
0.0
 11
84.4381
 21
31.1326
 31
0.0
  0
LINE
  8
0
 62
     0
 10
84.4381
 20
31.1326
 30
0.0
 11
84.4381
 21
34.3628
 31
0.0
  0
LINE
  8
0
 62
     0
 10
84.4381
 20
34.3628
 30
0.0
 11
82.7126
 21
34.3628
 31
0.0
  0
LINE
  8
0
 62
     0
 10
82.7126
 20
34.3628
 30
0.0
 11
82.7126
 21
35.2848
 31
0.0
  0
LINE
  8
0
 62
     0
 10
82.7126
 20
35.2848
 30
0.0
 11
79.412
 21
35.2848
 31
0.0
  0
LINE
  8
0
 62
     0
 10
79.412
 20
35.2848
 30
0.0
 11
79.412
 21
34.3628
 31
0.0
  0
LINE
  8
0
 62
     0
 10
79.412
 20
34.3628
 30
0.0
 11
77.687
 21
34.3628
 31
0.0
  0
LINE
  8
0
 62
     0
 10
77.687
 20
34.3628
 30
0.0
 11
77.687
 21
31.1326
 31
0.0
  0
LINE
  8
0
 62
     0
 10
77.687
 20
31.1326
 30
0.0
 11
76.8629
 21
31.1326
 31
0.0
  0
LINE
  8
0
 62
     0
 10
76.8629
 20
31.1326
 30
0.0
 11
76.8629
 21
28.3338
 31
0.0
  0
LINE
  8
0
 62
     0
 10
76.8629
 20
28.3338
 30
0.0
 11
77.687
 21
28.3338
 31
0.0
  0
LINE
  8
0
 62
     0
 10
77.687
 20
28.3338
 30
0.0
 11
77.687
 21
22.0638
 31
0.0
  0
LINE
  8
0
 62
     0
 10
77.687
 20
22.0638
 30
0.0
 11
79.412
 21
22.0638
 31
0.0
  0
LINE
  8
0
 62
     0
 10
79.412
 20
22.0638
 30
0.0
 11
79.412
 21
21.0826
 31
0.0
  0
LINE
  8
0
 62
     0
 10
79.412
 20
21.0826
 30
0.0
 11
82.7126
 21
21.0826
 31
0.0
  0
LINE
  8
0
 62
     0
 10
82.7126
 20
21.0826
 30
0.0
 11
82.7126
 21
22.0638
 31
0.0
  0
LINE
  8
0
 62
     0
 10
82.7126
 20
22.0638
 30
0.0
 11
84.4381
 21
22.0638
 31
0.0
  0
LINE
  8
0
 62
     0
 10
84.4381
 20
22.0638
 30
0.0
 11
84.4381
 21
26.5341
 31
0.0
  0
LINE
  8
0
 62
     0
 10
84.4381
 20
26.5341
 30
0.0
 11
91.9759
 21
26.5341
 31
0.0
  0
LINE
  8
0
 62
     0
 10
91.9759
 20
26.5341
 30
0.0
 11
91.9759
 21
22.0638
 31
0.0
  0
LINE
  8
0
 62
     0
 10
91.9759
 20
22.0638
 30
0.0
 11
93.701
 21
22.0638
 31
0.0
  0
LINE
  8
0
 62
     0
 10
93.701
 20
22.0638
 30
0.0
 11
93.701
 21
21.0826
 31
0.0
  0
LINE
  8
0
 62
     0
 10
93.701
 20
21.0826
 30
0.0
 11
97.0001
 21
21.0826
 31
0.0
  0
LINE
  8
0
 62
     0
 10
97.0001
 20
21.0826
 30
0.0
 11
97.0001
 21
22.0638
 31
0.0
  0
LINE
  8
0
 62
     0
 10
97.0001
 20
22.0638
 30
0.0
 11
98.7256
 21
22.0638
 31
0.0
  0
LINE
  8
0
 62
     0
 10
98.7256
 20
22.0638
 30
0.0
 11
98.7256
 21
26.5341
 31
0.0
  0
LINE
  8
0
 62
     0
 10
98.7256
 20
26.5341
 30
0.0
 11
100.251
 21
26.5341
 31
0.0
  0
LINE
  8
0
 62
     0
 10
100.251
 20
26.5341
 30
0.0
 11
100.251
 21
21.8336
 31
0.0
  0
LINE
  8
0
 62
     0
 10
100.251
 20
21.8336
 30
0.0
 11
114.25
 21
21.8336
 31
0.0
  0
LINE
  8
0
 62
     0
 10
114.25
 20
21.8336
 30
0.0
 11
114.25
 21
26.5341
 31
0.0
  0
LINE
  8
0
 62
     0
 10
114.25
 20
26.5341
 30
0.0
 11
115.776
 21
26.5341
 31
0.0
  0
LINE
  8
0
 62
     0
 10
115.776
 20
26.5341
 30
0.0
 11
115.776
 21
22.0638
 31
0.0
  0
LINE
  8
0
 62
     0
 10
115.776
 20
22.0638
 30
0.0
 11
117.5
 21
22.0638
 31
0.0
  0
LINE
  8
0
 62
     0
 10
117.5
 20
22.0638
 30
0.0
 11
117.5
 21
21.0826
 31
0.0
  0
LINE
  8
0
 62
     0
 10
117.5
 20
21.0826
 30
0.0
 11
120.8
 21
21.0826
 31
0.0
  0
LINE
  8
0
 62
     0
 10
120.8
 20
21.0826
 30
0.0
 11
120.8
 21
22.0638
 31
0.0
  0
LINE
  8
0
 62
     0
 10
120.8
 20
22.0638
 30
0.0
 11
122.525
 21
22.0638
 31
0.0
  0
LINE
  8
0
 62
     0
 10
122.525
 20
22.0638
 30
0.0
 11
122.525
 21
26.5341
 31
0.0
  0
LINE
  8
0
 62
     0
 10
122.525
 20
26.5341
 30
0.0
 11
124.062
 21
26.5341
 31
0.0
  0
LINE
  8
0
 62
     0
 10
124.062
 20
26.5341
 30
0.0
 11
124.062
 21
21.8336
 31
0.0
  0
LINE
  8
0
 62
     0
 10
124.062
 20
21.8336
 30
0.0
 11
138.063
 21
21.8336
 31
0.0
  0
LINE
  8
0
 62
     0
 10
138.063
 20
21.8336
 30
0.0
 11
138.063
 21
26.5341
 31
0.0
  0
LINE
  8
0
 62
     0
 10
138.063
 20
26.5341
 30
0.0
 11
144.362
 21
26.5341
 31
0.0
  0
LINE
  8
0
 62
     0
 10
144.362
 20
26.5341
 30
0.0
 11
144.362
 21
22.0638
 31
0.0
  0
LINE
  8
0
 62
     0
 10
144.362
 20
22.0638
 30
0.0
 11
146.087
 21
22.0638
 31
0.0
  0
LINE
  8
0
 62
     0
 10
146.087
 20
22.0638
 30
0.0
 11
146.087
 21
21.0826
 31
0.0
  0
LINE
  8
0
 62
     0
 10
146.087
 20
21.0826
 30
0.0
 11
149.388
 21
21.0826
 31
0.0
  0
LINE
  8
0
 62
     0
 10
149.388
 20
21.0826
 30
0.0
 11
149.388
 21
22.0638
 31
0.0
  0
LINE
  8
0
 62
     0
 10
149.388
 20
22.0638
 30
0.0
 11
151.113
 21
22.0638
 31
0.0
  0
LINE
  8
0
 62
     0
 10
151.113
 20
22.0638
 30
0.0
 11
151.113
 21
26.5341
 31
0.0
  0
LINE
  8
0
 62
     0
 10
151.113
 20
26.5341
 30
0.0
 11
152.637
 21
26.5341
 31
0.0
  0
LINE
  8
0
 62
     0
 10
152.637
 20
26.5341
 30
0.0
 11
152.637
 21
21.8336
 31
0.0
  0
LINE
  8
0
 62
     0
 10
152.637
 20
21.8336
 30
0.0
 11
166.638
 21
21.8336
 31
0.0
  0
LINE
  8
0
 62
     0
 10
166.638
 20
21.8336
 30
0.0
 11
166.638
 21
26.5341
 31
0.0
  0
LINE
  8
0
 62
     0
 10
166.638
 20
26.5341
 30
0.0
 11
168.162
 21
26.5341
 31
0.0
  0
LINE
  8
0
 62
     0
 10
168.162
 20
26.5341
 30
0.0
 11
168.162
 21
22.0638
 31
0.0
  0
LINE
  8
0
 62
     0
 10
168.162
 20
22.0638
 30
0.0
 11
169.887
 21
22.0638
 31
0.0
  0
LINE
  8
0
 62
     0
 10
169.887
 20
22.0638
 30
0.0
 11
169.887
 21
21.0826
 31
0.0
  0
LINE
  8
0
 62
     0
 10
169.887
 20
21.0826
 30
0.0
 11
173.188
 21
21.0826
 31
0.0
  0
LINE
  8
0
 62
     0
 10
173.188
 20
21.0826
 30
0.0
 11
173.188
 21
22.0638
 31
0.0
  0
LINE
  8
0
 62
     0
 10
173.188
 20
22.0638
 30
0.0
 11
174.913
 21
22.0638
 31
0.0
  0
LINE
  8
0
 62
     0
 10
174.913
 20
22.0638
 30
0.0
 11
174.913
 21
26.5341
 31
0.0
  0
LINE
  8
0
 62
     0
 10
174.913
 20
26.5341
 30
0.0
 11
177.687
 21
26.5341
 31
0.0
  0
LINE
  8
0
 62
     0
 10
177.687
 20
26.5341
 30
0.0
 11
177.687
 21
22.0638
 31
0.0
  0
LINE
  8
0
 62
     0
 10
177.687
 20
22.0638
 30
0.0
 11
179.412
 21
22.0638
 31
0.0
  0
LINE
  8
0
 62
     0
 10
179.412
 20
22.0638
 30
0.0
 11
179.412
 21
21.0826
 31
0.0
  0
LINE
  8
0
 62
     0
 10
179.412
 20
21.0826
 30
0.0
 11
182.713
 21
21.0826
 31
0.0
  0
LINE
  8
0
 62
     0
 10
182.713
 20
21.0826
 30
0.0
 11
182.713
 21
22.0638
 31
0.0
  0
LINE
  8
0
 62
     0
 10
182.713
 20
22.0638
 30
0.0
 11
184.438
 21
22.0638
 31
0.0
  0
LINE
  8
0
 62
     0
 10
184.438
 20
22.0638
 30
0.0
 11
184.438
 21
28.3338
 31
0.0
  0
LINE
  8
0
 62
     0
 10
184.438
 20
28.3338
 30
0.0
 11
185.262
 21
28.3338
 31
0.0
  0
LINE
  8
0
 62
     0
 10
185.262
 20
28.3338
 30
0.0
 11
185.262
 21
31.1326
 31
0.0
  0
LINE
  8
0
 62
     0
 10
185.262
 20
31.1326
 30
0.0
 11
184.438
 21
31.1326
 31
0.0
  0
LINE
  8
0
 62
     0
 10
184.438
 20
31.1326
 30
0.0
 11
184.438
 21
34.3628
 31
0.0
  0
LINE
  8
0
 62
     0
 10
184.438
 20
34.3628
 30
0.0
 11
182.713
 21
34.3628
 31
0.0
  0
LINE
  8
0
 62
     0
 10
182.713
 20
34.3628
 30
0.0
 11
182.713
 21
35.2848
 31
0.0
  0
LINE
  8
0
 62
     0
 10
182.713
 20
35.2848
 30
0.0
 11
179.412
 21
35.2848
 31
0.0
  0
LINE
  8
0
 62
     0
 10
179.412
 20
35.2848
 30
0.0
 11
179.412
 21
34.3628
 31
0.0
  0
LINE
  8
0
 62
     0
 10
179.412
 20
34.3628
 30
0.0
 11
177.687
 21
34.3628
 31
0.0
  0
LINE
  8
0
 62
     0
 10
177.687
 20
34.3628
 30
0.0
 11
177.687
 21
31.1326
 31
0.0
  0
LINE
  8
0
 62
     0
 10
177.687
 20
31.1326
 30
0.0
 11
174.913
 21
31.1326
 31
0.0
  0
LINE
  8
0
 62
     0
 10
174.913
 20
31.1326
 30
0.0
 11
174.913
 21
34.3628
 31
0.0
  0
LINE
  8
0
 62
     0
 10
174.913
 20
34.3628
 30
0.0
 11
173.188
 21
34.3628
 31
0.0
  0
LINE
  8
0
 62
     0
 10
173.188
 20
34.3628
 30
0.0
 11
173.188
 21
35.2848
 31
0.0
  0
LINE
  8
0
 62
     0
 10
173.188
 20
35.2848
 30
0.0
 11
169.887
 21
35.2848
 31
0.0
  0
LINE
  8
0
 62
     0
 10
169.887
 20
35.2848
 30
0.0
 11
169.887
 21
34.3628
 31
0.0
  0
LINE
  8
0
 62
     0
 10
169.887
 20
34.3628
 30
0.0
 11
168.162
 21
34.3628
 31
0.0
  0
LINE
  8
0
 62
     0
 10
168.162
 20
34.3628
 30
0.0
 11
168.162
 21
31.1326
 31
0.0
  0
LINE
  8
0
 62
     0
 10
168.162
 20
31.1326
 30
0.0
 11
166.638
 21
31.1326
 31
0.0
  0
LINE
  8
0
 62
     0
 10
166.638
 20
31.1326
 30
0.0
 11
166.638
 21
35.833
 31
0.0
  0
LINE
  8
0
 62
     0
 10
166.638
 20
35.833
 30
0.0
 11
152.637
 21
35.833
 31
0.0
  0
LINE
  8
0
 62
     0
 10
152.637
 20
35.833
 30
0.0
 11
152.637
 21
31.1326
 31
0.0
  0
LINE
  8
0
 62
     0
 10
152.637
 20
31.1326
 30
0.0
 11
151.113
 21
31.1326
 31
0.0
  0
LINE
  8
0
 62
     0
 10
151.113
 20
31.1326
 30
0.0
 11
151.113
 21
34.3628
 31
0.0
  0
LINE
  8
0
 62
     0
 10
151.113
 20
34.3628
 30
0.0
 11
149.388
 21
34.3628
 31
0.0
  0
LINE
  8
0
 62
     0
 10
149.388
 20
34.3628
 30
0.0
 11
149.388
 21
35.2848
 31
0.0
  0
LINE
  8
0
 62
     0
 10
149.388
 20
35.2848
 30
0.0
 11
146.087
 21
35.2848
 31
0.0
  0
LINE
  8
0
 62
     0
 10
146.087
 20
35.2848
 30
0.0
 11
146.087
 21
34.3628
 31
0.0
  0
LINE
  8
0
 62
     0
 10
146.087
 20
34.3628
 30
0.0
 11
144.362
 21
34.3628
 31
0.0
  0
LINE
  8
0
 62
     0
 10
144.362
 20
34.3628
 30
0.0
 11
144.362
 21
31.1326
 31
0.0
  0
LINE
  8
0
 62
     0
 10
144.362
 20
31.1326
 30
0.0
 11
138.063
 21
31.1326
 31
0.0
  0
LINE
  8
0
 62
     0
 10
138.063
 20
31.1326
 30
0.0
 11
138.063
 21
35.833
 31
0.0
  0
LINE
  8
0
 62
     0
 10
138.063
 20
35.833
 30
0.0
 11
124.062
 21
35.833
 31
0.0
  0
LINE
  8
0
 62
     0
 10
124.062
 20
35.833
 30
0.0
 11
124.062
 21
31.1326
 31
0.0
  0
LINE
  8
0
 62
     0
 10
124.062
 20
31.1326
 30
0.0
 11
122.525
 21
31.1326
 31
0.0
  0
LINE
  8
0
 62
     0
 10
122.525
 20
31.1326
 30
0.0
 11
122.525
 21
34.3628
 31
0.0
  0
LINE
  8
0
 62
     0
 10
122.525
 20
34.3628
 30
0.0
 11
120.8
 21
34.3628
 31
0.0
  0
LINE
  8
0
 62
     0
 10
120.8
 20
34.3628
 30
0.0
 11
120.8
 21
35.2848
 31
0.0
  0
LINE
  8
0
 62
     0
 10
120.8
 20
35.2848
 30
0.0
 11
117.5
 21
35.2848
 31
0.0
  0
LINE
  8
0
 62
     0
 10
117.5
 20
35.2848
 30
0.0
 11
117.5
 21
34.3628
 31
0.0
  0
LINE
  8
0
 62
     0
 10
117.5
 20
34.3628
 30
0.0
 11
115.776
 21
34.3628
 31
0.0
  0
LINE
  8
0
 62
     0
 10
115.776
 20
34.3628
 30
0.0
 11
115.776
 21
31.1326
 31
0.0
  0
LINE
  8
0
 62
     0
 10
115.776
 20
31.1326
 30
0.0
 11
114.25
 21
31.1326
 31
0.0
  0
LINE
  8
0
 62
     0
 10
114.25
 20
31.1326
 30
0.0
 11
114.25
 21
35.833
 31
0.0
  0
LINE
  8
0
 62
     0
 10
114.25
 20
35.833
 30
0.0
 11
100.251
 21
35.833
 31
0.0
  0
LINE
  8
0
 62
     0
 10
264.557
 20
35.833
 30
0.0
 11
278.557
 21
35.833
 31
0.0
  0
LINE
  8
0
 62
     0
 10
278.557
 20
35.833
 30
0.0
 11
278.557
 21
21.8336
 31
0.0
  0
LINE
  8
0
 62
     0
 10
278.557
 20
21.8336
 30
0.0
 11
264.557
 21
21.8336
 31
0.0
  0
LINE
  8
0
 62
     0
 10
264.557
 20
21.8336
 30
0.0
 11
264.557
 21
35.833
 31
0.0
  0
LINE
  8
0
 62
     0
 10
240.743
 20
35.833
 30
0.0
 11
254.744
 21
35.833
 31
0.0
  0
LINE
  8
0
 62
     0
 10
254.744
 20
35.833
 30
0.0
 11
254.744
 21
21.8336
 31
0.0
  0
LINE
  8
0
 62
     0
 10
254.744
 20
21.8336
 30
0.0
 11
240.743
 21
21.8336
 31
0.0
  0
LINE
  8
0
 62
     0
 10
240.743
 20
21.8336
 30
0.0
 11
240.743
 21
35.833
 31
0.0
  0
LINE
  8
0
 62
     0
 10
219.312
 20
35.833
 30
0.0
 11
233.313
 21
35.833
 31
0.0
  0
LINE
  8
0
 62
     0
 10
233.313
 20
35.833
 30
0.0
 11
233.313
 21
21.8336
 31
0.0
  0
LINE
  8
0
 62
     0
 10
233.313
 20
21.8336
 30
0.0
 11
219.312
 21
21.8336
 31
0.0
  0
LINE
  8
0
 62
     0
 10
219.312
 20
21.8336
 30
0.0
 11
219.312
 21
35.833
 31
0.0
  0
LINE
  8
0
 62
     0
 10
193.118
 20
35.833
 30
0.0
 11
209.5
 21
35.833
 31
0.0
  0
LINE
  8
0
 62
     0
 10
209.5
 20
35.833
 30
0.0
 11
209.5
 21
21.8336
 31
0.0
  0
LINE
  8
0
 62
     0
 10
209.5
 20
21.8336
 30
0.0
 11
193.118
 21
21.8336
 31
0.0
  0
LINE
  8
0
 62
     0
 10
193.118
 20
21.8336
 30
0.0
 11
193.118
 21
35.833
 31
0.0
  0
LINE
  8
0
 62
     0
 10
52.626
 20
35.833
 30
0.0
 11
73.769
 21
35.833
 31
0.0
  0
LINE
  8
0
 62
     0
 10
73.769
 20
35.833
 30
0.0
 11
73.769
 21
21.8336
 31
0.0
  0
LINE
  8
0
 62
     0
 10
73.769
 20
21.8336
 30
0.0
 11
52.626
 21
21.8336
 31
0.0
  0
LINE
  8
0
 62
     0
 10
52.626
 20
21.8336
 30
0.0
 11
52.626
 21
35.833
 31
0.0
  0
LINE
  8
0
 62
     0
 10
31.1947
 20
35.833
 30
0.0
 11
47.5753
 21
35.833
 31
0.0
  0
LINE
  8
0
 62
     0
 10
47.5753
 20
35.833
 30
0.0
 11
47.5753
 21
21.8336
 31
0.0
  0
LINE
  8
0
 62
     0
 10
47.5753
 20
21.8336
 30
0.0
 11
31.1947
 21
21.8336
 31
0.0
  0
LINE
  8
0
 62
     0
 10
31.1947
 20
21.8336
 30
0.0
 11
31.1947
 21
35.833
 31
0.0
  0
LINE
  8
0
 62
     0
 10
7.38216
 20
35.833
 30
0.0
 11
21.3817
 21
35.833
 31
0.0
  0
LINE
  8
0
 62
     0
 10
21.3817
 20
35.833
 30
0.0
 11
21.3817
 21
21.8336
 31
0.0
  0
LINE
  8
0
 62
     0
 10
21.3817
 20
21.8336
 30
0.0
 11
7.38216
 21
21.8336
 31
0.0
  0
LINE
  8
0
 62
     0
 10
7.38216
 20
21.8336
 30
0.0
 11
7.38216
 21
35.833
 31
0.0
  0
LINE
  8
0
 62
     0
 10
252.65
 20
54.8831
 30
0.0
 11
252.65
 21
50.1826
 31
0.0
  0
LINE
  8
0
 62
     0
 10
252.65
 20
50.1826
 30
0.0
 11
251.126
 21
50.1826
 31
0.0
  0
LINE
  8
0
 62
     0
 10
251.126
 20
50.1826
 30
0.0
 11
251.126
 21
53.4127
 31
0.0
  0
LINE
  8
0
 62
     0
 10
251.126
 20
53.4127
 30
0.0
 11
249.4
 21
53.4127
 31
0.0
  0
LINE
  8
0
 62
     0
 10
249.4
 20
53.4127
 30
0.0
 11
249.4
 21
54.3348
 31
0.0
  0
LINE
  8
0
 62
     0
 10
249.4
 20
54.3348
 30
0.0
 11
246.101
 21
54.3348
 31
0.0
  0
LINE
  8
0
 62
     0
 10
246.101
 20
54.3348
 30
0.0
 11
246.101
 21
53.4127
 31
0.0
  0
LINE
  8
0
 62
     0
 10
246.101
 20
53.4127
 30
0.0
 11
244.376
 21
53.4127
 31
0.0
  0
LINE
  8
0
 62
     0
 10
244.376
 20
53.4127
 30
0.0
 11
244.376
 21
50.1826
 31
0.0
  0
LINE
  8
0
 62
     0
 10
244.376
 20
50.1826
 30
0.0
 11
243.55
 21
50.1826
 31
0.0
  0
LINE
  8
0
 62
     0
 10
243.55
 20
50.1826
 30
0.0
 11
243.55
 21
47.3837
 31
0.0
  0
LINE
  8
0
 62
     0
 10
243.55
 20
47.3837
 30
0.0
 11
244.376
 21
47.3837
 31
0.0
  0
LINE
  8
0
 62
     0
 10
244.376
 20
47.3837
 30
0.0
 11
244.376
 21
41.1138
 31
0.0
  0
LINE
  8
0
 62
     0
 10
244.376
 20
41.1138
 30
0.0
 11
246.101
 21
41.1138
 31
0.0
  0
LINE
  8
0
 62
     0
 10
246.101
 20
41.1138
 30
0.0
 11
246.101
 21
40.1327
 31
0.0
  0
LINE
  8
0
 62
     0
 10
246.101
 20
40.1327
 30
0.0
 11
249.4
 21
40.1327
 31
0.0
  0
LINE
  8
0
 62
     0
 10
249.4
 20
40.1327
 30
0.0
 11
249.4
 21
41.1138
 31
0.0
  0
LINE
  8
0
 62
     0
 10
249.4
 20
41.1138
 30
0.0
 11
251.126
 21
41.1138
 31
0.0
  0
LINE
  8
0
 62
     0
 10
251.126
 20
41.1138
 30
0.0
 11
251.126
 21
45.5828
 31
0.0
  0
LINE
  8
0
 62
     0
 10
251.126
 20
45.5828
 30
0.0
 11
252.65
 21
45.5828
 31
0.0
  0
LINE
  8
0
 62
     0
 10
252.65
 20
45.5828
 30
0.0
 11
252.65
 21
40.8838
 31
0.0
  0
LINE
  8
0
 62
     0
 10
252.65
 20
40.8838
 30
0.0
 11
266.65
 21
40.8838
 31
0.0
  0
LINE
  8
0
 62
     0
 10
266.65
 20
40.8838
 30
0.0
 11
266.65
 21
45.5828
 31
0.0
  0
LINE
  8
0
 62
     0
 10
266.65
 20
45.5828
 30
0.0
 11
268.176
 21
45.5828
 31
0.0
  0
LINE
  8
0
 62
     0
 10
268.176
 20
45.5828
 30
0.0
 11
268.176
 21
41.1138
 31
0.0
  0
LINE
  8
0
 62
     0
 10
268.176
 20
41.1138
 30
0.0
 11
269.901
 21
41.1138
 31
0.0
  0
LINE
  8
0
 62
     0
 10
269.901
 20
41.1138
 30
0.0
 11
269.901
 21
40.1327
 31
0.0
  0
LINE
  8
0
 62
     0
 10
269.901
 20
40.1327
 30
0.0
 11
273.2
 21
40.1327
 31
0.0
  0
LINE
  8
0
 62
     0
 10
273.2
 20
40.1327
 30
0.0
 11
273.2
 21
41.1138
 31
0.0
  0
LINE
  8
0
 62
     0
 10
273.2
 20
41.1138
 30
0.0
 11
274.925
 21
41.1138
 31
0.0
  0
LINE
  8
0
 62
     0
 10
274.925
 20
41.1138
 30
0.0
 11
274.925
 21
47.3837
 31
0.0
  0
LINE
  8
0
 62
     0
 10
274.925
 20
47.3837
 30
0.0
 11
275.751
 21
47.3837
 31
0.0
  0
LINE
  8
0
 62
     0
 10
275.751
 20
47.3837
 30
0.0
 11
275.751
 21
50.1826
 31
0.0
  0
LINE
  8
0
 62
     0
 10
275.751
 20
50.1826
 30
0.0
 11
274.925
 21
50.1826
 31
0.0
  0
LINE
  8
0
 62
     0
 10
274.925
 20
50.1826
 30
0.0
 11
274.925
 21
53.4127
 31
0.0
  0
LINE
  8
0
 62
     0
 10
274.925
 20
53.4127
 30
0.0
 11
273.2
 21
53.4127
 31
0.0
  0
LINE
  8
0
 62
     0
 10
273.2
 20
53.4127
 30
0.0
 11
273.2
 21
54.3348
 31
0.0
  0
LINE
  8
0
 62
     0
 10
273.2
 20
54.3348
 30
0.0
 11
269.901
 21
54.3348
 31
0.0
  0
LINE
  8
0
 62
     0
 10
269.901
 20
54.3348
 30
0.0
 11
269.901
 21
53.4127
 31
0.0
  0
LINE
  8
0
 62
     0
 10
269.901
 20
53.4127
 30
0.0
 11
268.176
 21
53.4127
 31
0.0
  0
LINE
  8
0
 62
     0
 10
268.176
 20
53.4127
 30
0.0
 11
268.176
 21
50.1826
 31
0.0
  0
LINE
  8
0
 62
     0
 10
268.176
 20
50.1826
 30
0.0
 11
266.65
 21
50.1826
 31
0.0
  0
LINE
  8
0
 62
     0
 10
266.65
 20
50.1826
 30
0.0
 11
266.65
 21
54.8831
 31
0.0
  0
LINE
  8
0
 62
     0
 10
266.65
 20
54.8831
 30
0.0
 11
252.65
 21
54.8831
 31
0.0
  0
LINE
  8
0
 62
     0
 10
14.5259
 20
54.8831
 30
0.0
 11
14.5259
 21
50.1826
 31
0.0
  0
LINE
  8
0
 62
     0
 10
14.5259
 20
50.1826
 30
0.0
 11
13.0004
 21
50.1826
 31
0.0
  0
LINE
  8
0
 62
     0
 10
13.0004
 20
50.1826
 30
0.0
 11
13.0004
 21
53.4127
 31
0.0
  0
LINE
  8
0
 62
     0
 10
13.0004
 20
53.4127
 30
0.0
 11
11.2751
 21
53.4127
 31
0.0
  0
LINE
  8
0
 62
     0
 10
11.2751
 20
53.4127
 30
0.0
 11
11.2751
 21
54.3348
 31
0.0
  0
LINE
  8
0
 62
     0
 10
11.2751
 20
54.3348
 30
0.0
 11
7.97609
 21
54.3348
 31
0.0
  0
LINE
  8
0
 62
     0
 10
7.97609
 20
54.3348
 30
0.0
 11
7.97609
 21
53.4127
 31
0.0
  0
LINE
  8
0
 62
     0
 10
7.97609
 20
53.4127
 30
0.0
 11
6.2508
 21
53.4127
 31
0.0
  0
LINE
  8
0
 62
     0
 10
6.2508
 20
53.4127
 30
0.0
 11
6.2508
 21
50.1826
 31
0.0
  0
LINE
  8
0
 62
     0
 10
6.2508
 20
50.1826
 30
0.0
 11
5.42533
 21
50.1826
 31
0.0
  0
LINE
  8
0
 62
     0
 10
5.42533
 20
50.1826
 30
0.0
 11
5.42533
 21
47.3837
 31
0.0
  0
LINE
  8
0
 62
     0
 10
5.42533
 20
47.3837
 30
0.0
 11
6.2508
 21
47.3837
 31
0.0
  0
LINE
  8
0
 62
     0
 10
6.2508
 20
47.3837
 30
0.0
 11
6.2508
 21
41.1138
 31
0.0
  0
LINE
  8
0
 62
     0
 10
6.2508
 20
41.1138
 30
0.0
 11
7.97609
 21
41.1138
 31
0.0
  0
LINE
  8
0
 62
     0
 10
7.97609
 20
41.1138
 30
0.0
 11
7.97609
 21
40.1327
 31
0.0
  0
LINE
  8
0
 62
     0
 10
7.97609
 20
40.1327
 30
0.0
 11
11.2751
 21
40.1327
 31
0.0
  0
LINE
  8
0
 62
     0
 10
11.2751
 20
40.1327
 30
0.0
 11
11.2751
 21
41.1138
 31
0.0
  0
LINE
  8
0
 62
     0
 10
11.2751
 20
41.1138
 30
0.0
 11
13.0004
 21
41.1138
 31
0.0
  0
LINE
  8
0
 62
     0
 10
13.0004
 20
41.1138
 30
0.0
 11
13.0004
 21
45.5828
 31
0.0
  0
LINE
  8
0
 62
     0
 10
13.0004
 20
45.5828
 30
0.0
 11
14.5259
 21
45.5828
 31
0.0
  0
LINE
  8
0
 62
     0
 10
14.5259
 20
45.5828
 30
0.0
 11
14.5259
 21
40.8838
 31
0.0
  0
LINE
  8
0
 62
     0
 10
14.5259
 20
40.8838
 30
0.0
 11
28.5254
 21
40.8838
 31
0.0
  0
LINE
  8
0
 62
     0
 10
28.5254
 20
40.8838
 30
0.0
 11
28.5254
 21
45.5828
 31
0.0
  0
LINE
  8
0
 62
     0
 10
28.5254
 20
45.5828
 30
0.0
 11
30.0509
 21
45.5828
 31
0.0
  0
LINE
  8
0
 62
     0
 10
30.0509
 20
45.5828
 30
0.0
 11
30.0509
 21
41.1138
 31
0.0
  0
LINE
  8
0
 62
     0
 10
30.0509
 20
41.1138
 30
0.0
 11
31.7748
 21
41.1138
 31
0.0
  0
LINE
  8
0
 62
     0
 10
31.7748
 20
41.1138
 30
0.0
 11
31.7748
 21
40.1327
 31
0.0
  0
LINE
  8
0
 62
     0
 10
31.7748
 20
40.1327
 30
0.0
 11
35.0752
 21
40.1327
 31
0.0
  0
LINE
  8
0
 62
     0
 10
35.0752
 20
40.1327
 30
0.0
 11
35.0752
 21
41.1138
 31
0.0
  0
LINE
  8
0
 62
     0
 10
35.0752
 20
41.1138
 30
0.0
 11
36.8004
 21
41.1138
 31
0.0
  0
LINE
  8
0
 62
     0
 10
36.8004
 20
41.1138
 30
0.0
 11
36.8004
 21
47.3837
 31
0.0
  0
LINE
  8
0
 62
     0
 10
36.8004
 20
47.3837
 30
0.0
 11
37.6259
 21
47.3837
 31
0.0
  0
LINE
  8
0
 62
     0
 10
37.6259
 20
47.3837
 30
0.0
 11
37.6259
 21
50.1826
 31
0.0
  0
LINE
  8
0
 62
     0
 10
37.6259
 20
50.1826
 30
0.0
 11
36.8004
 21
50.1826
 31
0.0
  0
LINE
  8
0
 62
     0
 10
36.8004
 20
50.1826
 30
0.0
 11
36.8004
 21
53.4127
 31
0.0
  0
LINE
  8
0
 62
     0
 10
36.8004
 20
53.4127
 30
0.0
 11
35.0752
 21
53.4127
 31
0.0
  0
LINE
  8
0
 62
     0
 10
35.0752
 20
53.4127
 30
0.0
 11
35.0752
 21
54.3348
 31
0.0
  0
LINE
  8
0
 62
     0
 10
35.0752
 20
54.3348
 30
0.0
 11
31.7748
 21
54.3348
 31
0.0
  0
LINE
  8
0
 62
     0
 10
31.7748
 20
54.3348
 30
0.0
 11
31.7748
 21
53.4127
 31
0.0
  0
LINE
  8
0
 62
     0
 10
31.7748
 20
53.4127
 30
0.0
 11
30.0509
 21
53.4127
 31
0.0
  0
LINE
  8
0
 62
     0
 10
30.0509
 20
53.4127
 30
0.0
 11
30.0509
 21
50.1826
 31
0.0
  0
LINE
  8
0
 62
     0
 10
30.0509
 20
50.1826
 30
0.0
 11
28.5254
 21
50.1826
 31
0.0
  0
LINE
  8
0
 62
     0
 10
28.5254
 20
50.1826
 30
0.0
 11
28.5254
 21
54.8831
 31
0.0
  0
LINE
  8
0
 62
     0
 10
28.5254
 20
54.8831
 30
0.0
 11
14.5259
 21
54.8831
 31
0.0
  0
LINE
  8
0
 62
     0
 10
216.932
 20
54.8831
 30
0.0
 11
230.932
 21
54.8831
 31
0.0
  0
LINE
  8
0
 62
     0
 10
230.932
 20
54.8831
 30
0.0
 11
230.932
 21
40.8838
 31
0.0
  0
LINE
  8
0
 62
     0
 10
230.932
 20
40.8838
 30
0.0
 11
216.932
 21
40.8838
 31
0.0
  0
LINE
  8
0
 62
     0
 10
216.932
 20
40.8838
 30
0.0
 11
216.932
 21
54.8831
 31
0.0
  0
LINE
  8
0
 62
     0
 10
197.882
 20
54.8831
 30
0.0
 11
211.882
 21
54.8831
 31
0.0
  0
LINE
  8
0
 62
     0
 10
211.882
 20
54.8831
 30
0.0
 11
211.882
 21
40.8838
 31
0.0
  0
LINE
  8
0
 62
     0
 10
211.882
 20
40.8838
 30
0.0
 11
197.882
 21
40.8838
 31
0.0
  0
LINE
  8
0
 62
     0
 10
197.882
 20
40.8838
 30
0.0
 11
197.882
 21
54.8831
 31
0.0
  0
LINE
  8
0
 62
     0
 10
178.832
 20
54.8831
 30
0.0
 11
192.832
 21
54.8831
 31
0.0
  0
LINE
  8
0
 62
     0
 10
192.832
 20
54.8831
 30
0.0
 11
192.832
 21
40.8838
 31
0.0
  0
LINE
  8
0
 62
     0
 10
192.832
 20
40.8838
 30
0.0
 11
178.832
 21
40.8838
 31
0.0
  0
LINE
  8
0
 62
     0
 10
178.832
 20
40.8838
 30
0.0
 11
178.832
 21
54.8831
 31
0.0
  0
LINE
  8
0
 62
     0
 10
159.782
 20
54.8831
 30
0.0
 11
173.782
 21
54.8831
 31
0.0
  0
LINE
  8
0
 62
     0
 10
173.782
 20
54.8831
 30
0.0
 11
173.782
 21
40.8838
 31
0.0
  0
LINE
  8
0
 62
     0
 10
173.782
 20
40.8838
 30
0.0
 11
159.782
 21
40.8838
 31
0.0
  0
LINE
  8
0
 62
     0
 10
159.782
 20
40.8838
 30
0.0
 11
159.782
 21
54.8831
 31
0.0
  0
LINE
  8
0
 62
     0
 10
140.732
 20
54.8831
 30
0.0
 11
154.732
 21
54.8831
 31
0.0
  0
LINE
  8
0
 62
     0
 10
154.732
 20
54.8831
 30
0.0
 11
154.732
 21
40.8838
 31
0.0
  0
LINE
  8
0
 62
     0
 10
154.732
 20
40.8838
 30
0.0
 11
140.732
 21
40.8838
 31
0.0
  0
LINE
  8
0
 62
     0
 10
140.732
 20
40.8838
 30
0.0
 11
140.732
 21
54.8831
 31
0.0
  0
LINE
  8
0
 62
     0
 10
121.682
 20
54.8831
 30
0.0
 11
135.682
 21
54.8831
 31
0.0
  0
LINE
  8
0
 62
     0
 10
135.682
 20
54.8831
 30
0.0
 11
135.682
 21
40.8838
 31
0.0
  0
LINE
  8
0
 62
     0
 10
135.682
 20
40.8838
 30
0.0
 11
121.682
 21
40.8838
 31
0.0
  0
LINE
  8
0
 62
     0
 10
121.682
 20
40.8838
 30
0.0
 11
121.682
 21
54.8831
 31
0.0
  0
LINE
  8
0
 62
     0
 10
102.632
 20
54.8831
 30
0.0
 11
116.632
 21
54.8831
 31
0.0
  0
LINE
  8
0
 62
     0
 10
116.632
 20
54.8831
 30
0.0
 11
116.632
 21
40.8838
 31
0.0
  0
LINE
  8
0
 62
     0
 10
116.632
 20
40.8838
 30
0.0
 11
102.632
 21
40.8838
 31
0.0
  0
LINE
  8
0
 62
     0
 10
102.632
 20
40.8838
 30
0.0
 11
102.632
 21
54.8831
 31
0.0
  0
LINE
  8
0
 62
     0
 10
83.5822
 20
54.8831
 30
0.0
 11
97.5815
 21
54.8831
 31
0.0
  0
LINE
  8
0
 62
     0
 10
97.5815
 20
54.8831
 30
0.0
 11
97.5815
 21
40.8838
 31
0.0
  0
LINE
  8
0
 62
     0
 10
97.5815
 20
40.8838
 30
0.0
 11
83.5822
 21
40.8838
 31
0.0
  0
LINE
  8
0
 62
     0
 10
83.5822
 20
40.8838
 30
0.0
 11
83.5822
 21
54.8831
 31
0.0
  0
LINE
  8
0
 62
     0
 10
64.5322
 20
54.8831
 30
0.0
 11
78.5315
 21
54.8831
 31
0.0
  0
LINE
  8
0
 62
     0
 10
78.5315
 20
54.8831
 30
0.0
 11
78.5315
 21
40.8838
 31
0.0
  0
LINE
  8
0
 62
     0
 10
78.5315
 20
40.8838
 30
0.0
 11
64.5322
 21
40.8838
 31
0.0
  0
LINE
  8
0
 62
     0
 10
64.5322
 20
40.8838
 30
0.0
 11
64.5322
 21
54.8831
 31
0.0
  0
LINE
  8
0
 62
     0
 10
45.4822
 20
54.8831
 30
0.0
 11
59.4815
 21
54.8831
 31
0.0
  0
LINE
  8
0
 62
     0
 10
59.4815
 20
54.8831
 30
0.0
 11
59.4815
 21
40.8838
 31
0.0
  0
LINE
  8
0
 62
     0
 10
59.4815
 20
40.8838
 30
0.0
 11
45.4822
 21
40.8838
 31
0.0
  0
LINE
  8
0
 62
     0
 10
45.4822
 20
40.8838
 30
0.0
 11
45.4822
 21
54.8831
 31
0.0
  0
LINE
  8
0
 62
     0
 10
257.412
 20
73.9331
 30
0.0
 11
257.412
 21
69.2326
 31
0.0
  0
LINE
  8
0
 62
     0
 10
257.412
 20
69.2326
 30
0.0
 11
255.888
 21
69.2326
 31
0.0
  0
LINE
  8
0
 62
     0
 10
255.888
 20
69.2326
 30
0.0
 11
255.888
 21
72.4627
 31
0.0
  0
LINE
  8
0
 62
     0
 10
255.888
 20
72.4627
 30
0.0
 11
254.161
 21
72.4627
 31
0.0
  0
LINE
  8
0
 62
     0
 10
254.161
 20
72.4627
 30
0.0
 11
254.161
 21
73.3834
 31
0.0
  0
LINE
  8
0
 62
     0
 10
254.161
 20
73.3834
 30
0.0
 11
250.862
 21
73.3834
 31
0.0
  0
LINE
  8
0
 62
     0
 10
250.862
 20
73.3834
 30
0.0
 11
250.862
 21
72.4627
 31
0.0
  0
LINE
  8
0
 62
     0
 10
250.862
 20
72.4627
 30
0.0
 11
249.137
 21
72.4627
 31
0.0
  0
LINE
  8
0
 62
     0
 10
249.137
 20
72.4627
 30
0.0
 11
249.137
 21
69.2326
 31
0.0
  0
LINE
  8
0
 62
     0
 10
249.137
 20
69.2326
 30
0.0
 11
248.313
 21
69.2326
 31
0.0
  0
LINE
  8
0
 62
     0
 10
248.313
 20
69.2326
 30
0.0
 11
248.313
 21
66.4337
 31
0.0
  0
LINE
  8
0
 62
     0
 10
248.313
 20
66.4337
 30
0.0
 11
249.137
 21
66.4337
 31
0.0
  0
LINE
  8
0
 62
     0
 10
249.137
 20
66.4337
 30
0.0
 11
249.137
 21
60.1638
 31
0.0
  0
LINE
  8
0
 62
     0
 10
249.137
 20
60.1638
 30
0.0
 11
250.862
 21
60.1638
 31
0.0
  0
LINE
  8
0
 62
     0
 10
250.862
 20
60.1638
 30
0.0
 11
250.862
 21
59.1827
 31
0.0
  0
LINE
  8
0
 62
     0
 10
250.862
 20
59.1827
 30
0.0
 11
254.161
 21
59.1827
 31
0.0
  0
LINE
  8
0
 62
     0
 10
254.161
 20
59.1827
 30
0.0
 11
254.161
 21
60.1638
 31
0.0
  0
LINE
  8
0
 62
     0
 10
254.161
 20
60.1638
 30
0.0
 11
255.888
 21
60.1638
 31
0.0
  0
LINE
  8
0
 62
     0
 10
255.888
 20
60.1638
 30
0.0
 11
255.888
 21
64.6328
 31
0.0
  0
LINE
  8
0
 62
     0
 10
255.888
 20
64.6328
 30
0.0
 11
257.412
 21
64.6328
 31
0.0
  0
LINE
  8
0
 62
     0
 10
257.412
 20
64.6328
 30
0.0
 11
257.412
 21
59.9338
 31
0.0
  0
LINE
  8
0
 62
     0
 10
257.412
 20
59.9338
 30
0.0
 11
271.413
 21
59.9338
 31
0.0
  0
LINE
  8
0
 62
     0
 10
271.413
 20
59.9338
 30
0.0
 11
271.413
 21
64.6328
 31
0.0
  0
LINE
  8
0
 62
     0
 10
271.413
 20
64.6328
 30
0.0
 11
272.937
 21
64.6328
 31
0.0
  0
LINE
  8
0
 62
     0
 10
272.937
 20
64.6328
 30
0.0
 11
272.937
 21
60.1638
 31
0.0
  0
LINE
  8
0
 62
     0
 10
272.937
 20
60.1638
 30
0.0
 11
274.662
 21
60.1638
 31
0.0
  0
LINE
  8
0
 62
     0
 10
274.662
 20
60.1638
 30
0.0
 11
274.662
 21
59.1827
 31
0.0
  0
LINE
  8
0
 62
     0
 10
274.662
 20
59.1827
 30
0.0
 11
277.963
 21
59.1827
 31
0.0
  0
LINE
  8
0
 62
     0
 10
277.963
 20
59.1827
 30
0.0
 11
277.963
 21
60.1638
 31
0.0
  0
LINE
  8
0
 62
     0
 10
277.963
 20
60.1638
 30
0.0
 11
279.688
 21
60.1638
 31
0.0
  0
LINE
  8
0
 62
     0
 10
279.688
 20
60.1638
 30
0.0
 11
279.688
 21
66.4337
 31
0.0
  0
LINE
  8
0
 62
     0
 10
279.688
 20
66.4337
 30
0.0
 11
280.512
 21
66.4337
 31
0.0
  0
LINE
  8
0
 62
     0
 10
280.512
 20
66.4337
 30
0.0
 11
280.512
 21
69.2326
 31
0.0
  0
LINE
  8
0
 62
     0
 10
280.512
 20
69.2326
 30
0.0
 11
279.688
 21
69.2326
 31
0.0
  0
LINE
  8
0
 62
     0
 10
279.688
 20
69.2326
 30
0.0
 11
279.688
 21
72.4627
 31
0.0
  0
LINE
  8
0
 62
     0
 10
279.688
 20
72.4627
 30
0.0
 11
277.963
 21
72.4627
 31
0.0
  0
LINE
  8
0
 62
     0
 10
277.963
 20
72.4627
 30
0.0
 11
277.963
 21
73.3834
 31
0.0
  0
LINE
  8
0
 62
     0
 10
277.963
 20
73.3834
 30
0.0
 11
274.662
 21
73.3834
 31
0.0
  0
LINE
  8
0
 62
     0
 10
274.662
 20
73.3834
 30
0.0
 11
274.662
 21
72.4627
 31
0.0
  0
LINE
  8
0
 62
     0
 10
274.662
 20
72.4627
 30
0.0
 11
272.937
 21
72.4627
 31
0.0
  0
LINE
  8
0
 62
     0
 10
272.937
 20
72.4627
 30
0.0
 11
272.937
 21
69.2326
 31
0.0
  0
LINE
  8
0
 62
     0
 10
272.937
 20
69.2326
 30
0.0
 11
271.413
 21
69.2326
 31
0.0
  0
LINE
  8
0
 62
     0
 10
271.413
 20
69.2326
 30
0.0
 11
271.413
 21
73.9331
 31
0.0
  0
LINE
  8
0
 62
     0
 10
271.413
 20
73.9331
 30
0.0
 11
257.412
 21
73.9331
 31
0.0
  0
LINE
  8
0
 62
     0
 10
226.457
 20
73.9331
 30
0.0
 11
240.457
 21
73.9331
 31
0.0
  0
LINE
  8
0
 62
     0
 10
240.457
 20
73.9331
 30
0.0
 11
240.457
 21
59.9338
 31
0.0
  0
LINE
  8
0
 62
     0
 10
240.457
 20
59.9338
 30
0.0
 11
226.457
 21
59.9338
 31
0.0
  0
LINE
  8
0
 62
     0
 10
226.457
 20
59.9338
 30
0.0
 11
226.457
 21
73.9331
 31
0.0
  0
LINE
  8
0
 62
     0
 10
207.407
 20
73.9331
 30
0.0
 11
221.407
 21
73.9331
 31
0.0
  0
LINE
  8
0
 62
     0
 10
221.407
 20
73.9331
 30
0.0
 11
221.407
 21
59.9338
 31
0.0
  0
LINE
  8
0
 62
     0
 10
221.407
 20
59.9338
 30
0.0
 11
207.407
 21
59.9338
 31
0.0
  0
LINE
  8
0
 62
     0
 10
207.407
 20
59.9338
 30
0.0
 11
207.407
 21
73.9331
 31
0.0
  0
LINE
  8
0
 62
     0
 10
188.357
 20
73.9331
 30
0.0
 11
202.357
 21
73.9331
 31
0.0
  0
LINE
  8
0
 62
     0
 10
202.357
 20
73.9331
 30
0.0
 11
202.357
 21
59.9338
 31
0.0
  0
LINE
  8
0
 62
     0
 10
202.357
 20
59.9338
 30
0.0
 11
188.357
 21
59.9338
 31
0.0
  0
LINE
  8
0
 62
     0
 10
188.357
 20
59.9338
 30
0.0
 11
188.357
 21
73.9331
 31
0.0
  0
LINE
  8
0
 62
     0
 10
169.307
 20
73.9331
 30
0.0
 11
183.307
 21
73.9331
 31
0.0
  0
LINE
  8
0
 62
     0
 10
183.307
 20
73.9331
 30
0.0
 11
183.307
 21
59.9338
 31
0.0
  0
LINE
  8
0
 62
     0
 10
183.307
 20
59.9338
 30
0.0
 11
169.307
 21
59.9338
 31
0.0
  0
LINE
  8
0
 62
     0
 10
169.307
 20
59.9338
 30
0.0
 11
169.307
 21
73.9331
 31
0.0
  0
LINE
  8
0
 62
     0
 10
150.257
 20
73.9331
 30
0.0
 11
164.257
 21
73.9331
 31
0.0
  0
LINE
  8
0
 62
     0
 10
164.257
 20
73.9331
 30
0.0
 11
164.257
 21
59.9338
 31
0.0
  0
LINE
  8
0
 62
     0
 10
164.257
 20
59.9338
 30
0.0
 11
150.257
 21
59.9338
 31
0.0
  0
LINE
  8
0
 62
     0
 10
150.257
 20
59.9338
 30
0.0
 11
150.257
 21
73.9331
 31
0.0
  0
LINE
  8
0
 62
     0
 10
131.207
 20
73.9331
 30
0.0
 11
145.207
 21
73.9331
 31
0.0
  0
LINE
  8
0
 62
     0
 10
145.207
 20
73.9331
 30
0.0
 11
145.207
 21
59.9338
 31
0.0
  0
LINE
  8
0
 62
     0
 10
145.207
 20
59.9338
 30
0.0
 11
131.207
 21
59.9338
 31
0.0
  0
LINE
  8
0
 62
     0
 10
131.207
 20
59.9338
 30
0.0
 11
131.207
 21
73.9331
 31
0.0
  0
LINE
  8
0
 62
     0
 10
112.157
 20
73.9331
 30
0.0
 11
126.157
 21
73.9331
 31
0.0
  0
LINE
  8
0
 62
     0
 10
126.157
 20
73.9331
 30
0.0
 11
126.157
 21
59.9338
 31
0.0
  0
LINE
  8
0
 62
     0
 10
126.157
 20
59.9338
 30
0.0
 11
112.157
 21
59.9338
 31
0.0
  0
LINE
  8
0
 62
     0
 10
112.157
 20
59.9338
 30
0.0
 11
112.157
 21
73.9331
 31
0.0
  0
LINE
  8
0
 62
     0
 10
93.1072
 20
73.9331
 30
0.0
 11
107.107
 21
73.9331
 31
0.0
  0
LINE
  8
0
 62
     0
 10
107.107
 20
73.9331
 30
0.0
 11
107.107
 21
59.9338
 31
0.0
  0
LINE
  8
0
 62
     0
 10
107.107
 20
59.9338
 30
0.0
 11
93.1072
 21
59.9338
 31
0.0
  0
LINE
  8
0
 62
     0
 10
93.1072
 20
59.9338
 30
0.0
 11
93.1072
 21
73.9331
 31
0.0
  0
LINE
  8
0
 62
     0
 10
74.0572
 20
73.9331
 30
0.0
 11
88.0565
 21
73.9331
 31
0.0
  0
LINE
  8
0
 62
     0
 10
88.0565
 20
73.9331
 30
0.0
 11
88.0565
 21
59.9338
 31
0.0
  0
LINE
  8
0
 62
     0
 10
88.0565
 20
59.9338
 30
0.0
 11
74.0572
 21
59.9338
 31
0.0
  0
LINE
  8
0
 62
     0
 10
74.0572
 20
59.9338
 30
0.0
 11
74.0572
 21
73.9331
 31
0.0
  0
LINE
  8
0
 62
     0
 10
55.0072
 20
73.9331
 30
0.0
 11
69.0065
 21
73.9331
 31
0.0
  0
LINE
  8
0
 62
     0
 10
69.0065
 20
73.9331
 30
0.0
 11
69.0065
 21
59.9338
 31
0.0
  0
LINE
  8
0
 62
     0
 10
69.0065
 20
59.9338
 30
0.0
 11
55.0072
 21
59.9338
 31
0.0
  0
LINE
  8
0
 62
     0
 10
55.0072
 20
59.9338
 30
0.0
 11
55.0072
 21
73.9331
 31
0.0
  0
LINE
  8
0
 62
     0
 10
35.9572
 20
73.9331
 30
0.0
 11
49.9565
 21
73.9331
 31
0.0
  0
LINE
  8
0
 62
     0
 10
49.9565
 20
73.9331
 30
0.0
 11
49.9565
 21
59.9338
 31
0.0
  0
LINE
  8
0
 62
     0
 10
49.9565
 20
59.9338
 30
0.0
 11
35.9572
 21
59.9338
 31
0.0
  0
LINE
  8
0
 62
     0
 10
35.9572
 20
59.9338
 30
0.0
 11
35.9572
 21
73.9331
 31
0.0
  0
LINE
  8
0
 62
     0
 10
9.76203
 20
73.9331
 30
0.0
 11
23.7629
 21
73.9331
 31
0.0
  0
LINE
  8
0
 62
     0
 10
23.7629
 20
73.9331
 30
0.0
 11
23.7629
 21
59.9338
 31
0.0
  0
LINE
  8
0
 62
     0
 10
23.7629
 20
59.9338
 30
0.0
 11
9.76203
 21
59.9338
 31
0.0
  0
LINE
  8
0
 62
     0
 10
9.76203
 20
59.9338
 30
0.0
 11
9.76203
 21
73.9331
 31
0.0
  0
LINE
  8
0
 62
     0
 10
264.557
 20
92.9831
 30
0.0
 11
278.557
 21
92.9831
 31
0.0
  0
LINE
  8
0
 62
     0
 10
278.557
 20
92.9831
 30
0.0
 11
278.557
 21
78.9838
 31
0.0
  0
LINE
  8
0
 62
     0
 10
278.557
 20
78.9838
 30
0.0
 11
264.557
 21
78.9838
 31
0.0
  0
LINE
  8
0
 62
     0
 10
264.557
 20
78.9838
 30
0.0
 11
264.557
 21
92.9831
 31
0.0
  0
LINE
  8
0
 62
     0
 10
240.745
 20
92.9831
 30
0.0
 11
254.744
 21
92.9831
 31
0.0
  0
LINE
  8
0
 62
     0
 10
254.744
 20
92.9831
 30
0.0
 11
254.744
 21
78.9838
 31
0.0
  0
LINE
  8
0
 62
     0
 10
254.744
 20
78.9838
 30
0.0
 11
240.745
 21
78.9838
 31
0.0
  0
LINE
  8
0
 62
     0
 10
240.745
 20
78.9838
 30
0.0
 11
240.745
 21
92.9831
 31
0.0
  0
LINE
  8
0
 62
     0
 10
221.695
 20
92.9831
 30
0.0
 11
235.694
 21
92.9831
 31
0.0
  0
LINE
  8
0
 62
     0
 10
235.694
 20
92.9831
 30
0.0
 11
235.694
 21
78.9838
 31
0.0
  0
LINE
  8
0
 62
     0
 10
235.694
 20
78.9838
 30
0.0
 11
221.695
 21
78.9838
 31
0.0
  0
LINE
  8
0
 62
     0
 10
221.695
 20
78.9838
 30
0.0
 11
221.695
 21
92.9831
 31
0.0
  0
LINE
  8
0
 62
     0
 10
202.645
 20
92.9831
 30
0.0
 11
216.644
 21
92.9831
 31
0.0
  0
LINE
  8
0
 62
     0
 10
216.644
 20
92.9831
 30
0.0
 11
216.644
 21
78.9838
 31
0.0
  0
LINE
  8
0
 62
     0
 10
216.644
 20
78.9838
 30
0.0
 11
202.645
 21
78.9838
 31
0.0
  0
LINE
  8
0
 62
     0
 10
202.645
 20
78.9838
 30
0.0
 11
202.645
 21
92.9831
 31
0.0
  0
LINE
  8
0
 62
     0
 10
183.595
 20
92.9831
 30
0.0
 11
197.594
 21
92.9831
 31
0.0
  0
LINE
  8
0
 62
     0
 10
197.594
 20
92.9831
 30
0.0
 11
197.594
 21
78.9838
 31
0.0
  0
LINE
  8
0
 62
     0
 10
197.594
 20
78.9838
 30
0.0
 11
183.595
 21
78.9838
 31
0.0
  0
LINE
  8
0
 62
     0
 10
183.595
 20
78.9838
 30
0.0
 11
183.595
 21
92.9831
 31
0.0
  0
LINE
  8
0
 62
     0
 10
164.545
 20
92.9831
 30
0.0
 11
178.544
 21
92.9831
 31
0.0
  0
LINE
  8
0
 62
     0
 10
178.544
 20
92.9831
 30
0.0
 11
178.544
 21
78.9838
 31
0.0
  0
LINE
  8
0
 62
     0
 10
178.544
 20
78.9838
 30
0.0
 11
164.545
 21
78.9838
 31
0.0
  0
LINE
  8
0
 62
     0
 10
164.545
 20
78.9838
 30
0.0
 11
164.545
 21
92.9831
 31
0.0
  0
LINE
  8
0
 62
     0
 10
145.495
 20
92.9831
 30
0.0
 11
159.494
 21
92.9831
 31
0.0
  0
LINE
  8
0
 62
     0
 10
159.494
 20
92.9831
 30
0.0
 11
159.494
 21
78.9838
 31
0.0
  0
LINE
  8
0
 62
     0
 10
159.494
 20
78.9838
 30
0.0
 11
145.495
 21
78.9838
 31
0.0
  0
LINE
  8
0
 62
     0
 10
145.495
 20
78.9838
 30
0.0
 11
145.495
 21
92.9831
 31
0.0
  0
LINE
  8
0
 62
     0
 10
126.445
 20
92.9831
 30
0.0
 11
140.444
 21
92.9831
 31
0.0
  0
LINE
  8
0
 62
     0
 10
140.444
 20
92.9831
 30
0.0
 11
140.444
 21
78.9838
 31
0.0
  0
LINE
  8
0
 62
     0
 10
140.444
 20
78.9838
 30
0.0
 11
126.445
 21
78.9838
 31
0.0
  0
LINE
  8
0
 62
     0
 10
126.445
 20
78.9838
 30
0.0
 11
126.445
 21
92.9831
 31
0.0
  0
LINE
  8
0
 62
     0
 10
107.395
 20
92.9831
 30
0.0
 11
121.394
 21
92.9831
 31
0.0
  0
LINE
  8
0
 62
     0
 10
121.394
 20
92.9831
 30
0.0
 11
121.394
 21
78.9838
 31
0.0
  0
LINE
  8
0
 62
     0
 10
121.394
 20
78.9838
 30
0.0
 11
107.395
 21
78.9838
 31
0.0
  0
LINE
  8
0
 62
     0
 10
107.395
 20
78.9838
 30
0.0
 11
107.395
 21
92.9831
 31
0.0
  0
LINE
  8
0
 62
     0
 10
88.3447
 20
92.9831
 30
0.0
 11
102.344
 21
92.9831
 31
0.0
  0
LINE
  8
0
 62
     0
 10
102.344
 20
92.9831
 30
0.0
 11
102.344
 21
78.9838
 31
0.0
  0
LINE
  8
0
 62
     0
 10
102.344
 20
78.9838
 30
0.0
 11
88.3447
 21
78.9838
 31
0.0
  0
LINE
  8
0
 62
     0
 10
88.3447
 20
78.9838
 30
0.0
 11
88.3447
 21
92.9831
 31
0.0
  0
LINE
  8
0
 62
     0
 10
69.2947
 20
92.9831
 30
0.0
 11
83.294
 21
92.9831
 31
0.0
  0
LINE
  8
0
 62
     0
 10
83.294
 20
92.9831
 30
0.0
 11
83.294
 21
78.9838
 31
0.0
  0
LINE
  8
0
 62
     0
 10
83.294
 20
78.9838
 30
0.0
 11
69.2947
 21
78.9838
 31
0.0
  0
LINE
  8
0
 62
     0
 10
69.2947
 20
78.9838
 30
0.0
 11
69.2947
 21
92.9831
 31
0.0
  0
LINE
  8
0
 62
     0
 10
50.2447
 20
92.9831
 30
0.0
 11
64.244
 21
92.9831
 31
0.0
  0
LINE
  8
0
 62
     0
 10
64.244
 20
92.9831
 30
0.0
 11
64.244
 21
78.9838
 31
0.0
  0
LINE
  8
0
 62
     0
 10
64.244
 20
78.9838
 30
0.0
 11
50.2447
 21
78.9838
 31
0.0
  0
LINE
  8
0
 62
     0
 10
50.2447
 20
78.9838
 30
0.0
 11
50.2447
 21
92.9831
 31
0.0
  0
LINE
  8
0
 62
     0
 10
31.1947
 20
92.9831
 30
0.0
 11
45.194
 21
92.9831
 31
0.0
  0
LINE
  8
0
 62
     0
 10
45.194
 20
92.9831
 30
0.0
 11
45.194
 21
78.9838
 31
0.0
  0
LINE
  8
0
 62
     0
 10
45.194
 20
78.9838
 30
0.0
 11
31.1947
 21
78.9838
 31
0.0
  0
LINE
  8
0
 62
     0
 10
31.1947
 20
78.9838
 30
0.0
 11
31.1947
 21
92.9831
 31
0.0
  0
LINE
  8
0
 62
     0
 10
7.38216
 20
92.9831
 30
0.0
 11
21.3817
 21
92.9831
 31
0.0
  0
LINE
  8
0
 62
     0
 10
21.3817
 20
92.9831
 30
0.0
 11
21.3817
 21
78.9838
 31
0.0
  0
LINE
  8
0
 62
     0
 10
21.3817
 20
78.9838
 30
0.0
 11
7.38216
 21
78.9838
 31
0.0
  0
LINE
  8
0
 62
     0
 10
7.38216
 20
78.9838
 30
0.0
 11
7.38216
 21
92.9831
 31
0.0
  0
LINE
  8
0
 62
     0
 10
259.795
 20
112.033
 30
0.0
 11
259.795
 21
107.333
 31
0.0
  0
LINE
  8
0
 62
     0
 10
259.795
 20
107.333
 30
0.0
 11
258.269
 21
107.333
 31
0.0
  0
LINE
  8
0
 62
     0
 10
258.269
 20
107.333
 30
0.0
 11
258.269
 21
110.563
 31
0.0
  0
LINE
  8
0
 62
     0
 10
258.269
 20
110.563
 30
0.0
 11
256.544
 21
110.563
 31
0.0
  0
LINE
  8
0
 62
     0
 10
256.544
 20
110.563
 30
0.0
 11
256.544
 21
111.485
 31
0.0
  0
LINE
  8
0
 62
     0
 10
256.544
 20
111.485
 30
0.0
 11
253.243
 21
111.485
 31
0.0
  0
LINE
  8
0
 62
     0
 10
253.243
 20
111.485
 30
0.0
 11
253.243
 21
110.563
 31
0.0
  0
LINE
  8
0
 62
     0
 10
253.243
 20
110.563
 30
0.0
 11
251.52
 21
110.563
 31
0.0
  0
LINE
  8
0
 62
     0
 10
251.52
 20
110.563
 30
0.0
 11
251.52
 21
107.333
 31
0.0
  0
LINE
  8
0
 62
     0
 10
251.52
 20
107.333
 30
0.0
 11
250.694
 21
107.333
 31
0.0
  0
LINE
  8
0
 62
     0
 10
250.694
 20
107.333
 30
0.0
 11
250.694
 21
104.534
 31
0.0
  0
LINE
  8
0
 62
     0
 10
250.694
 20
104.534
 30
0.0
 11
251.52
 21
104.534
 31
0.0
  0
LINE
  8
0
 62
     0
 10
251.52
 20
104.534
 30
0.0
 11
251.52
 21
98.2638
 31
0.0
  0
LINE
  8
0
 62
     0
 10
251.52
 20
98.2638
 30
0.0
 11
253.243
 21
98.2638
 31
0.0
  0
LINE
  8
0
 62
     0
 10
253.243
 20
98.2638
 30
0.0
 11
253.243
 21
97.2827
 31
0.0
  0
LINE
  8
0
 62
     0
 10
253.243
 20
97.2827
 30
0.0
 11
256.544
 21
97.2827
 31
0.0
  0
LINE
  8
0
 62
     0
 10
256.544
 20
97.2827
 30
0.0
 11
256.544
 21
98.2638
 31
0.0
  0
LINE
  8
0
 62
     0
 10
256.544
 20
98.2638
 30
0.0
 11
258.269
 21
98.2638
 31
0.0
  0
LINE
  8
0
 62
     0
 10
258.269
 20
98.2638
 30
0.0
 11
258.269
 21
102.733
 31
0.0
  0
LINE
  8
0
 62
     0
 10
258.269
 20
102.733
 30
0.0
 11
259.795
 21
102.733
 31
0.0
  0
LINE
  8
0
 62
     0
 10
259.795
 20
102.733
 30
0.0
 11
259.795
 21
98.0338
 31
0.0
  0
LINE
  8
0
 62
     0
 10
259.795
 20
98.0338
 30
0.0
 11
273.794
 21
98.0338
 31
0.0
  0
LINE
  8
0
 62
     0
 10
273.794
 20
98.0338
 30
0.0
 11
273.794
 21
102.733
 31
0.0
  0
LINE
  8
0
 62
     0
 10
273.794
 20
102.733
 30
0.0
 11
275.32
 21
102.733
 31
0.0
  0
LINE
  8
0
 62
     0
 10
275.32
 20
102.733
 30
0.0
 11
275.32
 21
98.2638
 31
0.0
  0
LINE
  8
0
 62
     0
 10
275.32
 20
98.2638
 30
0.0
 11
277.045
 21
98.2638
 31
0.0
  0
LINE
  8
0
 62
     0
 10
277.045
 20
98.2638
 30
0.0
 11
277.045
 21
97.2827
 31
0.0
  0
LINE
  8
0
 62
     0
 10
277.045
 20
97.2827
 30
0.0
 11
280.344
 21
97.2827
 31
0.0
  0
LINE
  8
0
 62
     0
 10
280.344
 20
97.2827
 30
0.0
 11
280.344
 21
98.2638
 31
0.0
  0
LINE
  8
0
 62
     0
 10
280.344
 20
98.2638
 30
0.0
 11
282.069
 21
98.2638
 31
0.0
  0
LINE
  8
0
 62
     0
 10
282.069
 20
98.2638
 30
0.0
 11
282.069
 21
104.534
 31
0.0
  0
LINE
  8
0
 62
     0
 10
282.069
 20
104.534
 30
0.0
 11
282.895
 21
104.534
 31
0.0
  0
LINE
  8
0
 62
     0
 10
282.895
 20
104.534
 30
0.0
 11
282.895
 21
107.333
 31
0.0
  0
LINE
  8
0
 62
     0
 10
282.895
 20
107.333
 30
0.0
 11
282.069
 21
107.333
 31
0.0
  0
LINE
  8
0
 62
     0
 10
282.069
 20
107.333
 30
0.0
 11
282.069
 21
110.563
 31
0.0
  0
LINE
  8
0
 62
     0
 10
282.069
 20
110.563
 30
0.0
 11
280.344
 21
110.563
 31
0.0
  0
LINE
  8
0
 62
     0
 10
280.344
 20
110.563
 30
0.0
 11
280.344
 21
111.485
 31
0.0
  0
LINE
  8
0
 62
     0
 10
280.344
 20
111.485
 30
0.0
 11
277.045
 21
111.485
 31
0.0
  0
LINE
  8
0
 62
     0
 10
277.045
 20
111.485
 30
0.0
 11
277.045
 21
110.563
 31
0.0
  0
LINE
  8
0
 62
     0
 10
277.045
 20
110.563
 30
0.0
 11
275.32
 21
110.563
 31
0.0
  0
LINE
  8
0
 62
     0
 10
275.32
 20
110.563
 30
0.0
 11
275.32
 21
107.333
 31
0.0
  0
LINE
  8
0
 62
     0
 10
275.32
 20
107.333
 30
0.0
 11
273.794
 21
107.333
 31
0.0
  0
LINE
  8
0
 62
     0
 10
273.794
 20
107.333
 30
0.0
 11
273.794
 21
112.033
 31
0.0
  0
LINE
  8
0
 62
     0
 10
273.794
 20
112.033
 30
0.0
 11
259.795
 21
112.033
 31
0.0
  0
LINE
  8
0
 62
     0
 10
231.22
 20
112.033
 30
0.0
 11
245.219
 21
112.033
 31
0.0
  0
LINE
  8
0
 62
     0
 10
245.219
 20
112.033
 30
0.0
 11
245.219
 21
98.0338
 31
0.0
  0
LINE
  8
0
 62
     0
 10
245.219
 20
98.0338
 30
0.0
 11
231.22
 21
98.0338
 31
0.0
  0
LINE
  8
0
 62
     0
 10
231.22
 20
98.0338
 30
0.0
 11
231.22
 21
112.033
 31
0.0
  0
LINE
  8
0
 62
     0
 10
212.17
 20
112.033
 30
0.0
 11
226.169
 21
112.033
 31
0.0
  0
LINE
  8
0
 62
     0
 10
226.169
 20
112.033
 30
0.0
 11
226.169
 21
98.0338
 31
0.0
  0
LINE
  8
0
 62
     0
 10
226.169
 20
98.0338
 30
0.0
 11
212.17
 21
98.0338
 31
0.0
  0
LINE
  8
0
 62
     0
 10
212.17
 20
98.0338
 30
0.0
 11
212.17
 21
112.033
 31
0.0
  0
LINE
  8
0
 62
     0
 10
193.12
 20
112.033
 30
0.0
 11
207.119
 21
112.033
 31
0.0
  0
LINE
  8
0
 62
     0
 10
207.119
 20
112.033
 30
0.0
 11
207.119
 21
98.0338
 31
0.0
  0
LINE
  8
0
 62
     0
 10
207.119
 20
98.0338
 30
0.0
 11
193.12
 21
98.0338
 31
0.0
  0
LINE
  8
0
 62
     0
 10
193.12
 20
98.0338
 30
0.0
 11
193.12
 21
112.033
 31
0.0
  0
LINE
  8
0
 62
     0
 10
174.07
 20
112.033
 30
0.0
 11
188.069
 21
112.033
 31
0.0
  0
LINE
  8
0
 62
     0
 10
188.069
 20
112.033
 30
0.0
 11
188.069
 21
98.0338
 31
0.0
  0
LINE
  8
0
 62
     0
 10
188.069
 20
98.0338
 30
0.0
 11
174.07
 21
98.0338
 31
0.0
  0
LINE
  8
0
 62
     0
 10
174.07
 20
98.0338
 30
0.0
 11
174.07
 21
112.033
 31
0.0
  0
LINE
  8
0
 62
     0
 10
155.02
 20
112.033
 30
0.0
 11
169.019
 21
112.033
 31
0.0
  0
LINE
  8
0
 62
     0
 10
169.019
 20
112.033
 30
0.0
 11
169.019
 21
98.0338
 31
0.0
  0
LINE
  8
0
 62
     0
 10
169.019
 20
98.0338
 30
0.0
 11
155.02
 21
98.0338
 31
0.0
  0
LINE
  8
0
 62
     0
 10
155.02
 20
98.0338
 30
0.0
 11
155.02
 21
112.033
 31
0.0
  0
LINE
  8
0
 62
     0
 10
135.97
 20
112.033
 30
0.0
 11
149.969
 21
112.033
 31
0.0
  0
LINE
  8
0
 62
     0
 10
149.969
 20
112.033
 30
0.0
 11
149.969
 21
98.0338
 31
0.0
  0
LINE
  8
0
 62
     0
 10
149.969
 20
98.0338
 30
0.0
 11
135.97
 21
98.0338
 31
0.0
  0
LINE
  8
0
 62
     0
 10
135.97
 20
98.0338
 30
0.0
 11
135.97
 21
112.033
 31
0.0
  0
LINE
  8
0
 62
     0
 10
116.918
 20
112.033
 30
0.0
 11
130.919
 21
112.033
 31
0.0
  0
LINE
  8
0
 62
     0
 10
130.919
 20
112.033
 30
0.0
 11
130.919
 21
98.0338
 31
0.0
  0
LINE
  8
0
 62
     0
 10
130.919
 20
98.0338
 30
0.0
 11
116.918
 21
98.0338
 31
0.0
  0
LINE
  8
0
 62
     0
 10
116.918
 20
98.0338
 30
0.0
 11
116.918
 21
112.033
 31
0.0
  0
LINE
  8
0
 62
     0
 10
97.8683
 20
112.033
 30
0.0
 11
111.869
 21
112.033
 31
0.0
  0
LINE
  8
0
 62
     0
 10
111.869
 20
112.033
 30
0.0
 11
111.869
 21
98.0338
 31
0.0
  0
LINE
  8
0
 62
     0
 10
111.869
 20
98.0338
 30
0.0
 11
97.8683
 21
98.0338
 31
0.0
  0
LINE
  8
0
 62
     0
 10
97.8683
 20
98.0338
 30
0.0
 11
97.8683
 21
112.033
 31
0.0
  0
LINE
  8
0
 62
     0
 10
78.8197
 20
112.033
 30
0.0
 11
92.819
 21
112.033
 31
0.0
  0
LINE
  8
0
 62
     0
 10
92.819
 20
112.033
 30
0.0
 11
92.819
 21
98.0338
 31
0.0
  0
LINE
  8
0
 62
     0
 10
92.819
 20
98.0338
 30
0.0
 11
78.8197
 21
98.0338
 31
0.0
  0
LINE
  8
0
 62
     0
 10
78.8197
 20
98.0338
 30
0.0
 11
78.8197
 21
112.033
 31
0.0
  0
LINE
  8
0
 62
     0
 10
59.7697
 20
112.033
 30
0.0
 11
73.769
 21
112.033
 31
0.0
  0
LINE
  8
0
 62
     0
 10
73.769
 20
112.033
 30
0.0
 11
73.769
 21
98.0338
 31
0.0
  0
LINE
  8
0
 62
     0
 10
73.769
 20
98.0338
 30
0.0
 11
59.7697
 21
98.0338
 31
0.0
  0
LINE
  8
0
 62
     0
 10
59.7697
 20
98.0338
 30
0.0
 11
59.7697
 21
112.033
 31
0.0
  0
LINE
  8
0
 62
     0
 10
40.7197
 20
112.033
 30
0.0
 11
54.719
 21
112.033
 31
0.0
  0
LINE
  8
0
 62
     0
 10
54.719
 20
112.033
 30
0.0
 11
54.719
 21
98.0338
 31
0.0
  0
LINE
  8
0
 62
     0
 10
54.719
 20
98.0338
 30
0.0
 11
40.7197
 21
98.0338
 31
0.0
  0
LINE
  8
0
 62
     0
 10
40.7197
 20
98.0338
 30
0.0
 11
40.7197
 21
112.033
 31
0.0
  0
LINE
  8
0
 62
     0
 10
21.6697
 20
112.033
 30
0.0
 11
35.669
 21
112.033
 31
0.0
  0
LINE
  8
0
 62
     0
 10
35.669
 20
112.033
 30
0.0
 11
35.669
 21
98.0338
 31
0.0
  0
LINE
  8
0
 62
     0
 10
35.669
 20
98.0338
 30
0.0
 11
21.6697
 21
98.0338
 31
0.0
  0
LINE
  8
0
 62
     0
 10
21.6697
 20
98.0338
 30
0.0
 11
21.6697
 21
112.033
 31
0.0
  0
LINE
  8
0
 62
     0
 10
2.61965
 20
112.033
 30
0.0
 11
16.6192
 21
112.033
 31
0.0
  0
LINE
  8
0
 62
     0
 10
16.6192
 20
112.033
 30
0.0
 11
16.6192
 21
98.0338
 31
0.0
  0
LINE
  8
0
 62
     0
 10
16.6192
 20
98.0338
 30
0.0
 11
2.61965
 21
98.0338
 31
0.0
  0
LINE
  8
0
 62
     0
 10
2.61965
 20
98.0338
 30
0.0
 11
2.61965
 21
112.033
 31
0.0
  0
ENDSEC
  0
EOF
