%TF.GenerationSoftware,KiCad,Pcbnew,(5.1.10)-1*%
%TF.CreationDate,2022-03-06T16:48:14-07:00*%
%TF.ProjectId,Unit000,556e6974-3030-4302-9e6b-696361645f70,rev?*%
%TF.SameCoordinates,Original*%
%TF.FileFunction,Profile,NP*%
%FSLAX46Y46*%
G04 Gerber Fmt 4.6, Leading zero omitted, Abs format (unit mm)*
G04 Created by KiCad (PCBNEW (5.1.10)-1) date 2022-03-06 16:48:14*
%MOMM*%
%LPD*%
G01*
G04 APERTURE LIST*
%TA.AperFunction,Profile*%
%ADD10C,0.200000*%
%TD*%
%TA.AperFunction,Profile*%
%ADD11C,0.100000*%
%TD*%
%TA.AperFunction,Profile*%
%ADD12C,0.050000*%
%TD*%
%TA.AperFunction,Profile*%
%ADD13C,0.120000*%
%TD*%
G04 APERTURE END LIST*
D10*
X146712500Y-109321600D02*
X146712500Y-111100000D01*
X147712500Y-111100000D02*
X147712500Y-110321600D01*
D11*
X147712500Y-116600000D02*
X147712500Y-123210000D01*
X146712500Y-116600000D02*
X146712500Y-123210000D01*
D12*
X147712500Y-147922307D02*
X147712500Y-137210000D01*
X146712500Y-147922307D02*
X146712500Y-137210000D01*
X150094500Y-33900000D02*
X150094500Y-39000000D01*
X149094500Y-33900000D02*
X149094500Y-39000000D01*
X149094500Y-30600000D02*
X149094500Y-28622000D01*
X150094500Y-30600000D02*
X150094500Y-28622000D01*
X147894500Y-33900000D02*
X147894500Y-30600000D01*
X151294500Y-30600000D02*
X151294500Y-33900000D01*
X147894500Y-30600000D02*
X149094500Y-30600000D01*
X147894500Y-33900000D02*
X149094500Y-33900000D01*
X151294500Y-30600000D02*
X150094500Y-30600000D01*
X150094500Y-33900000D02*
X151294500Y-33900000D01*
X150094500Y-52000000D02*
X150094500Y-53171551D01*
X149094500Y-52171550D02*
X149094500Y-52000000D01*
X139569500Y-55300000D02*
X139569500Y-52171550D01*
X140569500Y-55300000D02*
X140569500Y-53171551D01*
X140569500Y-68300000D02*
X140569500Y-71221550D01*
X139569500Y-72221550D02*
X139569500Y-68300000D01*
X145332000Y-71221550D02*
X145332000Y-76270000D01*
X144332000Y-76270000D02*
X144332000Y-72221550D01*
X144332000Y-91271550D02*
X144332000Y-89270000D01*
X145332000Y-90271550D02*
X145332000Y-89270000D01*
X154857000Y-91870000D02*
X154857000Y-90271550D01*
X153857000Y-91870000D02*
X153857000Y-91271550D01*
D10*
X154857000Y-104870000D02*
X154857000Y-110321600D01*
X153857000Y-104870000D02*
X153857000Y-109321600D01*
X301995000Y-33622000D02*
X301995000Y-128871400D01*
X301995000Y-33622000D02*
X301995000Y-29622000D01*
X150094500Y-28622000D02*
X301995000Y-28622000D01*
X16245084Y-29622000D02*
X16245084Y-28622000D01*
X301995000Y-29622000D02*
X301995000Y-28622000D01*
X16245084Y-33622000D02*
X16245084Y-29622000D01*
X224772638Y-128871400D02*
X301995000Y-128871400D01*
X29245084Y-147922307D02*
X146712500Y-147922307D01*
X224772638Y-128871400D02*
X205797138Y-128871400D01*
X16245084Y-28622000D02*
X149094500Y-28622000D01*
X153857000Y-109321600D02*
X146712500Y-109321600D01*
X144332000Y-91271550D02*
X153857000Y-91271550D01*
X139569500Y-72221550D02*
X144332000Y-72221550D01*
X147712500Y-147922307D02*
X172800000Y-147922307D01*
X149094500Y-52171550D02*
X139569500Y-52171550D01*
X154857000Y-110321600D02*
X147712500Y-110321600D01*
X145332000Y-90271550D02*
X154857000Y-90271550D01*
X172800000Y-147922307D02*
X205797138Y-128871400D01*
X140569500Y-71221550D02*
X145332000Y-71221550D01*
X150094500Y-53171551D02*
X140569500Y-53171551D01*
X29245084Y-147922307D02*
X16245084Y-134922308D01*
X16245084Y-134922308D02*
X16245084Y-33622000D01*
D13*
%TO.C,REF\u002A\u002A*%
X147712500Y-116600000D02*
G75*
G03*
X146712500Y-116600000I-500000J0D01*
G01*
X147712500Y-111100000D02*
G75*
G02*
X146712500Y-111100000I-500000J0D01*
G01*
X147712500Y-123210000D02*
G75*
G02*
X146712500Y-123210000I-500000J0D01*
G01*
X147712500Y-137210000D02*
G75*
G03*
X146712500Y-137210000I-500000J0D01*
G01*
X154857000Y-104870000D02*
G75*
G03*
X153857000Y-104870000I-500000J0D01*
G01*
X154857000Y-91870000D02*
G75*
G02*
X153857000Y-91870000I-500000J0D01*
G01*
X145332000Y-89270000D02*
G75*
G03*
X144332000Y-89270000I-500000J0D01*
G01*
X145332000Y-76270000D02*
G75*
G02*
X144332000Y-76270000I-500000J0D01*
G01*
X140569500Y-68300000D02*
G75*
G03*
X139569500Y-68300000I-500000J0D01*
G01*
X140569500Y-55300000D02*
G75*
G02*
X139569500Y-55300000I-500000J0D01*
G01*
X150094500Y-52000000D02*
G75*
G03*
X149094500Y-52000000I-500000J0D01*
G01*
X150094500Y-39000000D02*
G75*
G02*
X149094500Y-39000000I-500000J0D01*
G01*
%TD*%
M02*
