%TF.GenerationSoftware,KiCad,Pcbnew,(5.1.10)-1*%
%TF.CreationDate,2022-03-06T16:48:13-07:00*%
%TF.ProjectId,Unit000,556e6974-3030-4302-9e6b-696361645f70,rev?*%
%TF.SameCoordinates,Original*%
%TF.FileFunction,Soldermask,Top*%
%TF.FilePolarity,Negative*%
%FSLAX46Y46*%
G04 Gerber Fmt 4.6, Leading zero omitted, Abs format (unit mm)*
G04 Created by KiCad (PCBNEW (5.1.10)-1) date 2022-03-06 16:48:13*
%MOMM*%
%LPD*%
G01*
G04 APERTURE LIST*
%ADD10C,3.000000*%
%ADD11C,1.900000*%
%ADD12C,0.100000*%
%ADD13C,1.700000*%
%ADD14C,4.000000*%
%ADD15R,1.500000X1.800000*%
%ADD16R,1.500000X1.000000*%
%ADD17R,1.800000X1.500000*%
%ADD18C,1.400000*%
%ADD19O,1.800000X0.900000*%
%ADD20O,0.900000X1.700000*%
%ADD21O,0.900000X2.400000*%
%ADD22C,0.700000*%
%ADD23C,2.200000*%
%ADD24C,3.987800*%
%ADD25C,3.048000*%
%ADD26C,0.400000*%
G04 APERTURE END LIST*
D10*
%TO.C,SW8*%
X161663260Y-38067600D03*
D11*
X164623260Y-43147600D03*
X153623260Y-43147600D03*
D10*
X155313260Y-40607599D03*
D12*
X155298260Y-40567600D03*
D13*
X154043260Y-43147600D03*
X164203260Y-43147600D03*
D14*
X159123260Y-43147600D03*
D15*
X167200460Y-47476500D03*
X167200460Y-44076500D03*
%TD*%
D10*
%TO.C,SW21*%
X152138260Y-57117600D03*
D11*
X155098260Y-62197600D03*
X144098260Y-62197600D03*
D10*
X145788260Y-59657599D03*
D12*
X145773260Y-59617600D03*
D13*
X144518260Y-62197600D03*
X154678260Y-62197600D03*
D14*
X149598260Y-62197600D03*
D15*
X157675460Y-66526500D03*
X157675460Y-63126500D03*
%TD*%
D10*
%TO.C,SW35*%
X156900760Y-76167600D03*
D11*
X159860760Y-81247600D03*
X148860760Y-81247600D03*
D10*
X150550760Y-78707599D03*
D12*
X150535760Y-78667600D03*
D13*
X149280760Y-81247600D03*
X159440760Y-81247600D03*
D14*
X154360760Y-81247600D03*
D15*
X162437960Y-85576500D03*
X162437960Y-82176500D03*
%TD*%
D10*
%TO.C,SW48*%
X166425760Y-95217600D03*
D11*
X169385760Y-100297600D03*
X158385760Y-100297600D03*
D10*
X160075760Y-97757599D03*
D12*
X160060760Y-97717600D03*
D13*
X158805760Y-100297600D03*
X168965760Y-100297600D03*
D14*
X163885760Y-100297600D03*
D15*
X171962960Y-104626500D03*
X171962960Y-101226500D03*
%TD*%
D14*
%TO.C,SW67*%
X159123260Y-138397600D03*
D13*
X164203260Y-138397600D03*
X154043260Y-138397600D03*
D12*
X155298260Y-135817600D03*
D10*
X155313260Y-135857599D03*
D11*
X153623260Y-138397600D03*
X164623260Y-138397600D03*
D10*
X161663260Y-133317600D03*
%TD*%
D14*
%TO.C,SW64*%
X132929510Y-138397600D03*
D13*
X138009510Y-138397600D03*
X127849510Y-138397600D03*
D12*
X129104510Y-135817600D03*
D10*
X129119510Y-135857599D03*
D11*
X127429510Y-138397600D03*
X138429510Y-138397600D03*
D10*
X135469510Y-133317600D03*
%TD*%
D16*
%TO.C,D4*%
X110500000Y-138700000D03*
X110500000Y-141900000D03*
X115400000Y-138700000D03*
X115400000Y-141900000D03*
%TD*%
%TO.C,D3*%
X87050000Y-138700000D03*
X87050000Y-141900000D03*
X91950000Y-138700000D03*
X91950000Y-141900000D03*
%TD*%
%TO.C,D2*%
X63050000Y-138700000D03*
X63050000Y-141900000D03*
X67950000Y-138700000D03*
X67950000Y-141900000D03*
%TD*%
%TO.C,D1*%
X39600000Y-138700000D03*
X39600000Y-141900000D03*
X44500000Y-138700000D03*
X44500000Y-141900000D03*
%TD*%
D14*
%TO.C,SW56*%
X75779510Y-119347600D03*
D13*
X80859510Y-119347600D03*
X70699510Y-119347600D03*
D12*
X71954510Y-116767600D03*
D10*
X71969510Y-116807599D03*
D11*
X70279510Y-119347600D03*
X81279510Y-119347600D03*
D10*
X78319510Y-114267600D03*
%TD*%
D14*
%TO.C,SW7*%
X140073260Y-43147600D03*
D13*
X145153260Y-43147600D03*
X134993260Y-43147600D03*
D12*
X136248260Y-40567600D03*
D10*
X136263260Y-40607599D03*
D11*
X134573260Y-43147600D03*
X145573260Y-43147600D03*
D10*
X142613260Y-38067600D03*
%TD*%
D14*
%TO.C,SW20*%
X130548260Y-62197600D03*
D13*
X135628260Y-62197600D03*
X125468260Y-62197600D03*
D12*
X126723260Y-59617600D03*
D10*
X126738260Y-59657599D03*
D11*
X125048260Y-62197600D03*
X136048260Y-62197600D03*
D10*
X133088260Y-57117600D03*
%TD*%
D14*
%TO.C,SW34*%
X135310760Y-81247600D03*
D13*
X140390760Y-81247600D03*
X130230760Y-81247600D03*
D12*
X131485760Y-78667600D03*
D10*
X131500760Y-78707599D03*
D11*
X129810760Y-81247600D03*
X140810760Y-81247600D03*
D10*
X137850760Y-76167600D03*
%TD*%
D14*
%TO.C,SW47*%
X144835760Y-100297600D03*
D13*
X149915760Y-100297600D03*
X139755760Y-100297600D03*
D12*
X141010760Y-97717600D03*
D10*
X141025760Y-97757599D03*
D11*
X139335760Y-100297600D03*
X150335760Y-100297600D03*
D10*
X147375760Y-95217600D03*
%TD*%
%TO.C,SW55*%
X54507010Y-114267600D03*
D11*
X57467010Y-119347600D03*
X46467010Y-119347600D03*
D10*
X48157010Y-116807599D03*
D12*
X48142010Y-116767600D03*
D13*
X46887010Y-119347600D03*
X57047010Y-119347600D03*
D14*
X51967010Y-119347600D03*
D15*
X60044210Y-123676500D03*
X60044210Y-120276500D03*
%TD*%
D10*
%TO.C,SW6*%
X123563260Y-38067600D03*
D11*
X126523260Y-43147600D03*
X115523260Y-43147600D03*
D10*
X117213260Y-40607599D03*
D12*
X117198260Y-40567600D03*
D13*
X115943260Y-43147600D03*
X126103260Y-43147600D03*
D14*
X121023260Y-43147600D03*
D15*
X129100460Y-47476500D03*
X129100460Y-44076500D03*
%TD*%
D10*
%TO.C,SW15*%
X33075760Y-57117600D03*
D11*
X36035760Y-62197600D03*
X25035760Y-62197600D03*
D10*
X26725760Y-59657599D03*
D12*
X26710760Y-59617600D03*
D13*
X25455760Y-62197600D03*
X35615760Y-62197600D03*
D14*
X30535760Y-62197600D03*
D15*
X38612960Y-66526500D03*
X38612960Y-63126500D03*
%TD*%
D10*
%TO.C,GRV1*%
X28313260Y-38067600D03*
D11*
X31273260Y-43147600D03*
X20273260Y-43147600D03*
D10*
X21963260Y-40607599D03*
D12*
X21948260Y-40567600D03*
D13*
X20693260Y-43147600D03*
X30853260Y-43147600D03*
D14*
X25773260Y-43147600D03*
D15*
X33850460Y-47476500D03*
X33850460Y-44076500D03*
%TD*%
D10*
%TO.C,SW40*%
X252150760Y-76167600D03*
D11*
X255110760Y-81247600D03*
X244110760Y-81247600D03*
D10*
X245800760Y-78707599D03*
D12*
X245785760Y-78667600D03*
D13*
X244530760Y-81247600D03*
X254690760Y-81247600D03*
D14*
X249610760Y-81247600D03*
D15*
X257687960Y-85576500D03*
X257687960Y-82176500D03*
%TD*%
D10*
%TO.C,SW61*%
X245007010Y-114267600D03*
D11*
X247967010Y-119347600D03*
X236967010Y-119347600D03*
D10*
X238657010Y-116807599D03*
D12*
X238642010Y-116767600D03*
D13*
X237387010Y-119347600D03*
X247547010Y-119347600D03*
D14*
X242467010Y-119347600D03*
D15*
X250544210Y-123676500D03*
X250544210Y-120276500D03*
%TD*%
D10*
%TO.C,SW44*%
X90225760Y-95217600D03*
D11*
X93185760Y-100297600D03*
X82185760Y-100297600D03*
D10*
X83875760Y-97757599D03*
D12*
X83860760Y-97717600D03*
D13*
X82605760Y-100297600D03*
X92765760Y-100297600D03*
D14*
X87685760Y-100297600D03*
D15*
X95762960Y-104626500D03*
X95762960Y-101226500D03*
%TD*%
D10*
%TO.C,SW65*%
X137850760Y-133317600D03*
D11*
X140810760Y-138397600D03*
X129810760Y-138397600D03*
D10*
X131500760Y-135857599D03*
D12*
X131485760Y-135817600D03*
D13*
X130230760Y-138397600D03*
X140390760Y-138397600D03*
D14*
X135310760Y-138397600D03*
D15*
X143387960Y-142726500D03*
X143387960Y-139326500D03*
%TD*%
D10*
%TO.C,SW62*%
X268819510Y-114267600D03*
D11*
X271779510Y-119347600D03*
X260779510Y-119347600D03*
D10*
X262469510Y-116807599D03*
D12*
X262454510Y-116767600D03*
D13*
X261199510Y-119347600D03*
X271359510Y-119347600D03*
D14*
X266279510Y-119347600D03*
D15*
X274356710Y-123676500D03*
X274356710Y-120276500D03*
%TD*%
D10*
%TO.C,SW32*%
X99750760Y-76167600D03*
D11*
X102710760Y-81247600D03*
X91710760Y-81247600D03*
D10*
X93400760Y-78707599D03*
D12*
X93385760Y-78667600D03*
D13*
X92130760Y-81247600D03*
X102290760Y-81247600D03*
D14*
X97210760Y-81247600D03*
D15*
X105287960Y-85576500D03*
X105287960Y-82176500D03*
%TD*%
D10*
%TO.C,SW13*%
X256913260Y-38067600D03*
D11*
X259873260Y-43147600D03*
X248873260Y-43147600D03*
D10*
X250563260Y-40607599D03*
D12*
X250548260Y-40567600D03*
D13*
X249293260Y-43147600D03*
X259453260Y-43147600D03*
D14*
X254373260Y-43147600D03*
D15*
X262450460Y-47476500D03*
X262450460Y-44076500D03*
%TD*%
D10*
%TO.C,SW41*%
X283107010Y-76167600D03*
D11*
X286067010Y-81247600D03*
X275067010Y-81247600D03*
D10*
X276757010Y-78707599D03*
D12*
X276742010Y-78667600D03*
D13*
X275487010Y-81247600D03*
X285647010Y-81247600D03*
D14*
X280567010Y-81247600D03*
D15*
X288644210Y-85576500D03*
X288644210Y-82176500D03*
%TD*%
D10*
%TO.C,SW28*%
X290250760Y-57117600D03*
D11*
X293210760Y-62197600D03*
X282210760Y-62197600D03*
D10*
X283900760Y-59657599D03*
D12*
X283885760Y-59617600D03*
D13*
X282630760Y-62197600D03*
X292790760Y-62197600D03*
D14*
X287710760Y-62197600D03*
D15*
X295787960Y-66526500D03*
X295787960Y-63126500D03*
%TD*%
D10*
%TO.C,SW4*%
X85463260Y-38067600D03*
D11*
X88423260Y-43147600D03*
X77423260Y-43147600D03*
D10*
X79113260Y-40607599D03*
D12*
X79098260Y-40567600D03*
D13*
X77843260Y-43147600D03*
X88003260Y-43147600D03*
D14*
X82923260Y-43147600D03*
D15*
X91000460Y-47476500D03*
X91000460Y-44076500D03*
%TD*%
D10*
%TO.C,SW54*%
X30694510Y-114267600D03*
D11*
X33654510Y-119347600D03*
X22654510Y-119347600D03*
D10*
X24344510Y-116807599D03*
D12*
X24329510Y-116767600D03*
D13*
X23074510Y-119347600D03*
X33234510Y-119347600D03*
D14*
X28154510Y-119347600D03*
D15*
X36231710Y-123676500D03*
X36231710Y-120276500D03*
%TD*%
D10*
%TO.C,SW53*%
X278344510Y-95217600D03*
D11*
X281304510Y-100297600D03*
X270304510Y-100297600D03*
D10*
X271994510Y-97757599D03*
D12*
X271979510Y-97717600D03*
D13*
X270724510Y-100297600D03*
X280884510Y-100297600D03*
D14*
X275804510Y-100297600D03*
D15*
X283881710Y-104626500D03*
X283881710Y-101226500D03*
%TD*%
D10*
%TO.C,SW42*%
X40219510Y-95217600D03*
D11*
X43179510Y-100297600D03*
X32179510Y-100297600D03*
D10*
X33869510Y-97757599D03*
D12*
X33854510Y-97717600D03*
D13*
X32599510Y-100297600D03*
X42759510Y-100297600D03*
D14*
X37679510Y-100297600D03*
D15*
X45756710Y-104626500D03*
X45756710Y-101226500D03*
%TD*%
D10*
%TO.C,SW14*%
X285488260Y-38067600D03*
D11*
X288448260Y-43147600D03*
X277448260Y-43147600D03*
D10*
X279138260Y-40607599D03*
D12*
X279123260Y-40567600D03*
D13*
X277868260Y-43147600D03*
X288028260Y-43147600D03*
D14*
X282948260Y-43147600D03*
D15*
X291025460Y-47476500D03*
X291025460Y-44076500D03*
%TD*%
D10*
%TO.C,SW57*%
X149757010Y-114267600D03*
D11*
X152717010Y-119347600D03*
X141717010Y-119347600D03*
D10*
X143407010Y-116807599D03*
D12*
X143392010Y-116767600D03*
D13*
X142137010Y-119347600D03*
X152297010Y-119347600D03*
D14*
X147217010Y-119347600D03*
D15*
X155294210Y-123676500D03*
X155294210Y-120276500D03*
%TD*%
D10*
%TO.C,SW58*%
X118800760Y-114267600D03*
D11*
X121760760Y-119347600D03*
X110760760Y-119347600D03*
D10*
X112450760Y-116807599D03*
D12*
X112435760Y-116767600D03*
D13*
X111180760Y-119347600D03*
X121340760Y-119347600D03*
D14*
X116260760Y-119347600D03*
D15*
X124337960Y-123676500D03*
X124337960Y-120276500D03*
%TD*%
D10*
%TO.C,SW59*%
X180713260Y-114267600D03*
D11*
X183673260Y-119347600D03*
X172673260Y-119347600D03*
D10*
X174363260Y-116807599D03*
D12*
X174348260Y-116767600D03*
D13*
X173093260Y-119347600D03*
X183253260Y-119347600D03*
D14*
X178173260Y-119347600D03*
D15*
X186250460Y-123676500D03*
X186250460Y-120276500D03*
%TD*%
D10*
%TO.C,SW29*%
X35457010Y-76167600D03*
D11*
X38417010Y-81247600D03*
X27417010Y-81247600D03*
D10*
X29107010Y-78707599D03*
D12*
X29092010Y-78667600D03*
D13*
X27837010Y-81247600D03*
X37997010Y-81247600D03*
D14*
X32917010Y-81247600D03*
D15*
X40994210Y-85576500D03*
X40994210Y-82176500D03*
%TD*%
D10*
%TO.C,SW63*%
X292632010Y-114267600D03*
D11*
X295592010Y-119347600D03*
X284592010Y-119347600D03*
D10*
X286282010Y-116807599D03*
D12*
X286267010Y-116767600D03*
D13*
X285012010Y-119347600D03*
X295172010Y-119347600D03*
D14*
X290092010Y-119347600D03*
D15*
X298169210Y-123676500D03*
X298169210Y-120276500D03*
%TD*%
D10*
%TO.C,SW60*%
X221194510Y-114267600D03*
D11*
X224154510Y-119347600D03*
X213154510Y-119347600D03*
D10*
X214844510Y-116807599D03*
D12*
X214829510Y-116767600D03*
D13*
X213574510Y-119347600D03*
X223734510Y-119347600D03*
D14*
X218654510Y-119347600D03*
D15*
X226731710Y-123676500D03*
X226731710Y-120276500D03*
%TD*%
D10*
%TO.C,SW66*%
X164044510Y-133317600D03*
D11*
X167004510Y-138397600D03*
X156004510Y-138397600D03*
D10*
X157694510Y-135857599D03*
D12*
X157679510Y-135817600D03*
D13*
X156424510Y-138397600D03*
X166584510Y-138397600D03*
D14*
X161504510Y-138397600D03*
D15*
X169581710Y-142726500D03*
X169581710Y-139326500D03*
%TD*%
D10*
%TO.C,SW52*%
X242625760Y-95217600D03*
D11*
X245585760Y-100297600D03*
X234585760Y-100297600D03*
D10*
X236275760Y-97757599D03*
D12*
X236260760Y-97717600D03*
D13*
X235005760Y-100297600D03*
X245165760Y-100297600D03*
D14*
X240085760Y-100297600D03*
D15*
X248162960Y-104626500D03*
X248162960Y-101226500D03*
%TD*%
D10*
%TO.C,SW5*%
X104513260Y-38067600D03*
D11*
X107473260Y-43147600D03*
X96473260Y-43147600D03*
D10*
X98163260Y-40607599D03*
D12*
X98148260Y-40567600D03*
D13*
X96893260Y-43147600D03*
X107053260Y-43147600D03*
D14*
X101973260Y-43147600D03*
D15*
X110050460Y-47476500D03*
X110050460Y-44076500D03*
%TD*%
D10*
%TO.C,SW50*%
X204525760Y-95217600D03*
D11*
X207485760Y-100297600D03*
X196485760Y-100297600D03*
D10*
X198175760Y-97757599D03*
D12*
X198160760Y-97717600D03*
D13*
X196905760Y-100297600D03*
X207065760Y-100297600D03*
D14*
X201985760Y-100297600D03*
D15*
X210062960Y-104626500D03*
X210062960Y-101226500D03*
%TD*%
D10*
%TO.C,SW51*%
X223575760Y-95217600D03*
D11*
X226535760Y-100297600D03*
X215535760Y-100297600D03*
D10*
X217225760Y-97757599D03*
D12*
X217210760Y-97717600D03*
D13*
X215955760Y-100297600D03*
X226115760Y-100297600D03*
D14*
X221035760Y-100297600D03*
D15*
X229112960Y-104626500D03*
X229112960Y-101226500D03*
%TD*%
D10*
%TO.C,SW43*%
X71175760Y-95217600D03*
D11*
X74135760Y-100297600D03*
X63135760Y-100297600D03*
D10*
X64825760Y-97757599D03*
D12*
X64810760Y-97717600D03*
D13*
X63555760Y-100297600D03*
X73715760Y-100297600D03*
D14*
X68635760Y-100297600D03*
D15*
X76712960Y-104626500D03*
X76712960Y-101226500D03*
%TD*%
D10*
%TO.C,SW49*%
X185475760Y-95217600D03*
D11*
X188435760Y-100297600D03*
X177435760Y-100297600D03*
D10*
X179125760Y-97757599D03*
D12*
X179110760Y-97717600D03*
D13*
X177855760Y-100297600D03*
X188015760Y-100297600D03*
D14*
X182935760Y-100297600D03*
D15*
X191012960Y-104626500D03*
X191012960Y-101226500D03*
%TD*%
D10*
%TO.C,SW45*%
X109275760Y-95217600D03*
D11*
X112235760Y-100297600D03*
X101235760Y-100297600D03*
D10*
X102925760Y-97757599D03*
D12*
X102910760Y-97717600D03*
D13*
X101655760Y-100297600D03*
X111815760Y-100297600D03*
D14*
X106735760Y-100297600D03*
D15*
X114812960Y-104626500D03*
X114812960Y-101226500D03*
%TD*%
D10*
%TO.C,SW46*%
X128325760Y-95217600D03*
D11*
X131285760Y-100297600D03*
X120285760Y-100297600D03*
D10*
X121975760Y-97757599D03*
D12*
X121960760Y-97717600D03*
D13*
X120705760Y-100297600D03*
X130865760Y-100297600D03*
D14*
X125785760Y-100297600D03*
D15*
X133862960Y-104626500D03*
X133862960Y-101226500D03*
%TD*%
D10*
%TO.C,SW33*%
X118800760Y-76167600D03*
D11*
X121760760Y-81247600D03*
X110760760Y-81247600D03*
D10*
X112450760Y-78707599D03*
D12*
X112435760Y-78667600D03*
D13*
X111180760Y-81247600D03*
X121340760Y-81247600D03*
D14*
X116260760Y-81247600D03*
D15*
X124337960Y-85576500D03*
X124337960Y-82176500D03*
%TD*%
D10*
%TO.C,SW30*%
X61650760Y-76167600D03*
D11*
X64610760Y-81247600D03*
X53610760Y-81247600D03*
D10*
X55300760Y-78707599D03*
D12*
X55285760Y-78667600D03*
D13*
X54030760Y-81247600D03*
X64190760Y-81247600D03*
D14*
X59110760Y-81247600D03*
D15*
X67187960Y-85576500D03*
X67187960Y-82176500D03*
%TD*%
D10*
%TO.C,SW37*%
X195000760Y-76167600D03*
D11*
X197960760Y-81247600D03*
X186960760Y-81247600D03*
D10*
X188650760Y-78707599D03*
D12*
X188635760Y-78667600D03*
D13*
X187380760Y-81247600D03*
X197540760Y-81247600D03*
D14*
X192460760Y-81247600D03*
D15*
X200537960Y-85576500D03*
X200537960Y-82176500D03*
%TD*%
D10*
%TO.C,SW38*%
X214050760Y-76167600D03*
D11*
X217010760Y-81247600D03*
X206010760Y-81247600D03*
D10*
X207700760Y-78707599D03*
D12*
X207685760Y-78667600D03*
D13*
X206430760Y-81247600D03*
X216590760Y-81247600D03*
D14*
X211510760Y-81247600D03*
D15*
X219587960Y-85576500D03*
X219587960Y-82176500D03*
%TD*%
D10*
%TO.C,SW39*%
X233100760Y-76167600D03*
D11*
X236060760Y-81247600D03*
X225060760Y-81247600D03*
D10*
X226750760Y-78707599D03*
D12*
X226735760Y-78667600D03*
D13*
X225480760Y-81247600D03*
X235640760Y-81247600D03*
D14*
X230560760Y-81247600D03*
D15*
X238637960Y-85576500D03*
X238637960Y-82176500D03*
%TD*%
D10*
%TO.C,SW27*%
X266438260Y-57117600D03*
D11*
X269398260Y-62197600D03*
X258398260Y-62197600D03*
D10*
X260088260Y-59657599D03*
D12*
X260073260Y-59617600D03*
D13*
X258818260Y-62197600D03*
X268978260Y-62197600D03*
D14*
X263898260Y-62197600D03*
D15*
X271975460Y-66526500D03*
X271975460Y-63126500D03*
%TD*%
D10*
%TO.C,SW36*%
X175950760Y-76167600D03*
D11*
X178910760Y-81247600D03*
X167910760Y-81247600D03*
D10*
X169600760Y-78707599D03*
D12*
X169585760Y-78667600D03*
D13*
X168330760Y-81247600D03*
X178490760Y-81247600D03*
D14*
X173410760Y-81247600D03*
D15*
X181487960Y-85576500D03*
X181487960Y-82176500D03*
%TD*%
D10*
%TO.C,SW3*%
X66413260Y-38067600D03*
D11*
X69373260Y-43147600D03*
X58373260Y-43147600D03*
D10*
X60063260Y-40607599D03*
D12*
X60048260Y-40567600D03*
D13*
X58793260Y-43147600D03*
X68953260Y-43147600D03*
D14*
X63873260Y-43147600D03*
D15*
X71950460Y-47476500D03*
X71950460Y-44076500D03*
%TD*%
D10*
%TO.C,SW31*%
X80700760Y-76167600D03*
D11*
X83660760Y-81247600D03*
X72660760Y-81247600D03*
D10*
X74350760Y-78707599D03*
D12*
X74335760Y-78667600D03*
D13*
X73080760Y-81247600D03*
X83240760Y-81247600D03*
D14*
X78160760Y-81247600D03*
D15*
X86237960Y-85576500D03*
X86237960Y-82176500D03*
%TD*%
D10*
%TO.C,SW12*%
X237863260Y-38067600D03*
D11*
X240823260Y-43147600D03*
X229823260Y-43147600D03*
D10*
X231513260Y-40607599D03*
D12*
X231498260Y-40567600D03*
D13*
X230243260Y-43147600D03*
X240403260Y-43147600D03*
D14*
X235323260Y-43147600D03*
D15*
X243400460Y-47476500D03*
X243400460Y-44076500D03*
%TD*%
D10*
%TO.C,SW16*%
X56888260Y-57117600D03*
D11*
X59848260Y-62197600D03*
X48848260Y-62197600D03*
D10*
X50538260Y-59657599D03*
D12*
X50523260Y-59617600D03*
D13*
X49268260Y-62197600D03*
X59428260Y-62197600D03*
D14*
X54348260Y-62197600D03*
D15*
X62425460Y-66526500D03*
X62425460Y-63126500D03*
%TD*%
D10*
%TO.C,SW17*%
X75938260Y-57117600D03*
D11*
X78898260Y-62197600D03*
X67898260Y-62197600D03*
D10*
X69588260Y-59657599D03*
D12*
X69573260Y-59617600D03*
D13*
X68318260Y-62197600D03*
X78478260Y-62197600D03*
D14*
X73398260Y-62197600D03*
D15*
X81475460Y-66526500D03*
X81475460Y-63126500D03*
%TD*%
D10*
%TO.C,K_1*%
X47363260Y-38067600D03*
D11*
X50323260Y-43147600D03*
X39323260Y-43147600D03*
D10*
X41013260Y-40607599D03*
D12*
X40998260Y-40567600D03*
D13*
X39743260Y-43147600D03*
X49903260Y-43147600D03*
D14*
X44823260Y-43147600D03*
D15*
X52900460Y-47476500D03*
X52900460Y-44076500D03*
%TD*%
D10*
%TO.C,SW26*%
X247388260Y-57117600D03*
D11*
X250348260Y-62197600D03*
X239348260Y-62197600D03*
D10*
X241038260Y-59657599D03*
D12*
X241023260Y-59617600D03*
D13*
X239768260Y-62197600D03*
X249928260Y-62197600D03*
D14*
X244848260Y-62197600D03*
D15*
X252925460Y-66526500D03*
X252925460Y-63126500D03*
%TD*%
D10*
%TO.C,SW22*%
X171188260Y-57117600D03*
D11*
X174148260Y-62197600D03*
X163148260Y-62197600D03*
D10*
X164838260Y-59657599D03*
D12*
X164823260Y-59617600D03*
D13*
X163568260Y-62197600D03*
X173728260Y-62197600D03*
D14*
X168648260Y-62197600D03*
D15*
X176725460Y-66526500D03*
X176725460Y-63126500D03*
%TD*%
D10*
%TO.C,SW24*%
X209288260Y-57117600D03*
D11*
X212248260Y-62197600D03*
X201248260Y-62197600D03*
D10*
X202938260Y-59657599D03*
D12*
X202923260Y-59617600D03*
D13*
X201668260Y-62197600D03*
X211828260Y-62197600D03*
D14*
X206748260Y-62197600D03*
D15*
X214825460Y-66526500D03*
X214825460Y-63126500D03*
%TD*%
D10*
%TO.C,SW23*%
X190238260Y-57117600D03*
D11*
X193198260Y-62197600D03*
X182198260Y-62197600D03*
D10*
X183888260Y-59657599D03*
D12*
X183873260Y-59617600D03*
D13*
X182618260Y-62197600D03*
X192778260Y-62197600D03*
D14*
X187698260Y-62197600D03*
D15*
X195775460Y-66526500D03*
X195775460Y-63126500D03*
%TD*%
D10*
%TO.C,SW18*%
X94988260Y-57117600D03*
D11*
X97948260Y-62197600D03*
X86948260Y-62197600D03*
D10*
X88638260Y-59657599D03*
D12*
X88623260Y-59617600D03*
D13*
X87368260Y-62197600D03*
X97528260Y-62197600D03*
D14*
X92448260Y-62197600D03*
D15*
X100525460Y-66526500D03*
X100525460Y-63126500D03*
%TD*%
D10*
%TO.C,SW19*%
X114038260Y-57117600D03*
D11*
X116998260Y-62197600D03*
X105998260Y-62197600D03*
D10*
X107688260Y-59657599D03*
D12*
X107673260Y-59617600D03*
D13*
X106418260Y-62197600D03*
X116578260Y-62197600D03*
D14*
X111498260Y-62197600D03*
D15*
X119575460Y-66526500D03*
X119575460Y-63126500D03*
%TD*%
D10*
%TO.C,SW11*%
X218813260Y-38067600D03*
D11*
X221773260Y-43147600D03*
X210773260Y-43147600D03*
D10*
X212463260Y-40607599D03*
D12*
X212448260Y-40567600D03*
D13*
X211193260Y-43147600D03*
X221353260Y-43147600D03*
D14*
X216273260Y-43147600D03*
D15*
X224350460Y-47476500D03*
X224350460Y-44076500D03*
%TD*%
D10*
%TO.C,SW10*%
X199763260Y-38067600D03*
D11*
X202723260Y-43147600D03*
X191723260Y-43147600D03*
D10*
X193413260Y-40607599D03*
D12*
X193398260Y-40567600D03*
D13*
X192143260Y-43147600D03*
X202303260Y-43147600D03*
D14*
X197223260Y-43147600D03*
D15*
X205300460Y-47476500D03*
X205300460Y-44076500D03*
%TD*%
D10*
%TO.C,SW25*%
X228338260Y-57117600D03*
D11*
X231298260Y-62197600D03*
X220298260Y-62197600D03*
D10*
X221988260Y-59657599D03*
D12*
X221973260Y-59617600D03*
D13*
X220718260Y-62197600D03*
X230878260Y-62197600D03*
D14*
X225798260Y-62197600D03*
D15*
X233875460Y-66526500D03*
X233875460Y-63126500D03*
%TD*%
D10*
%TO.C,SW9*%
X180713260Y-38067600D03*
D11*
X183673260Y-43147600D03*
X172673260Y-43147600D03*
D10*
X174363260Y-40607599D03*
D12*
X174348260Y-40567600D03*
D13*
X173093260Y-43147600D03*
X183253260Y-43147600D03*
D14*
X178173260Y-43147600D03*
D15*
X186250460Y-47476500D03*
X186250460Y-44076500D03*
%TD*%
D17*
%TO.C,D1*%
X69868300Y-122215000D03*
X73268300Y-122215000D03*
%TD*%
%TO.C,D1*%
X142336700Y-49066000D03*
X145736700Y-49066000D03*
%TD*%
%TO.C,D1*%
X132836700Y-68066000D03*
X136236700Y-68066000D03*
%TD*%
%TO.C,D1*%
X137536700Y-87166000D03*
X140936700Y-87166000D03*
%TD*%
%TO.C,D1*%
X147068300Y-106165000D03*
X150468300Y-106165000D03*
%TD*%
D18*
%TO.C,J2*%
X160500000Y-32250000D03*
D19*
X160500000Y-34850000D03*
X161500000Y-30450000D03*
X159300000Y-29650000D03*
X155500000Y-34850000D03*
X151400000Y-30050000D03*
X151300000Y-35150000D03*
%TD*%
D18*
%TO.C,J1*%
X138750000Y-32250000D03*
D19*
X138750000Y-29650000D03*
X137750000Y-34050000D03*
X139950000Y-34850000D03*
X143750000Y-29650000D03*
X147850000Y-34450000D03*
X147950000Y-29350000D03*
%TD*%
D20*
%TO.C,P2*%
X179830000Y-30390000D03*
X171180000Y-30390000D03*
D21*
X179830000Y-33770000D03*
X171180000Y-33770000D03*
D22*
X175930000Y-33400000D03*
X178480000Y-33400000D03*
X177630000Y-33400000D03*
X176780000Y-33400000D03*
X172530000Y-33400000D03*
X174230000Y-33400000D03*
X175080000Y-33400000D03*
X173380000Y-33400000D03*
X178480000Y-34750000D03*
X177630000Y-34750000D03*
X176780000Y-34750000D03*
X175930000Y-34750000D03*
X175080000Y-34750000D03*
X174230000Y-34750000D03*
X173380000Y-34750000D03*
X172530000Y-34750000D03*
%TD*%
D20*
%TO.C,P1*%
X128000000Y-30390000D03*
X119350000Y-30390000D03*
D21*
X128000000Y-33770000D03*
X119350000Y-33770000D03*
D22*
X124100000Y-33400000D03*
X126650000Y-33400000D03*
X125800000Y-33400000D03*
X124950000Y-33400000D03*
X120700000Y-33400000D03*
X122400000Y-33400000D03*
X123250000Y-33400000D03*
X121550000Y-33400000D03*
X126650000Y-34750000D03*
X125800000Y-34750000D03*
X124950000Y-34750000D03*
X124100000Y-34750000D03*
X123250000Y-34750000D03*
X122400000Y-34750000D03*
X121550000Y-34750000D03*
X120700000Y-34750000D03*
%TD*%
D23*
%TO.C,REF\u002A\u002A*%
X184430000Y-32622000D03*
%TD*%
D24*
%TO.C,ST58*%
X97096460Y-127564500D03*
D25*
X97096460Y-112324500D03*
D24*
X135196460Y-127564500D03*
D25*
X135196460Y-112324500D03*
%TD*%
D26*
%TO.C,REF\u002A\u002A*%
X147662500Y-112600000D03*
X146762500Y-112600000D03*
X146762500Y-115100000D03*
X147662500Y-115100000D03*
X147662500Y-113850000D03*
X146762500Y-113850000D03*
%TD*%
%TO.C,REF\u002A\u002A*%
X146762500Y-130210000D03*
X147662500Y-130210000D03*
X147662500Y-131710000D03*
X146762500Y-131710000D03*
X147662500Y-133210000D03*
X146762500Y-134710000D03*
X146762500Y-128710000D03*
X147662500Y-128710000D03*
X146762500Y-127210000D03*
X147662500Y-127210000D03*
X146762500Y-133210000D03*
X147662500Y-134710000D03*
X146762500Y-125710000D03*
X147662500Y-125710000D03*
%TD*%
%TO.C,REF\u002A\u002A*%
X154807000Y-93870000D03*
X153907000Y-93870000D03*
X154807000Y-102870000D03*
X153907000Y-101370000D03*
X154807000Y-95370000D03*
X153907000Y-95370000D03*
X154807000Y-96870000D03*
X153907000Y-96870000D03*
X153907000Y-102870000D03*
X154807000Y-101370000D03*
X153907000Y-99870000D03*
X154807000Y-99870000D03*
X154807000Y-98370000D03*
X153907000Y-98370000D03*
%TD*%
%TO.C,REF\u002A\u002A*%
X145282000Y-78270000D03*
X144382000Y-78270000D03*
X145282000Y-87270000D03*
X144382000Y-85770000D03*
X145282000Y-79770000D03*
X144382000Y-79770000D03*
X145282000Y-81270000D03*
X144382000Y-81270000D03*
X144382000Y-87270000D03*
X145282000Y-85770000D03*
X144382000Y-84270000D03*
X145282000Y-84270000D03*
X145282000Y-82770000D03*
X144382000Y-82770000D03*
%TD*%
%TO.C,REF\u002A\u002A*%
X140519500Y-57300000D03*
X139619500Y-57300000D03*
X140519500Y-66300000D03*
X139619500Y-64800000D03*
X140519500Y-58800000D03*
X139619500Y-58800000D03*
X140519500Y-60300000D03*
X139619500Y-60300000D03*
X139619500Y-66300000D03*
X140519500Y-64800000D03*
X139619500Y-63300000D03*
X140519500Y-63300000D03*
X140519500Y-61800000D03*
X139619500Y-61800000D03*
%TD*%
%TO.C,REF\u002A\u002A*%
X150044500Y-41000000D03*
X149144500Y-41000000D03*
X150044500Y-50000000D03*
X149144500Y-48500000D03*
X150044500Y-42500000D03*
X149144500Y-42500000D03*
X150044500Y-44000000D03*
X149144500Y-44000000D03*
X149144500Y-50000000D03*
X150044500Y-48500000D03*
X149144500Y-47000000D03*
X150044500Y-47000000D03*
X150044500Y-45500000D03*
X149144500Y-45500000D03*
%TD*%
D23*
%TO.C,REF\u002A\u002A*%
X163350000Y-90200000D03*
%TD*%
%TO.C,REF\u002A\u002A*%
X126300000Y-90200000D03*
%TD*%
%TO.C,REF\u002A\u002A*%
X151212500Y-129000000D03*
%TD*%
%TO.C,REF\u002A\u002A*%
X143212500Y-129000000D03*
%TD*%
%TO.C,REF\u002A\u002A*%
X280750000Y-110500000D03*
%TD*%
%TO.C,REF\u002A\u002A*%
X37500000Y-110250000D03*
%TD*%
%TO.C,REF\u002A\u002A*%
X166580000Y-32622000D03*
%TD*%
%TO.C,REF\u002A\u002A*%
X297995000Y-32622000D03*
%TD*%
%TO.C,REF\u002A\u002A*%
X20245084Y-32622000D03*
%TD*%
%TO.C,REF\u002A\u002A*%
X132600000Y-32622000D03*
%TD*%
%TO.C,REF\u002A\u002A*%
X114750000Y-32622000D03*
%TD*%
D24*
%TO.C,ST59*%
X159008960Y-127564500D03*
D25*
X159008960Y-112324500D03*
D24*
X197108960Y-127564500D03*
D25*
X197108960Y-112324500D03*
%TD*%
D24*
%TO.C,ST14*%
X271005960Y-51404500D03*
X294881960Y-51404500D03*
D25*
X271005960Y-36164500D03*
X294881960Y-36164500D03*
%TD*%
D24*
%TO.C,ST53*%
X263752210Y-108514500D03*
X287628210Y-108514500D03*
D25*
X263752210Y-93274500D03*
X287628210Y-93274500D03*
%TD*%
D24*
%TO.C,ST41*%
X268514710Y-89464500D03*
X292390710Y-89464500D03*
D25*
X268514710Y-74224500D03*
X292390710Y-74224500D03*
%TD*%
D24*
%TO.C,ST42*%
X25627210Y-108514500D03*
X49503210Y-108514500D03*
D25*
X25627210Y-93274500D03*
X49503210Y-93274500D03*
%TD*%
M02*
