M48
; DRILL file {KiCad (5.1.10)-1} date 03/06/22 16:48:07
; FORMAT={-:-/ absolute / metric / decimal}
; #@! TF.CreationDate,2022-03-06T16:48:07-07:00
; #@! TF.GenerationSoftware,Kicad,Pcbnew,(5.1.10)-1
FMAT,2
METRIC
T1C0.400
T2C0.600
T3C0.700
T4C1.400
T5C0.100
T6C0.400
T7C1.700
T8C1.900
T9C2.200
T10C3.000
T11C3.048
T12C3.988
T13C4.000
%
G90
G05
T1
X18.323Y-122.307
X19.323Y-122.127
X21.565Y-125.749
X21.712Y-124.738
X30.78Y-102.88
X33.85Y-44.076
X33.85Y-47.476
X36.232Y-120.276
X36.232Y-123.676
X38.613Y-63.127
X38.613Y-66.526
X40.994Y-82.176
X40.994Y-85.576
X43.15Y-139.5
X45.757Y-101.227
X45.757Y-104.626
X46.0Y-142.75
X52.9Y-44.076
X52.9Y-47.476
X56.75Y-105.602
X57.75Y-106.002
X60.044Y-120.276
X60.044Y-123.676
X61.736Y-103.201
X62.425Y-63.127
X62.425Y-66.526
X67.188Y-82.176
X67.188Y-85.576
X69.65Y-143.2
X69.85Y-127.7
X69.868Y-122.215
X71.95Y-44.076
X71.95Y-47.476
X73.268Y-122.215
X74.1Y-106.402
X76.713Y-101.227
X76.713Y-104.626
X80.3Y-84.602
X80.7Y-102.45
X80.976Y-104.651
X81.475Y-63.127
X81.475Y-66.526
X81.676Y-103.651
X81.95Y-84.151
X82.4Y-117.0
X82.661Y-103.201
X83.4Y-83.701
X84.4Y-125.35
X85.2Y-124.651
X85.236Y-126.052
X86.1Y-119.8
X86.238Y-82.176
X86.238Y-85.576
X86.55Y-122.701
X87.7Y-122.701
X88.9Y-114.05
X89.1Y-107.35
X89.932Y-106.795
X90.95Y-110.05
X91.0Y-44.076
X91.0Y-47.476
X93.35Y-143.15
X93.9Y-46.502
X94.7Y-65.551
X95.763Y-101.227
X95.763Y-104.626
X95.995Y-65.101
X97.3Y-64.651
X97.5Y-109.95
X97.55Y-115.7
X99.7Y-106.927
X100.525Y-63.127
X100.525Y-66.526
X101.25Y-108.75
X101.386Y-127.836
X101.957Y-108.043
X102.95Y-129.1
X103.676Y-123.701
X104.7Y-125.7
X104.85Y-119.75
X105.288Y-82.176
X105.288Y-85.576
X105.55Y-113.95
X106.5Y-105.602
X107.9Y-105.602
X108.65Y-128.25
X109.3Y-105.602
X109.95Y-124.651
X110.05Y-44.076
X110.05Y-47.476
X111.95Y-128.1
X112.65Y-44.1
X112.65Y-50.45
X112.8Y-140.6
X113.15Y-109.15
X114.813Y-101.227
X114.813Y-104.626
X117.2Y-143.55
X119.575Y-63.127
X119.575Y-66.526
X120.7Y-33.4
X120.7Y-34.75
X121.55Y-33.4
X121.55Y-34.75
X122.4Y-33.4
X122.4Y-34.75
X123.0Y-125.1
X123.25Y-33.4
X123.25Y-34.75
X123.6Y-41.45
X124.1Y-33.4
X124.1Y-34.75
X124.338Y-82.176
X124.338Y-85.576
X124.338Y-120.276
X124.338Y-123.676
X124.586Y-41.286
X124.65Y-35.9
X124.95Y-33.4
X124.95Y-34.75
X125.8Y-33.4
X125.8Y-34.75
X125.9Y-125.15
X125.998Y-123.101
X126.65Y-33.4
X126.65Y-34.75
X126.95Y-52.7
X129.1Y-44.076
X129.1Y-47.476
X131.5Y-36.3
X131.553Y-35.301
X132.837Y-68.066
X133.863Y-101.227
X133.863Y-104.626
X136.237Y-68.066
X136.65Y-32.2
X137.537Y-87.166
X139.3Y-122.926
X140.937Y-87.166
X142.337Y-49.066
X143.388Y-139.326
X143.388Y-142.726
X144.15Y-124.5
X145.737Y-49.066
X147.068Y-106.165
X150.468Y-106.165
X155.294Y-120.276
X155.294Y-123.676
X156.999Y-121.537
X157.675Y-63.127
X157.675Y-66.526
X162.438Y-82.176
X162.438Y-85.576
X166.675Y-84.602
X167.2Y-44.076
X167.2Y-47.476
X169.582Y-139.326
X169.582Y-142.726
X171.963Y-101.227
X171.963Y-104.626
X172.53Y-33.4
X172.53Y-34.75
X173.38Y-33.4
X173.38Y-34.75
X174.23Y-33.4
X174.23Y-34.75
X175.08Y-33.4
X175.08Y-34.75
X175.93Y-33.4
X175.93Y-34.75
X176.725Y-63.127
X176.725Y-66.526
X176.78Y-33.4
X176.78Y-34.75
X177.63Y-33.4
X177.63Y-34.75
X178.48Y-33.4
X178.48Y-34.75
X181.488Y-82.176
X181.488Y-85.576
X182.45Y-51.15
X186.25Y-44.076
X186.25Y-47.476
X186.25Y-120.276
X186.25Y-123.676
X186.741Y-84.151
X191.013Y-101.227
X191.013Y-104.626
X195.775Y-63.127
X195.775Y-66.526
X200.538Y-82.176
X200.538Y-85.576
X204.611Y-83.701
X205.3Y-44.076
X205.3Y-47.476
X210.063Y-101.227
X210.063Y-104.626
X214.825Y-63.127
X214.825Y-66.526
X218.75Y-65.551
X219.588Y-82.176
X219.588Y-85.576
X224.35Y-44.076
X224.35Y-47.476
X226.732Y-120.276
X226.732Y-123.676
X229.113Y-101.227
X229.113Y-104.626
X233.875Y-63.127
X233.875Y-66.526
X235.6Y-107.9
X237.75Y-65.101
X238.638Y-82.176
X238.638Y-85.576
X238.95Y-65.551
X241.95Y-85.601
X242.2Y-106.9
X243.4Y-44.076
X243.4Y-47.476
X245.7Y-106.75
X246.0Y-88.9
X246.35Y-85.6
X247.27Y-89.18
X248.163Y-101.227
X248.163Y-104.626
X248.5Y-124.651
X248.541Y-89.461
X249.05Y-117.35
X249.6Y-107.65
X249.6Y-108.7
X249.6Y-109.8
X249.75Y-100.45
X249.75Y-105.602
X250.475Y-101.392
X250.544Y-120.276
X250.544Y-123.676
X251.55Y-101.7
X251.645Y-108.745
X252.45Y-103.55
X252.45Y-109.5
X252.925Y-63.127
X252.925Y-66.526
X253.7Y-88.45
X254.975Y-96.45
X257.0Y-65.0
X257.688Y-82.176
X257.688Y-85.576
X259.7Y-67.7
X259.85Y-88.4
X260.55Y-105.602
X261.0Y-96.45
X261.8Y-67.7
X262.45Y-44.076
X262.45Y-47.476
X262.8Y-97.05
X264.27Y-113.03
X264.95Y-33.35
X265.1Y-38.15
X265.766Y-96.868
X266.469Y-106.281
X267.455Y-116.845
X267.5Y-101.1
X269.9Y-111.15
X270.05Y-116.5
X270.35Y-94.4
X270.816Y-40.109
X271.559Y-39.366
X271.8Y-116.7
X271.975Y-63.127
X271.975Y-66.526
X272.825Y-45.526
X273.875Y-45.526
X274.357Y-120.276
X274.357Y-123.676
X276.05Y-46.502
X276.35Y-118.0
X276.65Y-67.501
X282.35Y-67.501
X283.882Y-101.227
X283.882Y-104.626
X288.644Y-82.176
X288.644Y-85.576
X291.025Y-44.076
X291.025Y-47.476
X295.066Y-122.519
X295.788Y-63.127
X295.788Y-66.526
X296.05Y-121.25
X298.169Y-120.276
X298.169Y-123.676
X300.25Y-121.379
X300.5Y-122.5
T4
X138.75Y-32.25
X160.5Y-32.25
T5
X21.948Y-40.568
X24.33Y-116.768
X26.711Y-59.618
X29.092Y-78.668
X33.855Y-97.718
X40.998Y-40.568
X48.142Y-116.768
X50.523Y-59.618
X55.286Y-78.668
X60.048Y-40.568
X64.811Y-97.718
X69.573Y-59.618
X71.955Y-116.768
X74.336Y-78.668
X79.098Y-40.568
X83.861Y-97.718
X88.623Y-59.618
X93.386Y-78.668
X98.148Y-40.568
X102.911Y-97.718
X107.673Y-59.618
X112.436Y-78.668
X112.436Y-116.768
X117.198Y-40.568
X121.961Y-97.718
X126.723Y-59.618
X129.105Y-135.818
X131.486Y-78.668
X131.486Y-135.818
X136.248Y-40.568
X141.011Y-97.718
X143.392Y-116.768
X145.773Y-59.618
X150.536Y-78.668
X155.298Y-40.568
X155.298Y-135.818
X157.68Y-135.818
X160.061Y-97.718
X164.823Y-59.618
X169.586Y-78.668
X174.348Y-40.568
X174.348Y-116.768
X179.111Y-97.718
X183.873Y-59.618
X188.636Y-78.668
X193.398Y-40.568
X198.161Y-97.718
X202.923Y-59.618
X207.686Y-78.668
X212.448Y-40.568
X214.83Y-116.768
X217.211Y-97.718
X221.973Y-59.618
X226.736Y-78.668
X231.498Y-40.568
X236.261Y-97.718
X238.642Y-116.768
X241.023Y-59.618
X245.786Y-78.668
X250.548Y-40.568
X260.073Y-59.618
X262.455Y-116.768
X271.98Y-97.718
X276.742Y-78.668
X279.123Y-40.568
X283.886Y-59.618
X286.267Y-116.768
T6
X139.619Y-57.3
X139.619Y-58.8
X139.619Y-60.3
X139.619Y-61.8
X139.619Y-63.3
X139.619Y-64.8
X139.619Y-66.3
X140.519Y-57.3
X140.519Y-58.8
X140.519Y-60.3
X140.519Y-61.8
X140.519Y-63.3
X140.519Y-64.8
X140.519Y-66.3
X144.382Y-78.27
X144.382Y-79.77
X144.382Y-81.27
X144.382Y-82.77
X144.382Y-84.27
X144.382Y-85.77
X144.382Y-87.27
X145.282Y-78.27
X145.282Y-79.77
X145.282Y-81.27
X145.282Y-82.77
X145.282Y-84.27
X145.282Y-85.77
X145.282Y-87.27
X146.762Y-112.6
X146.762Y-113.85
X146.762Y-115.1
X146.762Y-125.71
X146.762Y-127.21
X146.762Y-128.71
X146.762Y-130.21
X146.762Y-131.71
X146.762Y-133.21
X146.762Y-134.71
X147.662Y-112.6
X147.662Y-113.85
X147.662Y-115.1
X147.662Y-125.71
X147.662Y-127.21
X147.662Y-128.71
X147.662Y-130.21
X147.662Y-131.71
X147.662Y-133.21
X147.662Y-134.71
X149.144Y-41.0
X149.144Y-42.5
X149.144Y-44.0
X149.144Y-45.5
X149.144Y-47.0
X149.144Y-48.5
X149.144Y-50.0
X150.044Y-41.0
X150.044Y-42.5
X150.044Y-44.0
X150.044Y-45.5
X150.044Y-47.0
X150.044Y-48.5
X150.044Y-50.0
X153.907Y-93.87
X153.907Y-95.37
X153.907Y-96.87
X153.907Y-98.37
X153.907Y-99.87
X153.907Y-101.37
X153.907Y-102.87
X154.807Y-93.87
X154.807Y-95.37
X154.807Y-96.87
X154.807Y-98.37
X154.807Y-99.87
X154.807Y-101.37
X154.807Y-102.87
T7
X20.693Y-43.148
X23.075Y-119.348
X25.456Y-62.198
X27.837Y-81.248
X30.853Y-43.148
X32.6Y-100.298
X33.235Y-119.348
X35.616Y-62.198
X37.997Y-81.248
X39.743Y-43.148
X42.76Y-100.298
X46.887Y-119.348
X49.268Y-62.198
X49.903Y-43.148
X54.031Y-81.248
X57.047Y-119.348
X58.793Y-43.148
X59.428Y-62.198
X63.556Y-100.298
X64.191Y-81.248
X68.318Y-62.198
X68.953Y-43.148
X70.7Y-119.348
X73.081Y-81.248
X73.716Y-100.298
X77.843Y-43.148
X78.478Y-62.198
X80.86Y-119.348
X82.606Y-100.298
X83.241Y-81.248
X87.368Y-62.198
X88.003Y-43.148
X92.131Y-81.248
X92.766Y-100.298
X96.893Y-43.148
X97.528Y-62.198
X101.656Y-100.298
X102.291Y-81.248
X106.418Y-62.198
X107.053Y-43.148
X111.181Y-81.248
X111.181Y-119.348
X111.816Y-100.298
X115.943Y-43.148
X116.578Y-62.198
X120.706Y-100.298
X121.341Y-81.248
X121.341Y-119.348
X125.468Y-62.198
X126.103Y-43.148
X127.85Y-138.398
X130.231Y-81.248
X130.231Y-138.398
X130.866Y-100.298
X134.993Y-43.148
X135.628Y-62.198
X138.01Y-138.398
X139.756Y-100.298
X140.391Y-81.248
X140.391Y-138.398
X142.137Y-119.348
X144.518Y-62.198
X145.153Y-43.148
X149.281Y-81.248
X149.916Y-100.298
X152.297Y-119.348
X154.043Y-43.148
X154.043Y-138.398
X154.678Y-62.198
X156.425Y-138.398
X158.806Y-100.298
X159.441Y-81.248
X163.568Y-62.198
X164.203Y-43.148
X164.203Y-138.398
X166.585Y-138.398
X168.331Y-81.248
X168.966Y-100.298
X173.093Y-43.148
X173.093Y-119.348
X173.728Y-62.198
X177.856Y-100.298
X178.491Y-81.248
X182.618Y-62.198
X183.253Y-43.148
X183.253Y-119.348
X187.381Y-81.248
X188.016Y-100.298
X192.143Y-43.148
X192.778Y-62.198
X196.906Y-100.298
X197.541Y-81.248
X201.668Y-62.198
X202.303Y-43.148
X206.431Y-81.248
X207.066Y-100.298
X211.193Y-43.148
X211.828Y-62.198
X213.575Y-119.348
X215.956Y-100.298
X216.591Y-81.248
X220.718Y-62.198
X221.353Y-43.148
X223.735Y-119.348
X225.481Y-81.248
X226.116Y-100.298
X230.243Y-43.148
X230.878Y-62.198
X235.006Y-100.298
X235.641Y-81.248
X237.387Y-119.348
X239.768Y-62.198
X240.403Y-43.148
X244.531Y-81.248
X245.166Y-100.298
X247.547Y-119.348
X249.293Y-43.148
X249.928Y-62.198
X254.691Y-81.248
X258.818Y-62.198
X259.453Y-43.148
X261.2Y-119.348
X268.978Y-62.198
X270.725Y-100.298
X271.36Y-119.348
X275.487Y-81.248
X277.868Y-43.148
X280.885Y-100.298
X282.631Y-62.198
X285.012Y-119.348
X285.647Y-81.248
X288.028Y-43.148
X292.791Y-62.198
X295.172Y-119.348
T8
X20.273Y-43.148
X22.655Y-119.348
X25.036Y-62.198
X27.417Y-81.248
X31.273Y-43.148
X32.18Y-100.298
X33.655Y-119.348
X36.036Y-62.198
X38.417Y-81.248
X39.323Y-43.148
X43.18Y-100.298
X46.467Y-119.348
X48.848Y-62.198
X50.323Y-43.148
X53.611Y-81.248
X57.467Y-119.348
X58.373Y-43.148
X59.848Y-62.198
X63.136Y-100.298
X64.611Y-81.248
X67.898Y-62.198
X69.373Y-43.148
X70.28Y-119.348
X72.661Y-81.248
X74.136Y-100.298
X77.423Y-43.148
X78.898Y-62.198
X81.28Y-119.348
X82.186Y-100.298
X83.661Y-81.248
X86.948Y-62.198
X88.423Y-43.148
X91.711Y-81.248
X93.186Y-100.298
X96.473Y-43.148
X97.948Y-62.198
X101.236Y-100.298
X102.711Y-81.248
X105.998Y-62.198
X107.473Y-43.148
X110.761Y-81.248
X110.761Y-119.348
X112.236Y-100.298
X115.523Y-43.148
X116.998Y-62.198
X120.286Y-100.298
X121.761Y-81.248
X121.761Y-119.348
X125.048Y-62.198
X126.523Y-43.148
X127.43Y-138.398
X129.811Y-81.248
X129.811Y-138.398
X131.286Y-100.298
X134.573Y-43.148
X136.048Y-62.198
X138.43Y-138.398
X139.336Y-100.298
X140.811Y-81.248
X140.811Y-138.398
X141.717Y-119.348
X144.098Y-62.198
X145.573Y-43.148
X148.861Y-81.248
X150.336Y-100.298
X152.717Y-119.348
X153.623Y-43.148
X153.623Y-138.398
X155.098Y-62.198
X156.005Y-138.398
X158.386Y-100.298
X159.861Y-81.248
X163.148Y-62.198
X164.623Y-43.148
X164.623Y-138.398
X167.005Y-138.398
X167.911Y-81.248
X169.386Y-100.298
X172.673Y-43.148
X172.673Y-119.348
X174.148Y-62.198
X177.436Y-100.298
X178.911Y-81.248
X182.198Y-62.198
X183.673Y-43.148
X183.673Y-119.348
X186.961Y-81.248
X188.436Y-100.298
X191.723Y-43.148
X193.198Y-62.198
X196.486Y-100.298
X197.961Y-81.248
X201.248Y-62.198
X202.723Y-43.148
X206.011Y-81.248
X207.486Y-100.298
X210.773Y-43.148
X212.248Y-62.198
X213.155Y-119.348
X215.536Y-100.298
X217.011Y-81.248
X220.298Y-62.198
X221.773Y-43.148
X224.155Y-119.348
X225.061Y-81.248
X226.536Y-100.298
X229.823Y-43.148
X231.298Y-62.198
X234.586Y-100.298
X236.061Y-81.248
X236.967Y-119.348
X239.348Y-62.198
X240.823Y-43.148
X244.111Y-81.248
X245.586Y-100.298
X247.967Y-119.348
X248.873Y-43.148
X250.348Y-62.198
X255.111Y-81.248
X258.398Y-62.198
X259.873Y-43.148
X260.78Y-119.348
X269.398Y-62.198
X270.305Y-100.298
X271.78Y-119.348
X275.067Y-81.248
X277.448Y-43.148
X281.305Y-100.298
X282.211Y-62.198
X284.592Y-119.348
X286.067Y-81.248
X288.448Y-43.148
X293.211Y-62.198
X295.592Y-119.348
T9
X20.245Y-32.622
X37.5Y-110.25
X114.75Y-32.622
X126.3Y-90.2
X132.6Y-32.622
X143.213Y-129.0
X151.213Y-129.0
X163.35Y-90.2
X166.58Y-32.622
X184.43Y-32.622
X280.75Y-110.5
X297.995Y-32.622
T10
X21.963Y-40.608
X24.345Y-116.808
X26.726Y-59.658
X28.313Y-38.068
X29.107Y-78.708
X30.695Y-114.268
X33.076Y-57.118
X33.87Y-97.758
X35.457Y-76.168
X40.22Y-95.218
X41.013Y-40.608
X47.363Y-38.068
X48.157Y-116.808
X50.538Y-59.658
X54.507Y-114.268
X55.301Y-78.708
X56.888Y-57.118
X60.063Y-40.608
X61.651Y-76.168
X64.826Y-97.758
X66.413Y-38.068
X69.588Y-59.658
X71.176Y-95.218
X71.97Y-116.808
X74.351Y-78.708
X75.938Y-57.118
X78.32Y-114.268
X79.113Y-40.608
X80.701Y-76.168
X83.876Y-97.758
X85.463Y-38.068
X88.638Y-59.658
X90.226Y-95.218
X93.401Y-78.708
X94.988Y-57.118
X98.163Y-40.608
X99.751Y-76.168
X102.926Y-97.758
X104.513Y-38.068
X107.688Y-59.658
X109.276Y-95.218
X112.451Y-78.708
X112.451Y-116.808
X114.038Y-57.118
X117.213Y-40.608
X118.801Y-76.168
X118.801Y-114.268
X121.976Y-97.758
X123.563Y-38.068
X126.738Y-59.658
X128.326Y-95.218
X129.12Y-135.858
X131.501Y-78.708
X131.501Y-135.858
X133.088Y-57.118
X135.47Y-133.318
X136.263Y-40.608
X137.851Y-76.168
X137.851Y-133.318
X141.026Y-97.758
X142.613Y-38.068
X143.407Y-116.808
X145.788Y-59.658
X147.376Y-95.218
X149.757Y-114.268
X150.551Y-78.708
X152.138Y-57.118
X155.313Y-40.608
X155.313Y-135.858
X156.901Y-76.168
X157.695Y-135.858
X160.076Y-97.758
X161.663Y-38.068
X161.663Y-133.318
X164.045Y-133.318
X164.838Y-59.658
X166.426Y-95.218
X169.601Y-78.708
X171.188Y-57.118
X174.363Y-40.608
X174.363Y-116.808
X175.951Y-76.168
X179.126Y-97.758
X180.713Y-38.068
X180.713Y-114.268
X183.888Y-59.658
X185.476Y-95.218
X188.651Y-78.708
X190.238Y-57.118
X193.413Y-40.608
X195.001Y-76.168
X198.176Y-97.758
X199.763Y-38.068
X202.938Y-59.658
X204.526Y-95.218
X207.701Y-78.708
X209.288Y-57.118
X212.463Y-40.608
X214.051Y-76.168
X214.845Y-116.808
X217.226Y-97.758
X218.813Y-38.068
X221.195Y-114.268
X221.988Y-59.658
X223.576Y-95.218
X226.751Y-78.708
X228.338Y-57.118
X231.513Y-40.608
X233.101Y-76.168
X236.276Y-97.758
X237.863Y-38.068
X238.657Y-116.808
X241.038Y-59.658
X242.626Y-95.218
X245.007Y-114.268
X245.801Y-78.708
X247.388Y-57.118
X250.563Y-40.608
X252.151Y-76.168
X256.913Y-38.068
X260.088Y-59.658
X262.47Y-116.808
X266.438Y-57.118
X268.82Y-114.268
X271.995Y-97.758
X276.757Y-78.708
X278.345Y-95.218
X279.138Y-40.608
X283.107Y-76.168
X283.901Y-59.658
X285.488Y-38.068
X286.282Y-116.808
X290.251Y-57.118
X292.632Y-114.268
T11
X25.627Y-93.274
X49.503Y-93.274
X97.096Y-112.325
X135.196Y-112.325
X159.009Y-112.325
X197.109Y-112.325
X263.752Y-93.274
X268.515Y-74.224
X271.006Y-36.164
X287.628Y-93.274
X292.391Y-74.224
X294.882Y-36.164
T12
X25.627Y-108.514
X49.503Y-108.514
X97.096Y-127.564
X135.196Y-127.564
X159.009Y-127.564
X197.109Y-127.564
X263.752Y-108.514
X268.515Y-89.465
X271.006Y-51.404
X287.628Y-108.514
X292.391Y-89.465
X294.882Y-51.404
T13
X25.773Y-43.148
X28.155Y-119.348
X30.536Y-62.198
X32.917Y-81.248
X37.68Y-100.298
X44.823Y-43.148
X51.967Y-119.348
X54.348Y-62.198
X59.111Y-81.248
X63.873Y-43.148
X68.636Y-100.298
X73.398Y-62.198
X75.78Y-119.348
X78.161Y-81.248
X82.923Y-43.148
X87.686Y-100.298
X92.448Y-62.198
X97.211Y-81.248
X101.973Y-43.148
X106.736Y-100.298
X111.498Y-62.198
X116.261Y-81.248
X116.261Y-119.348
X121.023Y-43.148
X125.786Y-100.298
X130.548Y-62.198
X132.93Y-138.398
X135.311Y-81.248
X135.311Y-138.398
X140.073Y-43.148
X144.836Y-100.298
X147.217Y-119.348
X149.598Y-62.198
X154.361Y-81.248
X159.123Y-43.148
X159.123Y-138.398
X161.505Y-138.398
X163.886Y-100.298
X168.648Y-62.198
X173.411Y-81.248
X178.173Y-43.148
X178.173Y-119.348
X182.936Y-100.298
X187.698Y-62.198
X192.461Y-81.248
X197.223Y-43.148
X201.986Y-100.298
X206.748Y-62.198
X211.511Y-81.248
X216.273Y-43.148
X218.655Y-119.348
X221.036Y-100.298
X225.798Y-62.198
X230.561Y-81.248
X235.323Y-43.148
X240.086Y-100.298
X242.467Y-119.348
X244.848Y-62.198
X249.611Y-81.248
X254.373Y-43.148
X263.898Y-62.198
X266.28Y-119.348
X275.805Y-100.298
X280.567Y-81.248
X282.948Y-43.148
X287.711Y-62.198
X290.092Y-119.348
T2
X119.35Y-29.99G85X119.35Y-30.79
G05
X119.35Y-33.02G85X119.35Y-34.52
G05
X128.0Y-29.99G85X128.0Y-30.79
G05
X128.0Y-33.02G85X128.0Y-34.52
G05
X171.18Y-29.99G85X171.18Y-30.79
G05
X171.18Y-33.02G85X171.18Y-34.52
G05
X179.83Y-29.99G85X179.83Y-30.79
G05
X179.83Y-33.02G85X179.83Y-34.52
G05
T3
X138.2Y-34.05G85X137.3Y-34.05
G05
X139.2Y-29.65G85X138.3Y-29.65
G05
X140.4Y-34.85G85X139.5Y-34.85
G05
X144.2Y-29.65G85X143.3Y-29.65
G05
X148.3Y-34.45G85X147.4Y-34.45
G05
X148.4Y-29.35G85X147.5Y-29.35
G05
X150.85Y-35.15G85X151.75Y-35.15
G05
X150.95Y-30.05G85X151.85Y-30.05
G05
X155.05Y-34.85G85X155.95Y-34.85
G05
X158.85Y-29.65G85X159.75Y-29.65
G05
X160.05Y-34.85G85X160.95Y-34.85
G05
X161.05Y-30.45G85X161.95Y-30.45
G05
T0
M30
